<?xml version="1.0" encoding="utf-8"?>
<!-- Generator: Adobe Illustrator 24.0.1, SVG Export Plug-In . SVG Version: 6.00 Build 0)  -->
<svg version="1.1" id="Capa_1" xmlns="http://www.w3.org/2000/svg" xmlns:xlink="http://www.w3.org/1999/xlink" x="0px" y="0px"
	 viewBox="0 0 348.1 348.1" style="enable-background:new 0 0 348.1 348.1;" xml:space="preserve">
<style type="text/css">
	.st0{fill:#919090;}
	.st1{fill:#FFFFFF;}
</style>
<circle class="st0" cx="174" cy="173.9" r="174.1"/>
<g>
	<g>
		<g>
			<path class="st1" d="M258.2,225.1l-27.3-27.3c-5.5-5.5-14.5-5.1-20,0.3l-13.6,13.6c-0.9-0.6-1.8-0.9-2.7-1.5
				c-8.8-4.8-20.6-11.5-33-23.9c-12.4-12.4-19.1-24.5-23.9-33c-0.6-0.9-0.9-1.8-1.5-2.7l9.1-9.1l4.5-4.5c5.8-5.8,5.8-14.5,0.3-20
				l-27.3-27.3c-5.5-5.5-14.5-5.1-20,0.3l-7.6,7.9l0.3,0.3c-2.7,3.3-4.8,7-6.4,11.2c-1.5,3.9-2.4,7.6-2.7,11.2
				c-3.6,30,10,57.2,47.2,94.2c51.2,51.2,92.3,47.2,94.2,47.2c3.9-0.6,7.6-1.5,11.2-2.7c3.9-1.5,7.9-3.6,11.2-6.4l0.3,0.3l7.9-7.6
				C263.6,239.6,263.6,230.5,258.2,225.1z"/>
		</g>
	</g>
</g>
</svg>
