<svg id="Capa_1" data-name="Capa 1" xmlns="http://www.w3.org/2000/svg" viewBox="0 0 18.61 25.73"><defs><style>.cls-1{fill:#fff;}</style></defs><title>icon</title><path class="cls-1" d="M21.23,2.48V1.4h.94V0H3.56V1.4h.95V2.48h.17c0,3.28,3.58,7.68,6.1,10.39-2.52,2.7-6.1,7.1-6.1,10.38H4.5v1.08H3.56v1.4H22.17v-1.4h-.94V23.25h-.18c0-3.28-3.57-7.68-6.1-10.38,2.53-2.71,6.1-7.11,6.1-10.39ZM13.65,12.87c1.87,1.94,6.46,7,6.46,10.38H18.49a1,1,0,0,0-.33-.59L13.6,18.9a1,1,0,0,0-1.25,0L7.57,22.65a1,1,0,0,0-.33.6H5.62c0-3.36,4.59-8.45,6.47-10.38-1.88-1.94-6.47-7-6.47-10.39H20.11C20.11,5.84,15.52,10.93,13.65,12.87Z" transform="translate(-3.56 0)"/><path class="cls-1" d="M9,5.28A1.23,1.23,0,0,0,9,6.84l3.13,3.42a1,1,0,0,0,.74.32,1,1,0,0,0,.73-.32l3.14-3.42a1.25,1.25,0,0,0,0-1.57Z" transform="translate(-3.56 0)"/></svg>