<?xml version="1.0" encoding="utf-8"?>
<!-- Generator: Adobe Illustrator 24.0.1, SVG Export Plug-In . SVG Version: 6.00 Build 0)  -->
<svg version="1.1" id="Layer_1" xmlns="http://www.w3.org/2000/svg" xmlns:xlink="http://www.w3.org/1999/xlink" x="0px" y="0px"
	 viewBox="0 0 512 512" style="enable-background:new 0 0 512 512;" xml:space="preserve">
<style type="text/css">
	.st0{fill:#919090;}
	.st1{fill:#FFFFFF;}
</style>
<circle class="st0" cx="256" cy="256" r="256"/>
<g>
	<path class="st1" d="M301,158.1h-90.4c-29.4,0-53,23.6-53,53v90.4c0,29.4,23.6,53,53,53H301c29.4,0,53-23.6,53-53V211
		C353.9,181.6,330.4,158.1,301,158.1z M291.6,281.8c-7.1,9.3-17.4,15.6-28.9,17.4c-2.2,0.4-4.5,0.4-6.7,0.4
		c-9.3,0-18.3-3.1-26.3-8.5c-9.3-7.1-15.6-17.4-17.4-28.9c-1.8-11.6,1.3-23.2,8-32.5c6.7-9.3,17.4-15.6,28.9-17.4
		c4.5-0.4,8.5-0.4,12.9,0c9.3,1.3,17.8,5.8,24.5,12.5c6.7,6.7,11.1,15.1,12.5,24.5C301.9,260.9,298.7,272.5,291.6,281.8z
		 M311.2,211.9c-1.3,1.3-3.6,2.2-5.8,2.2c-2.2,0-4-0.9-5.8-2.2c-1.3-1.3-2.2-3.6-2.2-5.8c0-2.2,0.9-4,2.2-5.8
		c1.3-1.3,3.6-2.2,5.8-2.2c2.2,0,4,0.9,5.8,2.2c1.3,1.3,2.2,3.6,2.2,5.8C313.4,208.4,312.5,210.6,311.2,211.9z"/>
	<path class="st1" d="M260.5,228c-1.3,0-2.7-0.4-4-0.4s-2.7,0-4,0.4c-7.6,0.9-13.8,4.9-18.3,11.1c-4.5,6.2-6.2,13.4-5.3,20.9
		c0.9,7.6,4.9,13.8,11.1,18.3s13.4,6.2,20.9,5.3c15.6-2.2,25.8-16.5,23.6-32.1C282.3,239.1,272.9,229.7,260.5,228z"/>
</g>
</svg>
