<?xml version="1.0" encoding="utf-8"?>
<!-- Generator: Adobe Illustrator 24.0.1, SVG Export Plug-In . SVG Version: 6.00 Build 0)  -->
<svg version="1.1" id="Layer_1" xmlns="http://www.w3.org/2000/svg" xmlns:xlink="http://www.w3.org/1999/xlink" x="0px" y="0px"
	 viewBox="0 0 512 512" style="enable-background:new 0 0 512 512;" xml:space="preserve">
<style type="text/css">
	.st0{fill:#646262;}
</style>
<g>
	<path class="st0" d="M373.7,0H138.3C62.1,0,0,62.1,0,138.3v235.3C0,449.9,62.1,512,138.3,512h235.3c76.3,0,138.3-62.1,138.3-138.3
		V138.3C512,62.1,449.9,0,373.7,0z M349.2,323.4c-18.3,24.6-45,40.7-75.4,45.2c-5.7,0.8-11.4,1.3-17.1,1.3
		c-24.4,0-48.2-7.8-68.2-22.6c-24.6-18.3-40.7-45-45.2-75.4c-4.5-30.3,3.1-60.6,21.4-85.2s45-40.7,75.4-45.2
		c11.2-1.7,22.5-1.7,33.7,0c24.5,3.6,46.8,14.8,64.3,32.4c17.5,17.5,28.7,39.8,32.4,64.3C375.1,268.5,367.5,298.7,349.2,323.4z
		 M400,141.2c-3.9,3.9-9.2,6.1-14.6,6.1s-10.8-2.2-14.6-6.1c-3.9-3.9-6.1-9.2-6.1-14.6c0-5.4,2.2-10.8,6.1-14.6
		c3.9-3.9,9.2-6.1,14.6-6.1s10.8,2.2,14.6,6.1c3.9,3.9,6.1,9.2,6.1,14.6C406.1,132,403.9,137.3,400,141.2z"/>
	<path class="st0" d="M267.8,182.3c-3.6-0.5-7.2-0.8-10.8-0.8s-7.2,0.3-10.8,0.8c-19.4,2.9-36.5,13.1-48.2,28.9
		s-16.5,35.1-13.7,54.5c2.9,19.4,13.1,36.5,28.9,48.2s35.1,16.5,54.5,13.7c40.1-5.9,67.8-43.4,61.9-83.4
		C324.9,212,300,187.1,267.8,182.3z"/>
</g>
</svg>
