<?xml version="1.0" encoding="utf-8"?>
<!-- Generator: Adobe Illustrator 24.0.1, SVG Export Plug-In . SVG Version: 6.00 Build 0)  -->
<svg version="1.1" id="Capa_1" xmlns="http://www.w3.org/2000/svg" xmlns:xlink="http://www.w3.org/1999/xlink" x="0px" y="0px"
	 viewBox="0 0 55 55" style="enable-background:new 0 0 55 55;" xml:space="preserve">
<style type="text/css">
	.st0{fill:#FFFFFF;}
</style>
<path class="st0" d="M46.3,32.9l9.7-5.5l-9.7-5.5l9.7-5.5L27.5,0.2L-1,16.4l9.7,5.5L-1,27.4l9.7,5.5L-1,38.4l28.5,16.3L56,38.4
	L46.3,32.9z M11.7,34.7l15.8,9l15.8-9l6.6,3.8L27.5,51.2L5.1,38.4L11.7,34.7z M11.7,23.7l15.8,9l15.8-9l6.6,3.8L27.5,40.2L5.1,27.4
	L11.7,23.7z M5.1,16.4L27.5,3.7l22.4,12.7L27.5,29.2L5.1,16.4z"/>
</svg>
