<?xml version="1.0" encoding="utf-8"?>
<!-- Generator: Adobe Illustrator 24.0.1, SVG Export Plug-In . SVG Version: 6.00 Build 0)  -->
<svg version="1.1" id="Capa_1" xmlns="http://www.w3.org/2000/svg" xmlns:xlink="http://www.w3.org/1999/xlink" x="0px" y="0px"
	 viewBox="0 0 512 512" style="enable-background:new 0 0 512 512;" xml:space="preserve">
<style type="text/css">
	.st0{fill:#FFFFFF;}
</style>
<g>
	<g>
		<g id="Menu_1_">
			<path class="st0" d="M16,160h480c8.8,0,16-7.2,16-16c0-8.8-7.2-16-16-16H16c-8.8,0-16,7.2-16,16C0,152.8,7.2,160,16,160z"/>
			<path class="st0" d="M496,240H16c-8.8,0-16,7.2-16,16s7.2,16,16,16h480c8.8,0,16-7.2,16-16S504.8,240,496,240z"/>
			<path class="st0" d="M496,352H176c-8.8,0-16,7.2-16,16c0,8.8,7.2,16,16,16h320c8.8,0,16-7.2,16-16C512,359.2,504.8,352,496,352z"
				/>
		</g>
	</g>
</g>
</svg>
