<?xml version="1.0" encoding="utf-8"?>
<!-- Generator: Adobe Illustrator 24.0.1, SVG Export Plug-In . SVG Version: 6.00 Build 0)  -->
<svg version="1.1" id="Capa_1" xmlns="http://www.w3.org/2000/svg" xmlns:xlink="http://www.w3.org/1999/xlink" x="0px" y="0px"
	 viewBox="0 0 548.4 548.4" style="enable-background:new 0 0 548.4 548.4;" xml:space="preserve">
<style type="text/css">
	.st0{fill:#919090;}
	.st1{fill:#FFFFFF;}
</style>
<title>vk-social-network-logo</title>
<circle class="st0" cx="274" cy="273.9" r="274.4"/>
<path class="st1" d="M432,347.4c-0.5-1-1-1.4-1-1.9c-5.7-10-16.2-22.4-32-36.7l-0.5-0.5l0,0l0,0l0,0c-7.2-6.7-11.5-11.5-13.4-13.8
	c-3.3-4.3-4.3-9.1-2.4-13.4c1.4-3.3,6.2-10.5,14.8-22c4.8-5.7,8.1-10.5,11-14.3c19.1-25.8,27.7-42,24.8-49.2l-1-1.4
	c-0.5-1-2.4-1.9-5.2-2.9s-6.2-1-10.5-0.5l-47.7,0.5c-1-0.5-1.9,0-3.3,0l-2.4,0.5l-1,0.5l-0.5,0.5c-0.5,0.5-1.4,1-1.9,1.9
	c-0.5,1-1.4,1.9-1.4,2.9c-4.8,12.9-11,25.3-17.7,37.2c-4.3,6.7-7.6,12.9-11.5,18.1c-3.3,5.2-6.2,8.6-8.6,11
	c-1.9,1.9-4.3,3.8-6.2,5.7c-1.9,1.4-3.3,1.9-4.3,1.9s-1.9-0.5-2.9-0.5c-1.4-1-2.9-2.4-3.8-4.3c-1-1.9-1.9-4.3-1.9-6.7
	c-0.5-2.4-0.5-4.3-0.5-6.7c0-1.9,0-4.8,0-8.1c0-3.3,0-5.7,0-7.2c0-4.3,0-8.6,0-13.8s0.5-9.1,0.5-11.9c0-2.9,0-5.7,0-9.1
	c0-2.4,0-5.2-0.5-7.6c-0.5-1.9-1-3.8-1.9-5.2c-1-1.4-1.9-2.9-3.3-3.8c-1.9-1-3.8-1.9-5.7-2.4c-5.7-1.4-13.4-1.9-22.4-2.4
	c-20.5,0-33.9,1-39.6,3.8c-2.4,1.4-4.8,2.9-6.2,5.2c-1.9,2.4-2.4,3.8-1,3.8c6.7,1,11.5,3.3,14.3,7.2l1,1.9c1,1.4,1.4,3.8,2.4,7.6
	c1,3.8,1.4,8.1,1.4,11.9c0.5,7.2,0.5,13.8,0,21c-0.5,5.7-1,10.5-1.4,13.4c-0.5,3.3-1.4,5.7-2.4,7.6c-1,1.9-1.9,3.3-1.9,3.8
	c0,0.5-0.5,0.5-1,1c-1.4,0.5-2.9,1-4.3,1s-3.3-1-5.7-2.4c-2.4-1.9-4.8-3.8-6.7-6.2c-2.9-3.8-5.7-7.6-8.1-11.5
	c-2.9-4.8-6.2-10.5-9.5-17.2l-2.9-4.8c-1.9-2.9-3.8-7.6-6.7-13.4c-2.9-5.7-5.2-11.5-7.6-17.2c-1-2.4-2.4-3.8-3.8-5.2l-1-0.5
	c-1-0.5-1.9-1-2.9-1.4c-1.4-0.5-2.4-1-3.8-1l-45.8,0.5c-4.8,0-7.6,1-9.5,3.3l-0.5,1c-0.5,1-0.5,1.9-0.5,2.9c0,1.4,0.5,2.9,1,4.3
	c6.7,15.7,13.8,30.5,22,45.3c8.1,14.8,14.8,26.2,20.5,35.3c5.7,9.1,11.5,17.2,17.7,25.3c6.2,7.6,10,12.9,11.9,15.3
	c1.9,2.4,3.3,3.8,4.8,5.2l4.3,3.8c2.9,2.9,6.7,5.7,11.9,9.5c5.2,3.8,11,7.6,17.2,11c6.7,3.8,14.3,6.7,22,8.6
	c8.1,2.4,16.2,3.3,24.3,2.9h19.1c3.8-0.5,6.7-1.4,8.6-3.8l0.5-1c0.5-1,1-1.9,1.4-2.9c0.5-1.4,0.5-2.9,0.5-4.8c0-4.3,0-8.6,1-12.9
	c1-3.8,1.9-6.7,2.9-8.6s2.4-3.3,3.3-4.8c1.4-1.4,2.4-2.4,2.9-2.4c0.5,0,1-0.5,1.4-0.5c2.9-1,5.7,0,9.5,2.4c3.8,2.9,7.2,6.2,10,9.5
	c3.3,3.8,7.2,8.1,11.5,12.9c4.3,4.8,8.1,8.1,11.5,10.5l3.3,1.9c2.9,1.4,5.7,2.9,8.6,3.8c3.3,1,6.7,1.4,9.5,1l42.5-0.5
	c4.3,0,7.6-0.5,10-1.9c2.4-1.4,3.8-2.9,4.3-4.8c0.5-1.9,0.5-3.8,0-5.7C432.9,350.3,432.4,348.8,432,347.4z"/>
</svg>
