<svg id="level-2" xmlns="http://www.w3.org/2000/svg" xmlns:xlink="http://www.w3.org/1999/xlink" viewBox="0 0 2389 2314.5" style="enable-background:new 0 0 2389 2314.5"><style>.st0{fill:#dbdbe0}.st1{fill:#cbcbcd}.st2{fill:#aaaba7}.st3{fill:#ebebeb}.st4{fill:#bebebe}</style><title>Карта</title><path class="st0" d="M52.5 1026h1104V15h1188V2096H52.5z"/><path class="st1" d="M1157.7 15V418H1233V293.5h329V418h175.5V15z"/><path class="st1" d="M1757.5 15V418.5H1899V858h445.5V15z"/><path class="st1" d="M1897.5 876h447v177h-447z"/><path class="st1" d="M1897.5 1075h447v177h-447z"/><path class="st1" d="M1897.5 1275h447v167h-447z"/><path class="st1" d="M1897.5 1464h447v167h-447z"/><path class="st1" d="M1897.5 1648h447v138h-447z"/><path class="st1" d="M1166.4 876h430.1v177H1166.4z"/><path class="st1" d="M1166.4 690h430.1v168H1166.4z"/><path class="st1" d="M1166.4 497h430.1v177H1166.4z"/><path class="st1" d="M1166.4 1075h430.1v177H1166.4z"/><path class="st1" d="M1166.4 1275h430.1v167H1166.4z"/><path class="st1" d="M1166.4 1464h430.1v167H1166.4z"/><path class="st1" d="M1225 1648v51.5h48V1786h323.5V1648z"/><path class="st1" d="M1707.5 1607h76v130h-76z"/><path class="st1" d="M1707.5 1448h76v130h-76z"/><path class="st1" d="M1707.5 1289h76v130h-76z"/><path class="st1" d="M1707.5 1122h76v130h-76z"/><path class="st1" d="M2344.5 2095.6v-286.1H1225v26h-218v-198h139.1V1026H52.5v228.5H248v391H52.5v442.6c-41.6 30.1-50.9 88.2-20.8 129.9 30.1 41.6 88.2 50.9 129.9 20.8 5.8-4.2 11-9 15.7-14.3 56.5 11.3 287.6 48.9 830.3 39.5v-42.5c83.4 95.8 228.7 105.9 324.5 22.5 11.6-10.1 22.2-21.3 31.5-33.5v53.5c637 11 844.7-42.6 844.7-42.6v0c31.9 40.2 90.4 46.9 130.7 15 40.2-31.9 46.9-90.4 15-130.7C2351 2102.1 2347.9 2098.7 2344.5 2095.6z"/><path class="st2" d="M467.9 1402.8h-7.4v-17.5h-46.6v17.5h-7.4v-24.6h5.2c5.2-9.1 9.3-18.8 12.1-28.9 3.1-10.1 5-20.6 5.6-31.1h30.2v60h8.5V1402.8zM451.6 1378.2v-53h-15.3c-.5 7.4-2.4 16.3-5.5 26.7-2.6 9.2-6.3 18-11 26.3H451.6z"/><path class="st2" d="M499.3 1386.2c-7.4.0-13.3-2.3-17.6-6.8s-6.5-10.8-6.5-18.9c0-8.1 2-14.5 6-19.3s9.4-7.2 16.1-7.2c6.3.0 11.3 2.1 15 6.2 3.7 4.1 5.5 9.6 5.5 16.4v4.8h-34.7c.2 5.9 1.6 10.4 4.5 13.4 2.8 3.1 6.8 4.6 12 4.6 5.5.0 11-1.2 16.1-3.4v6.8c-2.5 1.1-5 1.9-7.6 2.5C505.2 1386 502.2 1386.3 499.3 1386.2zM497.2 1340.5c-3.7-.2-7.2 1.3-9.7 4-2.4 2.6-3.8 6.3-4.3 10.9h26.3c0-4.8-1.1-8.5-3.2-11C504.3 1341.9 501.2 1340.5 497.2 1340.5z"/><path class="st2" d="M564.7 1341.5h-16.3v43.8h-7.6v-43.8h-16.2v-6.5h40.1v6.5z"/><path class="st2" d="M594.8 1386.2c-7.3.0-12.9-2.2-16.9-6.7-4-4.5-6-10.8-6-19 0-8.4 2-14.9 6.1-19.5s9.8-6.9 17.3-6.9c2.4.0 4.9.3 7.3.8 2 .4 3.9 1 5.7 1.8l-2.3 6.5c-1.8-.7-3.6-1.3-5.5-1.7-1.7-.4-3.5-.6-5.3-.7-10.2.0-15.3 6.5-15.3 19.6.0 6.2 1.2 10.9 3.7 14.2 2.5 3.3 6.2 5 11.1 5 4.4.0 8.8-1 12.9-2.7v6.7C604.1 1385.4 599.9 1386.2 594.8 1386.2z"/><path class="st2" d="M648.8 1335h8.3l-21.7 24.3 23.5 26H650l-23-25.5v25.5h-7.6V1335h7.6v24.5L648.8 1335z"/><path class="st2" d="M675.4 1335v31.9l-.3 8.3-.1 2.6 27.2-42.9h9.5v50.3h-7.1v-30.8l.1-6.1.2-6-27.2 42.8h-9.5V1335H675.4z"
	/><path class="st2" d="M735 1335v31.9l-.3 8.3-.1 2.6 27.2-42.9h9.5v50.3h-7.1v-30.8l.1-6.1.2-6-27.2 42.8h-9.5V1335H735zM749.4 1328.3c-5.7.0-9.8-1.1-12.4-3.3-2.6-2.2-4.1-5.8-4.4-10.8h7.2c.3 3.2 1.1 5.4 2.5 6.7 1.4 1.3 3.8 1.9 7.3 1.9 3.1.0 5.5-.7 7-2 1.5-1.3 2.4-3.5 2.8-6.5h7.2c-.4 4.8-1.9 8.4-4.6 10.7S755 1328.3 749.4 1328.3v0z"/><path class="st2" d="M842.6 1385.3l-22.8-59.5h-.4c.4 4.7.6 10.3.6 16.8v42.7h-7.2v-67.1h11.8l21.3 55.3h.4l21.4-55.3h11.7v67.1h-7.8v-43.2c0-5 .2-10.3.6-16.2h-.4l-23 59.4H842.6z"/><path class="st2" d="M903.8 1335v31.9l-.3 8.3-.1 2.6 27.2-42.9h9.5v50.3H933v-30.8l.1-6.1.2-6-27.2 42.8h-9.5V1335H903.8z"
	/><path class="st2" d="M979.6 1386.2c-3.1.0-6.2-.6-9-1.8-2.7-1.2-5.1-3.1-6.8-5.6h-.5c.4 2.8.5 5.6.5 8.3v20.7h-7.6V1335h6.2l1.1 6.9h.4c1.7-2.6 4.1-4.6 6.8-6 2.8-1.3 5.9-1.9 9-1.8 6.7.0 11.8 2.3 15.5 6.8 3.6 4.6 5.4 11 5.4 19.2.0 8.3-1.8 14.7-5.5 19.3S986.2 1386.2 979.6 1386.2zM978.5 1340.6c-5.1.0-8.9 1.4-11.2 4.3s-3.5 7.4-3.5 13.6v1.7c0 7.1 1.2 12.1 3.5 15.2s6.1 4.6 11.3 4.6c4.1.1 8-1.9 10.2-5.3 2.5-3.5 3.7-8.4 3.7-14.6.0-6.2-1.2-11-3.7-14.4C986.5 1342.3 982.6 1340.4 978.5 1340.6v0z"/><path class="st2" d="M2063.3 463.7c0 10.7-2.7 19.2-8.1 25.3s-13 9.2-22.7 9.2c-9.9.0-17.5-3-22.9-9.1-5.4-6-8.1-14.6-8.1-25.6.0-10.9 2.7-19.4 8.1-25.4 5.4-6 13.1-9 23-9 9.6.0 17.2 3.1 22.6 9.2S2063.4 452.9 2063.3 463.7zM2009.9 463.7c0 9.1 1.9 16 5.8 20.7s9.5 7 16.9 7c7.4.0 13.1-2.3 16.8-7 3.8-4.7 5.7-11.6 5.7-20.7.0-9-1.9-15.9-5.7-20.5-3.8-4.7-9.4-7-16.8-7-7.4.0-13.1 2.3-17 7C2011.7 447.8 2009.8 454.7 2009.9 463.7v0z"/><path class="st2" d="M2136.6 463.7c0 10.7-2.7 19.2-8.1 25.3-5.4 6.1-13 9.2-22.6 9.2-9.9.0-17.5-3-22.9-9.1-5.4-6-8-14.6-8-25.6.0-10.9 2.7-19.4 8.1-25.4 5.4-6 13-9 23-9 9.6.0 17.2 3.1 22.6 9.2C2134 444.5 2136.6 452.9 2136.6 463.7zm-53.5.0c0 9.1 1.9 16 5.8 20.7s9.5 7 16.9 7c7.4.0 13.1-2.3 16.9-7s5.7-11.6 5.7-20.7c0-9-1.9-15.9-5.7-20.5-3.8-4.7-9.4-7-16.8-7-7.4.0-13.1 2.3-17 7C2084.9 447.8 2083 454.7 2083.1 463.7z"/><path class="st2" d="M2205.1 463.1c0 11.1-3 19.5-9 25.4-6 5.9-14.7 8.8-26 8.8h-18.6v-67.1h20.6c10.4.0 18.5 2.9 24.3 8.7C2202.2 444.7 2205.1 452.7 2205.1 463.1zM2196.8 463.4c0-8.7-2.2-15.3-6.6-19.8s-10.9-6.6-19.6-6.6h-11.3v53.6h9.5c9.3.0 16.3-2.3 21-6.9C2194.5 479.2 2196.8 472.4 2196.8 463.4v0z"/><path class="st2" d="M2210.3 515c-2.3.1-4.7-.3-6.8-1.2v-6.6c2.2.6 4.5.9 6.8.9 3 0 5.3-.9 6.9-2.8s2.4-4.5 2.4-7.9v-67.1h7.8v66.5c0 5.8-1.5 10.3-4.4 13.5C2220 513.4 2215.8 515 2210.3 515z"/><path class="st2" d="M2245.1 497.3v-67.1h7.8v67.1H2245.1z"/><path class="st2" d="M1308.3 1701.3h7.5c3.5.0 6.1.5 7.7 1.6 1.6 1.1 2.5 3 2.4 5 .1 1.4-.4 2.8-1.3 3.9-1 1.1-2.4 1.8-3.9 2v.2c4.1.7 6.1 2.8 6.1 6.4.1 2.1-.8 4.2-2.4 5.6-2 1.4-4.3 2.2-6.8 2h-9.3V1701.3zM1311.4 1712.7h5.1c1.6.1 3.3-.2 4.7-1 1-.8 1.6-2.2 1.4-3.5.1-1.3-.5-2.5-1.6-3.2-1.6-.8-3.3-1.1-5.1-1h-4.6V1712.7zM1311.4 1715.3v10h5.6c1.7.1 3.4-.3 4.9-1.3 1.1-1 1.8-2.4 1.6-3.9.1-1.4-.5-2.8-1.7-3.7-1.5-.9-3.3-1.3-5.1-1.2L1311.4 1715.3z"/><path class="st2" d="M1340.5 1728.3c-2.6.1-5.2-.8-7-2.7-1.7-1.8-2.6-4.3-2.6-7.5-.1-2.8.7-5.5 2.4-7.7 1.6-1.9 3.9-2.9 6.4-2.8 2.3-.1 4.5.8 6 2.5 1.5 1.8 2.3 4.2 2.2 6.5v1.9h-13.8c-.1 1.9.5 3.8 1.8 5.3 1.3 1.3 3 1.9 4.8 1.8 2.2.0 4.4-.5 6.4-1.3v2.7c-1 .4-2 .8-3 1C1342.9 1728.2 1341.7 1728.3 1340.5 1728.3zM1339.7 1710.1c-1.4-.1-2.8.5-3.8 1.6-1 1.2-1.6 2.7-1.7 4.3h10.5c.1-1.6-.3-3.1-1.3-4.4C1342.4 1710.6 1341 1710 1339.7 1710.1z"/><path class="st2" d="M1361 1728.3c-2.5.2-5-.8-6.7-2.7-1.6-1.8-2.4-4.3-2.4-7.6.0-3.3.8-5.8 2.4-7.8 1.8-1.9 4.3-2.9 6.9-2.7 1 0 1.9.1 2.9.3.8.1 1.5.4 2.3.7l-.9 2.6c-.7-.3-1.4-.5-2.2-.7-.7-.2-1.4-.3-2.1-.3-4.1.0-6.1 2.6-6.1 7.8-.1 2 .4 4 1.5 5.7 1 1.4 2.7 2.1 4.4 2 1.8.0 3.5-.4 5.1-1.1v2.7C1364.5 1728 1362.7 1728.4 1361 1728.3z"/><path class="st2" d="M1379.3 1728.3c-2.6.1-5.2-.8-7-2.7-1.7-1.8-2.6-4.3-2.6-7.5-.1-2.8.7-5.5 2.4-7.7 1.6-1.9 3.9-2.9 6.4-2.8 2.3-.1 4.5.8 6 2.5 1.5 1.8 2.3 4.2 2.2 6.5v1.9h-13.8c-.1 1.9.5 3.8 1.8 5.3 1.3 1.3 3 1.9 4.8 1.8 2.2.0 4.4-.5 6.4-1.3v2.7c-1 .4-2 .8-3 1C1381.7 1728.2 1380.5 1728.3 1379.3 1728.3zM1378.5 1710.1c-1.5-.1-2.9.5-3.8 1.6-1 1.2-1.6 2.7-1.7 4.3h10.5c.1-1.6-.4-3.1-1.3-4.4C1381.2 1710.6 1379.8 1710 1378.5 1710.1v0z"/><path class="st2" d="M1406.7 1728h-3.1v-17.4h-6c-.2 3.5-.7 6.9-1.4 10.3-.4 2-1.1 3.9-2.3 5.6-.8 1.1-2.2 1.8-3.6 1.8-.5.0-1.1-.1-1.6-.2v-2.2c.3.1.6.1.9.1 1.4.0 2.5-1.5 3.3-4.4 1-4.4 1.7-8.9 1.9-13.5h11.7V1728z"/><path class="st2" d="M1425.4 1728l-.6-2.8h-.1c-.8 1.1-1.8 1.9-3 2.5-1.2.5-2.4.7-3.7.7-1.7.1-3.4-.4-4.7-1.5-1.2-1.1-1.8-2.7-1.7-4.4.0-4 3.2-6.2 9.7-6.3l3.4-.1v-1.2c.1-1.2-.3-2.5-1-3.5-.9-.8-2-1.2-3.2-1.1-2 .1-3.9.6-5.7 1.5l-.9-2.3c1-.5 2.1-1 3.2-1.3 1.2-.3 2.3-.4 3.5-.4 2.4.0 4.2.5 5.3 1.6s1.7 2.8 1.7 5.1v13.7H1425.4zM1418.6 1725.9c1.6.1 3.2-.5 4.4-1.6 1.1-1.2 1.7-2.7 1.6-4.3v-1.8l-3 .1c-1.8-.1-3.6.3-5.2 1.1-1.1.7-1.7 1.9-1.6 3.1-.1.9.3 1.9 1 2.5C1416.6 1725.6 1417.6 1725.9 1418.6 1725.9v0z"/><path class="st2" d="M1434.9 1728h-3.5l5.8-8.5c-1.4-.2-2.6-1-3.6-2-.8-1-1.3-2.4-1.2-3.7-.1-1.6.6-3.2 1.8-4.3 1.5-1.1 3.3-1.7 5.2-1.6h8.9v20h-3v-8h-5.1L1434.9 1728zM1435.3 1713.9c0 2.3 1.7 3.5 5 3.5h4.9v-6.8h-5.5C1436.8 1710.6 1435.3 1711.7 1435.3 1713.9v0z"/><path class="st2" d="M1480.3 1707.5c.1 1.6-.5 3.1-1.7 4.3-1.3 1.2-2.9 1.9-4.6 2.1v.2c1.9.1 3.6.9 5.1 2.1 1.2 1.1 1.8 2.7 1.7 4.3.1 2.3-.9 4.5-2.8 5.8-1.9 1.4-4.5 2.1-7.9 2.1-2.6.1-5.2-.4-7.6-1.4v-2.9c1.2.6 2.5 1 3.8 1.3 1.3.3 2.6.4 3.9.5 1.9.1 3.8-.4 5.5-1.4 1.3-.9 2-2.4 1.8-4 .1-1.5-.7-2.9-2-3.7-1.9-1-4-1.4-6.1-1.3h-4v-2.6h3.8c2 .1 4-.4 5.8-1.3 1.3-.8 2.1-2.2 2-3.8.0-1.2-.5-2.4-1.5-3.1-1.2-.8-2.6-1.3-4-1.2-1.2.0-2.4.1-3.6.5-1.3.4-2.6 1-3.8 1.8l-1.5-2.1c1.3-.9 2.7-1.6 4.1-2.1 1.5-.5 3.1-.7 4.8-.7 2.3-.1 4.6.5 6.4 1.8C1479.5 1703.8 1480.4 1705.6 1480.3 1707.5z"/><path class="st2" d="M1498.4 1728l-.6-2.8h-.2c-.8 1.1-1.8 1.9-3 2.5-1.2.5-2.4.7-3.7.7-1.7.1-3.4-.4-4.7-1.5-1.2-1.1-1.8-2.7-1.7-4.4.0-4 3.2-6.2 9.7-6.3l3.4-.1v-1.2c.1-1.2-.3-2.5-1-3.5-.9-.8-2-1.2-3.2-1.1-2 .1-3.9.6-5.7 1.5l-.9-2.3c1-.5 2.1-1 3.3-1.3 1.2-.3 2.3-.4 3.5-.4 2.4.0 4.2.5 5.3 1.6s1.7 2.8 1.7 5.1v13.7H1498.4zM1491.6 1725.9c1.6.1 3.2-.5 4.4-1.6 1.1-1.2 1.7-2.7 1.6-4.3v-1.8l-3 .1c-1.8-.1-3.6.3-5.2 1.1-1.1.7-1.7 1.9-1.6 3.1-.1.9.3 1.9 1 2.5C1489.6 1725.6 1490.6 1725.9 1491.6 1725.9v0z"/><path class="st2" d="M1520.4 1710.5h-6.5v17.5h-3v-17.4h-6.4v-2.6h16L1520.4 1710.5z"/><path class="st2" d="M1532.8 1728.3c-2.6.1-5.2-.8-7-2.7-1.8-2.1-2.7-4.8-2.6-7.5-.1-2.8.7-5.5 2.4-7.7 1.6-1.9 3.9-2.9 6.4-2.8 2.3-.1 4.5.8 6 2.5 1.5 1.8 2.3 4.2 2.2 6.5v1.9h-13.8c-.1 1.9.6 3.8 1.8 5.3 1.2 1.3 3 1.9 4.8 1.8 2.2.0 4.4-.5 6.4-1.3v2.7c-1 .4-2 .8-3 1C1535.2 1728.2 1534 1728.3 1532.8 1728.3zM1532 1710.1c-1.4-.1-2.9.5-3.8 1.6-1 1.2-1.6 2.7-1.7 4.3h10.5c.1-1.6-.4-3.1-1.3-4.4C1534.8 1710.6 1533.4 1710 1532 1710.1v0z"/><path class="st2" d="M1546.4 1728h-3.5l5.8-8.5c-1.4-.2-2.6-1-3.6-2-.8-1-1.3-2.4-1.2-3.7-.1-1.6.6-3.2 1.8-4.3 1.5-1.1 3.3-1.7 5.2-1.6h8.9v20h-3v-8h-5.1L1546.4 1728zM1546.8 1713.9c0 2.3 1.7 3.5 5 3.5h4.9v-6.8h-5.5C1548.2 1710.6 1546.8 1711.7 1546.8 1713.9v0z"/><path class="st2" d="M1291.7 1558.5h-3.7l-9.7-13-2.8 2.5v10.5h-3.1v-26.7h3.1v13.3l12.1-13.2h3.7l-10.7 11.6L1291.7 1558.5z"/><path class="st2" d="M1295.4 1558.5v-26.7h3.1v26.7H1295.4z"/><path class="st2" d="M1327.1 1544.8c0 4.4-1.2 7.8-3.6 10.1s-5.8 3.5-10.3 3.5h-7.4v-26.7h8.2c4.2.0 7.4 1.2 9.7 3.4S1327.1 1540.7 1327.1 1544.8zM1323.8 1545c0-3.5-.9-6.1-2.6-7.9-1.7-1.8-4.3-2.6-7.8-2.6h-4.5v21.3h3.8c3.7.0 6.5-.9 8.3-2.7C1322.9 1551.2 1323.8 1548.5 1323.8 1545v0z"/><path class="st2" d="M1348.1 1551.3c.1 2.1-.9 4.2-2.6 5.5-2 1.4-4.5 2.1-6.9 2-2.5.1-5-.3-7.3-1.2v-3c1.2.5 2.4.9 3.6 1.1 1.3.3 2.5.4 3.8.4 1.6.1 3.3-.3 4.7-1.2 1-.8 1.6-2 1.6-3.3.0-.8-.2-1.6-.6-2.3-.5-.7-1.1-1.2-1.9-1.6-1.3-.7-2.6-1.2-4-1.7-2-.6-3.8-1.7-5.3-3.2-1.1-1.3-1.7-3-1.6-4.8-.1-1.9.8-3.8 2.3-4.9 1.8-1.3 3.9-1.9 6.1-1.8 2.5.0 5 .5 7.3 1.5l-1 2.7c-2-.9-4.2-1.4-6.4-1.4-1.4-.1-2.7.3-3.9 1.1-.9.7-1.4 1.8-1.4 2.9.0.8.1 1.6.5 2.3.4.7 1 1.2 1.7 1.6 1.2.7 2.4 1.2 3.7 1.6 2.8 1 4.7 2.1 5.8 3.2C1347.6 1548.1 1348.2 1549.7 1348.1 1551.3z"/><path class="st2" d="M1366.4 1547.3v11.1h-3.1v-26.7h7.3c3.3.0 5.7.6 7.3 1.9 1.6 1.4 2.5 3.5 2.3 5.7.0 3.5-1.8 5.9-5.4 7.2l7.3 12h-3.7l-6.5-11.1L1366.4 1547.3zM1366.4 1544.7h4.3c1.7.1 3.4-.3 4.8-1.3 1.1-1 1.6-2.4 1.5-3.9.1-1.5-.4-2.9-1.6-3.8-1-.8-2.7-1.2-5-1.2h-4V1544.7z"/><path class="st2" d="M1394.4 1558.8c-2.6.1-5.2-.8-7-2.7-1.7-1.8-2.6-4.3-2.6-7.5-.1-2.8.7-5.5 2.4-7.7 1.6-1.9 3.9-2.9 6.4-2.8 2.3-.1 4.4.8 5.9 2.5 1.5 1.8 2.3 4.2 2.2 6.5v1.9H1388c-.1 1.9.5 3.8 1.8 5.3 1.2 1.3 3 1.9 4.8 1.8 2.2.0 4.4-.5 6.4-1.3v2.7c-1 .4-2 .8-3 1C1396.8 1558.7 1395.6 1558.8 1394.4 1558.8zM1393.6 1540.6c-1.4-.1-2.9.5-3.8 1.6-1 1.2-1.6 2.7-1.7 4.3h10.5c.1-1.6-.3-3.1-1.3-4.4C1396.3 1541.1 1395 1540.5 1393.6 1540.6v0z"/><path class="st2" d="M1416.3 1558.8c-1.2.0-2.4-.2-3.6-.7-1.1-.5-2-1.3-2.7-2.2h-.2c.1 1.1.2 2.2.2 3.3v8.2h-3v-29h2.5l.4 2.7h.2c.7-1 1.6-1.8 2.7-2.4 1.1-.5 2.3-.8 3.6-.7 2.4-.1 4.6.9 6.1 2.7 1.4 1.8 2.2 4.4 2.2 7.6s-.7 5.8-2.2 7.7C1420.9 1557.9 1418.6 1558.9 1416.3 1558.8zM1415.8 1540.6c-1.7-.2-3.3.5-4.4 1.7-.9 1.1-1.4 2.9-1.4 5.4v.7c0 2.8.5 4.8 1.4 6 1.1 1.3 2.8 2 4.5 1.8 1.6.1 3.2-.7 4.1-2.1 1.1-1.7 1.6-3.8 1.5-5.8.1-2-.4-4-1.5-5.7C1419 1541.3 1417.4 1540.6 1415.8 1540.6v0z"/><path class="st2" d="M1432.7 1538.4v13c-.1 1.3.3 2.6 1.1 3.7.9.9 2.2 1.3 3.5 1.2 1.7.2 3.4-.5 4.6-1.7 1-1.1 1.5-3 1.5-5.6v-10.5h3v20h-2.5l-.4-2.7h-.2c-.6 1-1.5 1.8-2.6 2.3-1.2.5-2.5.8-3.8.8-2.4.0-4.3-.6-5.5-1.7-1.2-1.2-1.8-3-1.8-5.6v-13.1L1432.7 1538.4z"/><path class="st2" d="M1462.1 1538.1c2.4-.1 4.6.9 6.1 2.7 1.5 1.8 2.2 4.3 2.2 7.6s-.7 5.8-2.2 7.7c-1.5 1.8-3.7 2.8-6.1 2.7-1.2.0-2.4-.2-3.6-.7-1.1-.5-2-1.3-2.7-2.2h-.2l-.6 2.6h-2.2V1530h3v7c0 1.5.0 2.9-.1 4.2h.1C1457.2 1539.1 1459.6 1538 1462.1 1538.1zM1461.7 1540.7c-1.7-.2-3.4.5-4.5 1.8-.9 1.2-1.4 3.2-1.4 6 0 2.8.5 4.8 1.4 6 1.1 1.3 2.8 2 4.5 1.8 1.6.1 3.2-.6 4.2-2 1-1.8 1.5-3.8 1.4-5.9.0-2.6-.4-4.5-1.4-5.8C1464.9 1541.2 1463.3 1540.5 1461.7 1540.7v0z"/><path class="st2" d="M1478.8 1558.5h-3V1530h3v28.5z"/><path class="st2" d="M1484.9 1533c0-.6.1-1.1.5-1.5.7-.7 1.8-.7 2.5.0.4.4.6 1 .5 1.5.0.6-.1 1.1-.5 1.5-.7.7-1.8.7-2.5.0C1485.1 1534.1 1484.9 1533.6 1484.9 1533zM1488.2 1558.4h-3v-20h3v20z"/><path class="st2" d="M1502.6 1558.8c-2.5.2-5-.8-6.7-2.7-1.6-1.8-2.4-4.3-2.4-7.6.0-3.3.8-5.8 2.4-7.8 1.8-1.9 4.3-2.9 6.9-2.7 1 0 1.9.1 2.9.3.8.1 1.5.4 2.3.7l-.9 2.6c-.7-.3-1.4-.5-2.2-.7-.7-.2-1.4-.3-2.1-.3-4.1.0-6.1 2.6-6.1 7.8-.1 2 .4 4 1.5 5.7 1 1.4 2.7 2.1 4.4 2 1.8.0 3.5-.4 5.1-1.1v2.7C1506.1 1558.5 1504.4 1558.9 1502.6 1558.8z"/><path class="st2" d="M1333.4 1369.5h-3.8l-12.3-13.5v13.5h-3.1v-26.7h3.1v12.9l12-12.9h3.6l-11.8 13L1333.4 1369.5z"/><path class="st2" d="M1353.9 1359.4c0 3.3-.8 5.8-2.5 7.6-1.8 1.9-4.2 2.9-6.8 2.8-1.7.0-3.3-.4-4.8-1.3-1.4-.9-2.5-2.1-3.2-3.6-.8-1.7-1.2-3.6-1.1-5.5.0-3.3.8-5.8 2.4-7.6 1.7-1.9 4.2-2.9 6.8-2.7 2.5-.1 5 .9 6.7 2.8C1353.2 1354 1354.1 1356.7 1353.9 1359.4zM1338.7 1359.4c-.1 2.1.4 4.1 1.5 5.8 2.2 2.5 6.1 2.7 8.6.4.1-.1.3-.3.4-.4 1.1-1.7 1.7-3.8 1.6-5.8.1-2.1-.4-4.1-1.6-5.8-1.1-1.4-2.8-2.1-4.6-2-1.7-.1-3.4.6-4.5 2C1339 1355.3 1338.5 1357.4 1338.7 1359.4z"/><path class="st2" d="M1372.7 1352h-6.5v17.4h-3V1352h-6.4v-2.6h16L1372.7 1352z"/><path class="st2" d="M1394 1359.4c0 3.3-.8 5.8-2.5 7.6-1.8 1.9-4.2 2.9-6.8 2.8-1.7.0-3.3-.4-4.8-1.3-1.4-.9-2.5-2.1-3.2-3.6-.8-1.7-1.2-3.6-1.1-5.5.0-3.3.8-5.8 2.4-7.6 1.7-1.9 4.2-2.9 6.8-2.7 2.5-.1 5 .9 6.7 2.8C1393.3 1354 1394.1 1356.7 1394 1359.4zM1378.8 1359.4c-.1 2.1.4 4.1 1.5 5.8 2.2 2.5 6.1 2.7 8.6.4.1-.1.3-.3.4-.4 1.1-1.7 1.7-3.8 1.6-5.8.1-2.1-.4-4.1-1.6-5.8-1.1-1.4-2.8-2.1-4.6-2-1.7-.1-3.4.6-4.5 2C1379.1 1355.3 1378.6 1357.4 1378.8 1359.4v0z"/><path class="st2" d="M1420.7 1359.4c.1 2.7-.8 5.3-2.6 7.2-1.9 1.9-4.5 3-7.2 3.1v8.7h-3v-8.7c-2.7-.1-5.3-1.2-7.2-3.1-1.8-2-2.7-4.6-2.6-7.2-.1-2.7.8-5.3 2.6-7.2 2-1.9 4.6-2.9 7.3-3v-8.2h2.9v8.1c2.7.1 5.3 1.3 7.2 3.2C1419.9 1354.2 1420.8 1356.8 1420.7 1359.4zM1401.3 1359.4c-.1 2 .4 3.9 1.6 5.5 1.3 1.4 3.2 2.3 5.1 2.3v-15.6c-1.9.1-3.7.8-5 2.2C1401.8 1355.5 1401.2 1357.4 1401.3 1359.4v0zM1417.6 1359.4c0-4.7-2.2-7.2-6.7-7.7v15.5c1.9-.1 3.8-.9 5.1-2.3C1417.1 1363.3 1417.7 1361.4 1417.6 1359.4v0z"/><path class="st2" d="M1434.4 1369.8c-2.6.1-5.2-.8-7-2.7-1.7-1.8-2.6-4.3-2.6-7.5-.1-2.8.7-5.5 2.4-7.7 1.6-1.9 3.9-2.9 6.4-2.8 2.3-.1 4.4.8 5.9 2.5 1.5 1.8 2.3 4.2 2.2 6.5v1.9H1428c-.1 1.9.5 3.8 1.8 5.3 1.2 1.3 3 1.9 4.8 1.8 2.2.0 4.4-.5 6.4-1.3v2.7c-1 .4-2 .8-3 1C1436.8 1369.7 1435.6 1369.8 1434.4 1369.8zM1433.6 1351.6c-1.4-.1-2.8.5-3.8 1.6-1 1.2-1.6 2.7-1.7 4.3h10.5c.1-1.6-.3-3.1-1.3-4.4C1436.4 1352.1 1435 1351.5 1433.6 1351.6z"/><path class="st2" d="M1449.8 1349.4v12.7l-.1 3.3v1l10.8-17.1h3.8v20h-2.8v-12.2l.1-2.4.1-2.4-10.8 17h-3.8v-20L1449.8 1349.4zM1455.5 1346.8c-2.2.0-3.9-.4-4.9-1.3-1.1-1.1-1.8-2.7-1.7-4.3h2.8c0 1 .4 1.9 1 2.7.8.6 1.9.9 2.9.8 1 .1 2-.2 2.8-.8.7-.7 1.1-1.6 1.1-2.6h2.9c0 1.6-.7 3.1-1.8 4.3C1459.1 1346.5 1457.3 1346.9 1455.5 1346.8v0z"/><path class="st2" d="M1348.1 1160.8c0 4.4-1.2 7.8-3.6 10.1s-5.8 3.5-10.3 3.5h-7.4v-26.7h8.2c4.2.0 7.4 1.2 9.7 3.4S1348.1 1156.7 1348.1 1160.8zM1344.8 1161c0-3.5-.9-6.1-2.6-7.9-1.8-1.8-4.3-2.6-7.8-2.6h-4.5v21.3h3.8c3.7.0 6.5-.9 8.3-2.7S1344.8 1164.5 1344.8 1161v0z"/><path class="st2" d="M1365.9 1174.5l-.6-2.8h-.2c-.8 1.1-1.8 1.9-3 2.5-1.2.5-2.4.7-3.7.7-1.7.1-3.4-.4-4.7-1.5-1.2-1.1-1.8-2.7-1.7-4.4.0-4 3.2-6.2 9.7-6.3l3.4-.1v-1.2c.1-1.2-.2-2.5-1-3.5-.9-.8-2-1.2-3.2-1.1-2 .1-3.9.6-5.7 1.5l-.9-2.3c1-.5 2.1-1 3.2-1.3 1.2-.3 2.3-.4 3.5-.4 2.4.0 4.2.5 5.3 1.6s1.7 2.8 1.7 5.1v13.7L1365.9 1174.5zM1359.1 1172.3c1.6.1 3.2-.5 4.4-1.6 1.1-1.2 1.7-2.7 1.6-4.3v-1.8l-3 .1c-1.8-.1-3.6.3-5.2 1.1-1.1.7-1.7 1.9-1.6 3.1-.1.9.3 1.9 1 2.5C1357.1 1172.1 1358.1 1172.4 1359.1 1172.3v0z"/><path class="st2" d="M1388.1 1174.5v-13c.1-1.3-.3-2.6-1.1-3.7-.9-.9-2.2-1.3-3.5-1.2-1.7-.1-3.4.5-4.6 1.7-1 1.1-1.5 3-1.5 5.6v10.5h-3v-20h2.5l.5 2.7h.1c.6-1 1.5-1.8 2.6-2.3 1.2-.6 2.5-.8 3.8-.8 2-.1 3.9.5 5.4 1.7 1.2 1.2 1.8 3 1.8 5.6v13.1L1388.1 1174.5z"/><path class="st2" d="M1397.1 1149c0-.6.1-1.1.5-1.5.3-.3.8-.5 1.3-.5.5.0.9.2 1.3.5.4.4.6 1 .5 1.5.0.6-.1 1.1-.5 1.5-.3.3-.8.5-1.3.5-.5.0-.9-.2-1.3-.5C1397.3 1150.1 1397.1 1149.6 1397.1 1149zM1400.4 1174.4h-3v-20h3v20z"/><path class="st2" d="M1415.3 1174.8c-2.6.1-5.2-.8-7-2.7-1.8-2.1-2.7-4.8-2.6-7.5-.1-2.8.7-5.5 2.4-7.7 1.6-1.9 3.9-2.9 6.4-2.8 2.3-.1 4.5.8 6 2.5 1.5 1.8 2.3 4.2 2.2 6.5v1.9h-13.8c-.1 1.9.5 3.8 1.8 5.3 1.2 1.3 3 1.9 4.8 1.8 2.2.0 4.4-.5 6.4-1.3v2.7c-1 .4-2 .8-3 1C1417.7 1174.7 1416.5 1174.8 1415.3 1174.8zM1414.5 1156.6c-1.4-.1-2.9.5-3.8 1.6-1 1.2-1.6 2.7-1.7 4.3h10.5c.1-1.6-.4-3.1-1.3-4.4C1417.2 1157.1 1415.8 1156.5 1414.5 1156.6v0z"/><path class="st2" d="M1430.8 1174.5h-3V1146h3v28.5z"/><path class="st2" d="M1449.6 1174.5l-.6-2.8h-.2c-.8 1.1-1.8 1.9-3 2.5-1.2.5-2.4.7-3.7.7-1.7.1-3.4-.4-4.7-1.5-1.2-1.1-1.8-2.7-1.7-4.4.0-4 3.2-6.2 9.7-6.3l3.4-.1v-1.2c.1-1.2-.3-2.5-1-3.5-.9-.8-2-1.2-3.2-1.1-2 .1-3.9.6-5.7 1.5l-.9-2.3c1-.5 2.1-1 3.2-1.3 1.2-.3 2.3-.4 3.5-.4 2.4.0 4.2.5 5.3 1.6s1.7 2.8 1.7 5.1v13.7L1449.6 1174.5zM1442.7 1172.3c1.6.1 3.2-.5 4.4-1.6 1.1-1.2 1.7-2.7 1.6-4.3v-1.8l-3 .1c-1.8-.1-3.6.3-5.2 1.1-1.1.7-1.7 1.9-1.6 3.1-.1.9.3 1.9 1 2.5C1440.8 1172.1 1441.7 1172.4 1442.7 1172.3z"/><path class="st2" d="M1366.8 975.5h-3.1v-12.6h-14v12.6h-3.1v-26.7h3.1v11.4h14v-11.4h3.1V975.5z"/><path class="st2" d="M1390.9 975.5l-3.3-8.5h-10.7l-3.3 8.5h-3.1l10.6-26.8h2.6l10.5 26.8H1390.9zM1386.6 964.2l-3.1-8.3c-.4-1-.8-2.3-1.2-3.8-.3 1.3-.7 2.6-1.2 3.8l-3.1 8.3H1386.6z"/><path class="st2" d="M1412.8 968.3c.1 2.1-.9 4.2-2.6 5.5-2 1.4-4.5 2.1-6.9 2-2.5.1-5-.3-7.3-1.2v-3c2.3 1 4.9 1.5 7.4 1.5 1.6.1 3.3-.3 4.7-1.2 1-.8 1.6-2 1.6-3.3.0-.8-.2-1.6-.6-2.3-.5-.7-1.1-1.2-1.9-1.6-1.3-.7-2.6-1.2-4-1.7-2-.6-3.8-1.7-5.3-3.2-1.1-1.3-1.7-3-1.6-4.8-.1-1.9.8-3.8 2.3-4.9 1.8-1.3 3.9-1.9 6.1-1.8 2.5.0 5 .5 7.3 1.5l-1 2.7c-2-.9-4.2-1.4-6.4-1.4-1.4-.1-2.7.3-3.9 1.1-.9.7-1.4 1.8-1.4 2.9.0.8.1 1.6.5 2.3.4.7 1 1.2 1.7 1.6 1.2.7 2.4 1.2 3.7 1.6 2.8 1 4.7 2.1 5.8 3.2C1412.3 965.1 1412.9 966.7 1412.8 968.3z"/><path class="st2" d="M1433.4 968.3c.1 2.1-.9 4.2-2.6 5.5-2 1.4-4.5 2.1-6.9 2-2.5.1-5-.3-7.3-1.2v-3c1.2.5 2.4.9 3.6 1.1 1.3.3 2.5.4 3.8.4 1.6.1 3.3-.3 4.7-1.2 1-.8 1.6-2 1.6-3.3.0-.8-.2-1.6-.6-2.3-.5-.7-1.1-1.2-1.9-1.6-1.3-.7-2.6-1.2-4-1.7-2-.6-3.8-1.7-5.3-3.2-1.1-1.3-1.7-3-1.6-4.8-.1-1.9.8-3.8 2.3-4.9 1.8-1.3 3.9-1.9 6.1-1.8 2.5.0 5 .5 7.3 1.5l-1 2.7c-2-.9-4.2-1.4-6.4-1.4-1.4-.1-2.7.3-3.8 1.1-.9.7-1.4 1.8-1.4 2.9.0.8.1 1.6.5 2.3.4.7 1 1.2 1.7 1.6 1.2.7 2.4 1.2 3.7 1.6 2.8 1 4.7 2.1 5.8 3.2C1432.8 965.1 1433.4 966.7 1433.4 968.3z"/><path class="st2" d="M2035.1 967.7c0 2.7-.8 4.6-2.4 5.9-1.6 1.3-4 1.9-7.1 1.9h-7.8v-26.7h15.7v2.8h-12.6v8.6h4.1c1.9-.1 3.9.2 5.7.8 1.3.4 2.5 1.3 3.3 2.4C2034.8 964.7 2035.2 966.2 2035.1 967.7zM2020.9 972.8h4.4c2.3.0 4-.4 5-1.2 1.1-1 1.7-2.4 1.6-3.9.1-1.4-.5-2.8-1.6-3.7-1.1-.7-2.9-1.1-5.6-1.1h-3.8L2020.9 972.8z"/><path class="st2" d="M2037.1 955.4h3.3l4.4 11.4c.7 1.8 1.3 3.7 1.8 5.6h.2c.2-.6.5-1.7 1-3.2.5-1.5 2.2-6.1 5-13.9h3.3l-8.6 22.8c-.6 1.8-1.6 3.5-3 4.8-1.2 1-2.7 1.5-4.2 1.4-.9.0-1.8-.1-2.7-.3v-2.4c.7.2 1.5.2 2.2.2 2.1.0 3.6-1.2 4.5-3.5l1.1-2.8L2037.1 955.4z"/><path class="st2" d="M2076.5 982.4h-2.9v-6.9h-14v6.9h-2.9v-9.5h1.6c1.7-2.4 3-5 3.8-7.8.9-3.1 1.4-6.4 1.4-9.6h10.1v17.4h2.9v9.5zM2070.7 972.8v-15h-4.5c-.2 2.8-.7 5.5-1.6 8.2-.7 2.4-1.8 4.7-3.3 6.8H2070.7z"/><path class="st2" d="M2077.3 955.4h3.3l4.4 11.4c.7 1.8 1.3 3.7 1.8 5.6h.1c.1-.6.5-1.7 1-3.2s2.2-6.1 5-13.9h3.3l-8.6 22.8c-.6 1.8-1.6 3.5-3 4.8-1.2 1-2.7 1.5-4.2 1.4-.9.0-1.8-.1-2.7-.3v-2.4c.7.2 1.5.2 2.3.2 2.1.0 3.6-1.2 4.4-3.5l1.1-2.8L2077.3 955.4z"/><path class="st2" d="M2119.4 972.5l.6-1.7.8-2.2 5.4-13.2h3.9v20h-2.7v-16.6l-.4 1.1-1.1 2.8-5.2 12.7h-2.5l-5.2-12.7c-.5-1.2-1-2.5-1.3-3.8v16.5h-2.7v-20h3.7l5.2 12.7C2118.5 969.5 2119 971 2119.4 972.5z"/><path class="st2" d="M2148.8 975.5l-.6-2.8h-.1c-.8 1.1-1.8 1.9-3 2.5-1.2.5-2.4.7-3.7.7-1.7.1-3.4-.4-4.7-1.5-1.2-1.1-1.8-2.7-1.7-4.4.0-4 3.2-6.2 9.7-6.3l3.4-.1v-1.2c.1-1.2-.2-2.5-1-3.5-.9-.8-2-1.2-3.2-1.1-2 .1-3.9.6-5.7 1.5l-.9-2.3c1-.5 2.1-1 3.2-1.3 1.2-.3 2.3-.4 3.5-.5 2.4.0 4.2.5 5.3 1.6s1.7 2.8 1.7 5.1v13.7H2148.8zM2142 973.3c1.6.1 3.2-.5 4.4-1.5 1.1-1.2 1.7-2.7 1.6-4.3v-1.8l-3 .1c-1.8-.1-3.6.3-5.2 1.1-1.1.7-1.7 1.9-1.6 3.1-.1.9.3 1.9 1 2.5C2140 973.1 2141 973.4 2142 973.3v0z"/><path class="st2" d="M2167.7 972.5l.6-1.7.8-2.2 5.4-13.2h3.9v20h-2.7v-16.6l-.4 1.1-1.1 2.8-5.2 12.7h-2.5l-5.2-12.7c-.5-1.2-1-2.5-1.3-3.8v16.5h-2.7v-20h3.7l5.2 12.7C2166.8 969.6 2167.3 971 2167.7 972.5z"/><path class="st2" d="M2202.1 965.4c0 3.3-.8 5.8-2.5 7.6-1.8 1.9-4.2 2.9-6.8 2.8-1.7.0-3.3-.4-4.8-1.3-1.4-.9-2.5-2.1-3.2-3.6-.8-1.7-1.2-3.6-1.1-5.5.0-3.3.8-5.8 2.4-7.6 1.7-1.9 4.2-2.9 6.8-2.7 2.5-.1 5 .9 6.7 2.8C2201.3 960 2202.2 962.7 2202.1 965.4zM2186.8 965.4c-.1 2.1.4 4.1 1.5 5.8 2.2 2.5 6.1 2.7 8.6.4.1-.1.3-.3.4-.4 1.1-1.7 1.7-3.8 1.6-5.8.1-2.1-.4-4.1-1.6-5.8-1.1-1.4-2.8-2.1-4.6-2-1.7-.1-3.4.6-4.5 2C2187.2 961.3 2186.7 963.4 2186.8 965.4z"/><path class="st2" d="M2210.2 955.4v12.7l-.1 3.3v1l10.8-17.1h3.8v20h-2.8v-12.2l.1-2.4.1-2.4-10.8 17h-3.8v-20H2210.2zM2215.9 952.8c-2.3.0-3.9-.4-4.9-1.3-1.2-1.1-1.8-2.7-1.7-4.3h2.9c0 1 .3 1.9 1 2.7.8.6 1.9.9 2.9.8 1 .1 2-.2 2.8-.8.7-.7 1.1-1.6 1.1-2.6h2.9c0 1.6-.7 3.1-1.8 4.3C2219.5 952.4 2217.8 952.9 2215.9 952.8v0z"/><path class="st2" d="M2061 1147.8h7.5c3.5.0 6.1.5 7.7 1.6 1.6 1.1 2.5 3 2.4 5 .1 1.4-.4 2.8-1.3 3.9-1 1.1-2.4 1.8-3.9 2v.2c4.1.7 6.1 2.8 6.1 6.4.1 2.1-.8 4.2-2.4 5.6-2 1.4-4.3 2.2-6.8 2h-9.3V1147.8zM2064.1 1159.2h5.1c1.6.1 3.3-.2 4.7-1 1-.8 1.6-2.2 1.4-3.5.1-1.3-.5-2.5-1.6-3.2-1.6-.8-3.3-1.1-5.1-1h-4.6L2064.1 1159.2zM2064.1 1161.8v10h5.6c1.7.1 3.4-.3 4.9-1.3 1.1-1 1.8-2.4 1.6-3.9.1-1.4-.5-2.8-1.7-3.7-1.5-.9-3.3-1.3-5.1-1.2L2064.1 1161.8z"/><path class="st2" d="M2084.5 1149c0-.6.1-1.1.5-1.5.3-.3.8-.5 1.3-.5.5.0.9.2 1.3.5.4.4.6 1 .5 1.5.0.6-.1 1.1-.5 1.5-.3.3-.8.5-1.3.5-.5.0-.9-.2-1.3-.5C2084.7 1150.1 2084.5 1149.6 2084.5 1149zM2087.8 1174.4h-3v-20h3v20z"/><path class="st2" d="M2107 1174.5h-14.5v-2.1l10.9-15.6h-10.2v-2.4h13.6v2.4l-10.8 15.3h11V1174.5z"/><path class="st2" d="M2124.5 1174.5H2110v-2.1l10.9-15.6h-10.3v-2.4h13.6v2.4l-10.8 15.3h11L2124.5 1174.5z"/><path class="st2" d="M2141.5 1174.5l-.6-2.8h-.1c-.8 1.1-1.8 1.9-3 2.5-1.2.5-2.4.7-3.7.7-1.7.1-3.4-.4-4.7-1.5-1.2-1.1-1.8-2.7-1.7-4.4.0-4 3.2-6.2 9.7-6.3l3.4-.1v-1.2c.1-1.2-.3-2.5-1-3.5-.9-.8-2-1.2-3.2-1.1-2 .1-3.9.6-5.7 1.5l-.9-2.3c1-.5 2.1-1 3.2-1.3 1.2-.3 2.3-.4 3.5-.4 2.4.0 4.1.5 5.3 1.6s1.7 2.8 1.7 5.1v13.7L2141.5 1174.5zM2134.7 1172.3c1.6.1 3.2-.5 4.4-1.6 1.1-1.2 1.7-2.7 1.6-4.3v-1.8l-3 .1c-1.8-.1-3.6.3-5.2 1.1-1.1.7-1.7 1.9-1.6 3.1-.1.9.3 1.9 1 2.5C2132.7 1172.1 2133.7 1172.4 2134.7 1172.3z"/><path class="st2" d="M2159.1 1154.1c.8.0 1.6.1 2.4.2l-.4 2.8c-.7-.2-1.5-.3-2.2-.3-1.6.0-3.1.7-4.1 2-1.2 1.4-1.8 3.1-1.7 4.9v10.7h-3v-20h2.5l.4 3.7h.1c.6-1.2 1.6-2.2 2.7-3C2156.7 1154.5 2157.9 1154.1 2159.1 1154.1z"/><path class="st2" d="M2182.6 1164.4c0 3.3-.8 5.8-2.5 7.6-1.8 1.9-4.2 2.9-6.8 2.8-1.7.0-3.3-.4-4.8-1.3-1.4-.9-2.5-2.1-3.2-3.6-.8-1.7-1.2-3.6-1.1-5.5.0-3.3.8-5.8 2.4-7.6 1.7-1.9 4.2-2.9 6.8-2.7 2.5-.1 5 .9 6.7 2.8C2181.8 1159 2182.7 1161.7 2182.6 1164.4zM2167.3 1164.4c-.1 2.1.4 4.1 1.5 5.8 2.3 2.5 6.1 2.7 8.6.4.1-.1.3-.3.4-.4 1.1-1.7 1.7-3.8 1.5-5.8.1-2-.4-4.1-1.5-5.8-1.1-1.4-2.8-2.1-4.6-2-1.7-.1-3.4.6-4.5 2C2167.7 1160.3 2167.2 1162.4 2167.3 1164.4z"/><path class="st2" d="M2011.6 1369.5h-3.1v-23.9H2e3v-2.8h20v2.8h-8.5L2011.6 1369.5z"/><path class="st2" d="M2035.9 1369.5l-.6-2.8h-.2c-.8 1.1-1.8 1.9-3 2.5-1.2.5-2.4.7-3.7.7-1.7.1-3.4-.4-4.7-1.5-1.2-1.1-1.8-2.7-1.7-4.4.0-4 3.2-6.2 9.7-6.3l3.4-.1v-1.2c.1-1.2-.3-2.5-1-3.5-.9-.8-2-1.2-3.2-1.1-2 .1-3.9.6-5.7 1.5l-.9-2.3c1-.5 2.1-1 3.2-1.3 1.2-.3 2.3-.4 3.5-.4 2.4.0 4.2.5 5.3 1.6s1.7 2.8 1.7 5.1v13.7L2035.9 1369.5zM2029.1 1367.3c1.6.1 3.2-.5 4.4-1.6 1.1-1.2 1.7-2.7 1.6-4.3v-1.8l-3 .1c-1.8-.1-3.6.3-5.2 1.1-1.1.7-1.7 1.9-1.6 3.1-.1.9.3 1.9 1 2.5C2027.1 1367.1 2028.1 1367.4 2029.1 1367.3v0z"/><path class="st2" d="M2054.8 1366.5l.6-1.7.8-2.2 5.4-13.2h3.9v20h-2.7V1353l-.4 1.1-1.1 2.8-5.2 12.7h-2.5l-5.2-12.7c-.5-1.2-1-2.5-1.3-3.8v16.5h-2.7v-20h3.7l5.2 12.7C2053.9 1363.5 2054.4 1365 2054.8 1366.5z"/><path class="st2" d="M2070.9 1357.5c0-4.4.6-7.8 1.9-10.3 1.2-2.4 3.5-4.1 6.1-4.6 3.5-.7 6.5-1.3 9.2-1.8l.6 2.7c-4.2.7-7.2 1.3-9.1 1.7-1.7.3-3.1 1.4-4 2.8-1 1.9-1.5 4-1.4 6.1h.2c.8-1 1.8-1.9 2.9-2.4 1.2-.6 2.4-.9 3.8-.9 2.2-.1 4.3.8 5.8 2.4 1.5 1.9 2.2 4.2 2.1 6.6.2 2.7-.7 5.3-2.4 7.3-1.7 1.8-4.2 2.8-6.7 2.6-2.6.1-5.1-1.1-6.6-3.2C2071.6 1364.4 2070.9 1361.4 2070.9 1357.5zM2080.1 1367.3c3.7.0 5.6-2.4 5.6-7.1.0-4.5-1.7-6.8-5.1-6.8-.9.0-1.8.2-2.7.6-.9.4-1.7.9-2.4 1.5-.7.6-1.2 1.3-1.7 2 0 3.2.5 5.6 1.5 7.3C2076.4 1366.4 2078.2 1367.4 2080.1 1367.3v0z"/><path class="st2" d="M2111.5 1359.4c0 3.3-.8 5.8-2.5 7.6-1.8 1.9-4.2 2.9-6.8 2.8-1.7.0-3.3-.4-4.8-1.3-1.4-.9-2.5-2.1-3.2-3.6-.8-1.7-1.2-3.6-1.1-5.5.0-3.3.8-5.8 2.4-7.6 1.7-1.9 4.2-2.9 6.8-2.7 2.5-.1 5 .9 6.7 2.8C2110.7 1354 2111.6 1356.7 2111.5 1359.4zM2096.2 1359.4c-.1 2.1.4 4.1 1.5 5.8 2.3 2.5 6.1 2.7 8.6.4.1-.1.3-.3.4-.4 1.1-1.7 1.7-3.8 1.5-5.8.1-2-.4-4.1-1.5-5.8-1.1-1.4-2.8-2.1-4.6-2-1.7-.1-3.4.6-4.5 2C2096.6 1355.3 2096.1 1357.4 2096.2 1359.4z"/><path class="st2" d="M2133 1354.5c.1 1.1-.3 2.2-1.1 3-.9.7-2 1.2-3.1 1.4v.2c1.4.1 2.7.6 3.7 1.5.8.9 1.2 2 1.2 3.2.1 1.7-.7 3.3-2.1 4.3-1.8 1.1-3.9 1.7-6 1.5h-8.8v-20h8.8C2130.5 1349.5 2133 1351.1 2133 1354.5zM2130 1354.8c.1-.9-.4-1.7-1.1-2.1-1.1-.5-2.2-.7-3.4-.6h-5.7v5.6h5.1c1.4.1 2.7-.1 4-.7C2129.7 1356.5 2130.1 1355.7 2130 1354.8v0zM2130.6 1363.4c.1-1-.4-1.9-1.2-2.4-1.3-.6-2.7-.8-4.1-.7h-5.5v6.6h5.6C2128.9 1366.9 2130.6 1365.8 2130.6 1363.4v0z"/><path class="st2" d="M2140.7 1349.4v7.3c0 2.3 1.3 3.5 4 3.5 1.1.0 2.1-.2 3.2-.5 1.2-.4 2.4-1 3.4-1.7v-8.6h3v20h-3v-9.1c-1.1.8-2.3 1.4-3.6 1.8-1.2.4-2.4.6-3.7.5-1.7.1-3.4-.5-4.7-1.6-1.2-1.1-1.8-2.7-1.7-4.3v-7.5L2140.7 1349.4z"/><path class="st2" d="M2173.1 1369.5l-.6-2.8h-.1c-.8 1.1-1.8 1.9-3 2.5-1.2.5-2.4.7-3.7.7-1.7.1-3.4-.4-4.7-1.5-1.2-1.1-1.8-2.7-1.7-4.4.0-4 3.2-6.2 9.7-6.3l3.4-.1v-1.2c.1-1.2-.3-2.5-1-3.5-.9-.8-2-1.2-3.2-1.1-2 .1-3.9.6-5.7 1.5l-.9-2.3c1-.5 2.1-1 3.3-1.3 1.2-.3 2.3-.4 3.5-.4 2.4.0 4.1.5 5.3 1.6s1.7 2.8 1.7 5.1v13.7L2173.1 1369.5zM2166.2 1367.3c1.6.1 3.2-.5 4.4-1.6 1.1-1.2 1.7-2.7 1.6-4.3v-1.8l-3 .1c-1.8-.1-3.6.3-5.2 1.1-1.1.7-1.7 1.9-1.6 3.1-.1.9.3 1.9 1 2.5C2164.3 1367.1 2165.2 1367.4 2166.2 1367.3z"/><path class="st2" d="M2184.6 1349.4v8.4h11.2v-8.4h3v20h-3v-9h-11.2v9h-3v-20h3z"/><path class="st2" d="M2217 1349.4h3.3l-8.6 9.7 9.4 10.4h-3.5l-9.1-10.1v10.1h-3v-20h3v9.7L2217 1349.4z"/><path class="st2" d="M2237 1369.5l-.6-2.8h-.1c-.8 1.1-1.8 1.9-3 2.5-1.2.5-2.4.7-3.7.7-1.7.1-3.4-.4-4.7-1.5-1.2-1.1-1.8-2.7-1.7-4.4.0-4 3.2-6.2 9.7-6.3l3.4-.1v-1.2c.1-1.2-.2-2.5-1-3.5-.9-.8-2-1.2-3.2-1.1-2 .1-3.9.6-5.7 1.5l-.9-2.3c1-.5 2.1-1 3.2-1.3 1.2-.3 2.3-.4 3.5-.4 2.4.0 4.2.5 5.3 1.6s1.7 2.8 1.7 5.1v13.7L2237 1369.5zM2230.1 1367.3c1.6.1 3.2-.5 4.4-1.6 1.1-1.2 1.7-2.7 1.6-4.3v-1.8l-3 .1c-1.8-.1-3.6.3-5.2 1.1-1.1.7-1.7 1.9-1.6 3.1-.1.9.3 1.9 1 2.5C2228.2 1367.1 2229.2 1367.4 2230.1 1367.3z"/><path class="st2" d="M2098.5 1558.5h-3.1v-23.9h-8.4v-2.8h20v2.8h-8.4L2098.5 1558.5z"/><path class="st2" d="M2109.4 1551.5c0-1.5.4-3 1.3-4.2 1.2-1.5 2.8-2.8 4.6-3.7-.8-.8-1.5-1.7-2.1-2.6-.4-.6-.7-1.2-.9-1.9-.2-.6-.3-1.3-.3-2-.1-1.6.6-3.2 1.8-4.3 1.4-1.1 3.2-1.7 5-1.5 1.7-.1 3.4.4 4.7 1.5 1.2 1.1 1.8 2.6 1.7 4.2.0 1.3-.4 2.6-1.2 3.6-1.1 1.4-2.5 2.5-4.1 3.3l7.4 7.1c.7-.8 1.3-1.7 1.6-2.7.4-1.1.7-2.2 1-3.3h3.1c-.5 2.9-1.8 5.6-3.7 7.9l5.5 5.3h-4.2l-3.4-3.3c-2.5 2.4-5.9 3.7-9.4 3.6-2.2.1-4.4-.6-6.1-1.9C2110 1555.5 2109.2 1553.6 2109.4 1551.5zM2117.7 1556.1c2.7.1 5.3-.9 7.3-2.8l-8-7.7c-1 .6-2 1.2-2.9 2-.5.5-.9 1.1-1.2 1.7-.3.7-.4 1.4-.4 2.1-.1 1.3.5 2.5 1.4 3.4C2115 1555.7 2116.3 1556.2 2117.7 1556.1v0zM2114.9 1537.1c0 .8.2 1.7.6 2.4.6 1 1.4 1.9 2.3 2.7 1.2-.6 2.3-1.5 3.3-2.5.6-.8.9-1.7.9-2.7.0-.9-.3-1.7-.9-2.3-.7-.6-1.6-.9-2.5-.9-1 0-1.9.3-2.6.9C2115.2 1535.3 2114.8 1536.2 2114.9 1537.1v0z"
	/><path class="st2" d="M2153.1 1558.5h-14.9v-26.7h14.9v2.8h-11.8v8.6h11.1v2.7h-11.1v9.8h11.8V1558.5z"/><path class="st2" d="M2066.1 1728l-9.1-23.7h-.1c.2 1.9.3 4.1.3 6.7v17h-2.9v-26.7h4.7l8.4 22h.1l8.5-22h4.6v26.7h-3.1v-17.2c0-2 .1-4.1.3-6.4h-.1l-9.2 23.6H2066.1z"/><path class="st2" d="M2096 1728.3c-2.6.1-5.2-.8-7-2.7-1.8-2.1-2.7-4.8-2.6-7.5-.1-2.8.7-5.5 2.4-7.7 1.6-1.9 3.9-2.9 6.4-2.8 2.3-.1 4.4.8 5.9 2.5 1.5 1.8 2.3 4.2 2.2 6.5v1.9h-13.8c-.1 1.9.6 3.8 1.8 5.3 1.3 1.3 3 1.9 4.8 1.8 2.2.0 4.4-.5 6.4-1.3v2.7c-1 .4-2 .8-3 1C2098.3 1728.2 2097.2 1728.3 2096 1728.3zM2095.2 1710.1c-1.4-.1-2.9.5-3.8 1.6-1 1.2-1.6 2.7-1.7 4.3h10.5c.1-1.6-.4-3.1-1.3-4.4C2097.9 1710.6 2096.6 1710.1 2095.2 1710.1v0z"/><path class="st2" d="M2120.6 1710.5h-9v17.5h-3v-20h12v2.5z"/><path class="st2" d="M2121.4 1707.9h3.3l4.4 11.4c.7 1.8 1.3 3.7 1.8 5.6h.1c.2-.6.5-1.7 1-3.2s2.2-6.1 5-13.9h3.3l-8.6 22.8c-.6 1.8-1.6 3.5-3 4.8-1.2 1-2.7 1.5-4.2 1.4-.9.0-1.8-.1-2.7-.3v-2.4c.7.2 1.5.2 2.2.2 2.1.0 3.6-1.2 4.5-3.5l1.1-2.8L2121.4 1707.9z"/><path class="st2" d="M2153.8 1725l.6-1.7.8-2.2 5.4-13.2h3.9v20h-2.7v-16.5l-.4 1.1-1.1 2.8-5.2 12.7h-2.5l-5.2-12.7c-.5-1.2-1-2.5-1.3-3.8v16.6h-2.7v-20h3.7l5.2 12.7C2152.9 1722 2153.4 1723.5 2153.8 1725z"/><path class="st2" d="M2173.8 1707.9v12.7l-.1 3.3v1l10.8-17.1h3.8v20h-2.8v-12.2l.1-2.4.1-2.4-10.8 17h-3.8v-20L2173.8 1707.9z"/><path class="st2" d="M1302.4 760.7c-2.7-.1-5.2.9-7 2.9-1.7 2-2.6 4.6-2.6 8s.8 6.2 2.5 8.1c1.8 2 4.4 3 7 2.8 2.2.0 4.3-.4 6.4-1v2.7c-2.2.7-4.5 1.1-6.8 1-3.9.0-7-1.2-9.1-3.6s-3.2-5.8-3.2-10.2c-.1-2.5.5-5 1.6-7.2 1-2 2.5-3.7 4.4-4.8 2.1-1.2 4.5-1.7 6.9-1.7 2.5-.1 5 .5 7.3 1.5l-1.3 2.7C1306.5 761.1 1304.5 760.7 1302.4 760.7z"/><path class="st2" d="M1326.4 785l-.6-2.8h-.2c-.8 1.1-1.8 1.9-3 2.5-1.2.5-2.4.7-3.7.7-1.7.1-3.4-.4-4.7-1.5-1.2-1.1-1.8-2.7-1.7-4.4.0-4 3.2-6.2 9.7-6.3l3.4-.1v-1.2c.1-1.2-.2-2.5-1-3.5-.9-.8-2-1.2-3.2-1.1-2 .1-3.9.6-5.7 1.5l-.9-2.3c1-.5 2.1-1 3.2-1.3 1.2-.3 2.3-.4 3.5-.5 2.4.0 4.2.5 5.3 1.6s1.7 2.8 1.7 5.1V785H1326.4zM1319.6 782.9c1.6.1 3.2-.5 4.4-1.5 1.1-1.2 1.7-2.7 1.6-4.3v-1.8l-3 .1c-1.8-.1-3.6.3-5.2 1.1-1.1.7-1.7 1.9-1.6 3.1-.1.9.3 1.9 1 2.5C1317.6 782.6 1318.6 782.9 1319.6 782.9v0z"/><path class="st2" d="M1360.4 785v-13c.1-1.3-.2-2.6-1-3.6-.8-.9-2-1.3-3.2-1.2-1.6-.1-3.1.5-4.2 1.6-1 1.5-1.5 3.2-1.3 5V785h-3v-13c.1-1.3-.3-2.5-1-3.6-.8-.9-2-1.3-3.2-1.2-1.6-.1-3.1.5-4.2 1.7-.9 1.1-1.3 3-1.3 5.6V785h-3v-20h2.5l.5 2.7h.1c.6-1 1.4-1.8 2.4-2.3 1.1-.6 2.3-.8 3.5-.8 3.1.0 5.2 1.1 6.1 3.4h.2c.6-1.1 1.5-1.9 2.6-2.5 1.2-.6 2.5-.9 3.9-.9 1.9-.1 3.7.5 5.1 1.7 1.1 1.2 1.7 3 1.7 5.6v13H1360.4z"/><path class="st2" d="M1395.2 785v-13c.1-1.3-.3-2.5-1-3.6-.8-.9-2-1.3-3.2-1.2-1.6-.1-3.1.5-4.2 1.6-1 1.5-1.5 3.2-1.3 5V785h-3v-13c.1-1.3-.2-2.6-1-3.6-.8-.9-2-1.3-3.2-1.2-1.6-.1-3.1.5-4.2 1.7-.9 1.1-1.3 3-1.3 5.6V785h-3v-20h2.5l.5 2.7h.2c.6-1 1.4-1.8 2.4-2.3 1.1-.6 2.3-.8 3.5-.8 3.1.0 5.2 1.1 6.1 3.4h.1c.6-1.1 1.5-1.9 2.6-2.5 1.2-.6 2.5-.9 3.9-.9 1.9-.1 3.7.5 5.1 1.7 1.1 1.2 1.7 3 1.7 5.6v13H1395.2z"/><path class="st2" d="M1404.2 759.5c0-.6.1-1.1.5-1.5.3-.3.8-.5 1.3-.5.5.0.9.2 1.3.5.4.4.6 1 .5 1.5.0.6-.1 1.1-.5 1.5-.3.3-.8.5-1.3.5-.5.0-.9-.2-1.3-.5C1404.4 760.6 1404.2 760.1 1404.2 759.5zM1407.5 785h-3v-20h3v20z"/><path class="st2" d="M1427.6 785v-13c.1-1.3-.3-2.6-1.1-3.7-.9-.9-2.2-1.3-3.5-1.2-1.7-.1-3.4.5-4.6 1.7-1 1.1-1.5 3-1.5 5.6V785h-3v-20h2.5l.5 2.7h.2c.6-1 1.5-1.8 2.6-2.3 1.2-.6 2.4-.8 3.7-.8 2-.1 3.9.5 5.4 1.7 1.2 1.2 1.8 3 1.8 5.6v13H1427.6z"/><path class="st2" d="M1449.2 785l-.6-2.8h-.2c-.8 1.1-1.8 1.9-3 2.5-1.2.5-2.4.7-3.7.7-1.7.1-3.4-.4-4.7-1.5-1.2-1.1-1.8-2.7-1.7-4.4.0-4 3.2-6.2 9.7-6.3l3.4-.1v-1.2c.1-1.2-.2-2.5-1-3.5-.9-.8-2-1.2-3.2-1.1-2 .1-3.9.6-5.7 1.5l-.9-2.3c1-.5 2.1-1 3.2-1.3 1.2-.3 2.3-.4 3.5-.5 2.4.0 4.2.5 5.3 1.6s1.7 2.8 1.7 5.1V785H1449.2zM1442.3 782.9c1.6.1 3.2-.5 4.4-1.5 1.1-1.2 1.7-2.7 1.6-4.3v-1.8l-3 .1c-1.8-.1-3.6.3-5.2 1.1-1.1.7-1.7 1.9-1.6 3.1-.1.9.3 1.9 1 2.5C1440.4 782.6 1441.3 782.9 1442.3 782.9v0z"/><path class="st2" d="M1466.8 764.6c.8.0 1.6.1 2.4.2l-.4 2.8c-.7-.2-1.5-.3-2.2-.3-1.6.0-3.1.7-4.2 2-1.2 1.4-1.8 3.1-1.7 4.9V785h-3v-20h2.5l.3 3.7h.1c.7-1.2 1.6-2.2 2.7-3C1464.4 765 1465.6 764.6 1466.8 764.6z"/><path class="st2" d="M1481.4 785.3c-2.6.1-5.2-.8-7-2.7-1.8-2.1-2.7-4.8-2.6-7.5-.1-2.8.7-5.5 2.4-7.7 1.6-1.9 3.9-2.9 6.4-2.8 2.3-.1 4.5.8 6 2.5 1.5 1.8 2.3 4.2 2.2 6.5v1.9H1475c-.1 1.9.6 3.8 1.8 5.3 1.3 1.3 3 1.9 4.8 1.8 2.2.0 4.4-.5 6.4-1.3v2.7c-1 .4-2 .8-3 1C1483.8 785.2 1482.6 785.3 1481.4 785.3zM1480.6 767.1c-1.5-.1-2.9.5-3.8 1.6-1 1.2-1.6 2.7-1.7 4.3h10.5c.1-1.6-.4-3.1-1.3-4.4C1483.3 767.6 1481.9 767 1480.6 767.1v0z"/><path class="st2" d="M1345.8 596.5h-3.1v-23.9h-8.4v-2.8h20v2.8h-8.4L1345.8 596.5z"/><path class="st2" d="M1375 586.4c0 3.3-.8 5.8-2.5 7.6-1.8 1.9-4.2 2.9-6.8 2.8-1.7.0-3.3-.4-4.8-1.3-1.4-.9-2.5-2.1-3.2-3.6-.8-1.7-1.2-3.6-1.1-5.5.0-3.3.8-5.8 2.4-7.6 1.7-1.9 4.2-2.9 6.8-2.7 2.5-.1 5 .9 6.7 2.8C1374.3 581 1375.1 583.7 1375 586.4zM1359.8 586.4c-.1 2.1.4 4.1 1.5 5.8 2.3 2.5 6.1 2.7 8.6.4.1-.1.3-.3.4-.4 1.1-1.7 1.7-3.8 1.5-5.8.1-2.1-.4-4.1-1.5-5.8-1.1-1.4-2.8-2.1-4.6-2-1.7-.1-3.4.6-4.5 2C1360.3 581.9 1359.8 583.9 1359.8 586.4v0z"/><path class="st2" d="M1377.2 576.4h3.3l4.4 11.4c.7 1.8 1.3 3.7 1.8 5.6h.2c.2-.6.5-1.7 1-3.2s2.2-6.1 5-13.9h3.3l-8.6 22.8c-.6 1.8-1.6 3.5-3 4.8-1.2 1-2.7 1.5-4.2 1.4-.9.0-1.8-.1-2.7-.3v-2.4c.7.2 1.5.2 2.3.2 2.1.0 3.6-1.2 4.5-3.5l1.1-2.8L1377.2 576.4z"/><path class="st2" d="M1398.8 594.5c0-.7.2-1.3.6-1.8.4-.4 1-.7 1.6-.6.6.0 1.2.2 1.7.6.4.5.6 1.2.6 1.8.0.7-.2 1.3-.6 1.8-.9.8-2.3.8-3.2.1C1398.9 595.9 1398.7 595.2 1398.8 594.5z"/><path class="st2" d="M1418.3 576.1c.8.0 1.6.1 2.4.2l-.4 2.8c-.7-.2-1.5-.3-2.2-.3-1.6.0-3.1.7-4.2 2-1.2 1.4-1.8 3.1-1.7 4.9v10.7h-3v-20h2.5l.3 3.7h.1c.7-1.2 1.6-2.2 2.7-3C1415.8 576.5 1417 576.1 1418.3 576.1z"/><path class="st2" d="M1427.3 576.4v13c-.1 1.3.3 2.6 1.1 3.7.9.9 2.2 1.3 3.5 1.2 1.7.2 3.4-.5 4.6-1.7 1-1.2 1.4-3 1.4-5.6v-10.5h3v20h-2.5l-.4-2.7h-.2c-.6 1-1.5 1.8-2.6 2.3-1.2.5-2.5.8-3.8.8-2 .2-3.9-.5-5.5-1.7-1.2-1.2-1.8-3-1.8-5.5v-13.1L1427.3 576.4z"/><path class="st2" d="M1272.5 141.8h3.9v20.1c0 3.7-.1 7-.3 10h.2l20.2-30.1h4.6v36.1h-3.9v-19.8c0-3.3.1-6.8.4-10.4h-.2l-20.3 30.3h-4.6L1272.5 141.8z"/><path class="st2" d="M1324.4 174l.8-2.3 1.1-2.9 7.3-17.8h5.2v27h-3.6v-22.4l-.5 1.4-1.4 3.8-7 17.1h-3.4l-7-17.2c-.7-1.7-1.3-3.4-1.8-5.2v22.3h-3.7v-27h5l7.1 17.1C1323.2 170 1323.8 172 1324.4 174z"/><path class="st2" d="M1351.6 177.9h-4.1v-27h22.7v27h-4.1v-23.5h-14.5v23.5z"/><path class="st2" d="M1390.3 178.4c-4 0-7.2-1.2-9.5-3.7s-3.5-5.8-3.5-10.1c0-4.4 1.1-7.8 3.2-10.4 2.1-2.6 5.3-4 8.7-3.9 3-.1 6 1.1 8 3.4 2.1 2.5 3.1 5.6 3 8.8v2.6h-18.6c.1 3.2.9 5.6 2.4 7.2 1.7 1.7 4 2.6 6.4 2.5 3 0 5.9-.6 8.6-1.8v3.6c-1.3.6-2.7 1-4.1 1.4C1393.5 178.3 1391.9 178.4 1390.3 178.4zM1389.2 153.8c-2-.1-3.9.7-5.2 2.1-1.4 1.7-2.2 3.7-2.3 5.9h14.1c.1-2.1-.5-4.2-1.7-5.9C1392.9 154.4 1391.1 153.7 1389.2 153.8v0z"/><path class="st2" d="M1419.8 178.4c-1.7.0-3.3-.3-4.8-1-1.5-.7-2.7-1.7-3.7-3h-.3c.2 1.5.3 3 .3 4.5V190h-4.1v-39.2h3.3l.6 3.7h.2c.9-1.4 2.2-2.5 3.7-3.2 1.5-.7 3.2-1 4.8-1 3.2-.2 6.3 1.2 8.3 3.7 1.9 2.4 2.9 5.9 2.9 10.3s-1 7.9-3 10.4C1426.1 177.2 1423 178.6 1419.8 178.4zM1419.2 153.9c-2.8.0-4.8.8-6 2.3-1.2 1.5-1.9 4-1.9 7.3v.9c0 3.8.6 6.5 1.9 8.1s3.3 2.5 6.1 2.5c2.2.1 4.3-1 5.5-2.8 1.3-1.9 2-4.5 2-7.8.0-3.4-.7-6-2-7.8C1423.5 154.8 1421.4 153.8 1419.2 153.9z"/><path class="st2" d="M1442.1 150.9V168l-.2 4.5-.1 1.4 14.6-23h5.1v27h-3.8v-16.5l.1-3.3.1-3.2-14.6 23h-5.1v-27H1442.1z"/><path class="st2" d="M1471.6 177.9h-4.8l7.8-11.4c-1.9-.3-3.5-1.3-4.8-2.7-1.1-1.4-1.7-3.2-1.7-5-.1-2.2.8-4.4 2.5-5.8 2-1.5 4.5-2.3 7-2.1h12v27h-4.1v-10.8h-6.8L1471.6 177.9zm.5-19c0 3.1 2.3 4.7 6.8 4.7h6.6v-9.1h-7.4C1474.1 154.4 1472.1 155.9 1472.1 158.9v0z"/><path class="st2" d="M1522.2 178.4c-3.9.0-6.9-1.2-9.1-3.6-2.1-2.4-3.2-5.8-3.2-10.2.0-4.5 1.1-8 3.3-10.5 2.2-2.5 5.3-3.7 9.3-3.7 1.3.0 2.6.1 3.9.4 1.1.2 2.1.5 3.1 1l-1.3 3.5c-1-.4-2-.7-3-.9-.9-.2-1.9-.3-2.8-.4-5.5.0-8.2 3.5-8.2 10.5.0 3.3.7 5.9 2 7.6 1.4 1.8 3.7 2.8 6 2.7 2.4.0 4.7-.5 6.9-1.5v3.6C1526.9 178 1524.6 178.5 1522.2 178.4z"/><path class="st2" d="M1531.2 150.9h4.4l5.9 15.4c1 2.5 1.8 5 2.4 7.6h.2c.2-.8.7-2.3 1.3-4.3s2.9-8.3 6.7-18.7h4.4l-11.6 30.8c-1.2 3.1-2.5 5.2-4 6.5-1.6 1.3-3.6 2-5.7 1.9-1.2.0-2.5-.1-3.7-.4v-3.3c1 .2 2 .3 3 .3 2.8.0 4.8-1.6 6-4.7l1.5-3.9L1531.2 150.9z"/><path class="st2" d="M1575 174l.8-2.3 1.1-2.9 7.3-17.8h5.2v27h-3.6v-22.4l-.5 1.4-1.4 3.8-7 17.1h-3.4l-7-17.2c-.7-1.7-1.3-3.4-1.8-5.2v22.3h-3.6v-27h5l7.1 17.1C1573.8 170 1574.5 172 1575 174z"/><path class="st2" d="M1621.4 164.4c0 4.4-1.1 7.9-3.3 10.3s-5.3 3.7-9.2 3.7c-2.3.0-4.5-.6-6.4-1.7-1.9-1.2-3.4-2.9-4.3-4.9-1.1-2.3-1.6-4.9-1.5-7.4.0-4.4 1.1-7.8 3.3-10.3 2.2-2.5 5.3-3.7 9.2-3.7 3.4-.1 6.7 1.2 9 3.8C1620.3 156.7 1621.4 160.1 1621.4 164.4zM1600.8 164.4c0 3.4.7 6.1 2.1 7.9 3 3.4 8.2 3.6 11.6.6.2-.2.4-.4.6-.6 1.4-1.8 2.1-4.4 2.1-7.9.0-3.5-.7-6.1-2.1-7.8-1.5-1.8-3.8-2.8-6.2-2.7-2.3-.2-4.6.8-6.1 2.6C1601.5 158.2 1600.8 160.9 1600.8 164.4v0z"/><path class="st2" d="M1644.4 150.9h4.5l-11.7 13 12.6 14h-4.8l-12.3-13.7v13.7h-4.1v-27h4.1V164L1644.4 150.9z"/><path class="st2" d="M1711.6 1667h2.3c.8-.1 1.6.1 2.3.5.8.7.9 1.9.3 2.8-.3.3-.7.6-1.2.6v0c1.1.1 1.9.9 1.8 2 0 .7-.2 1.3-.7 1.8-.6.4-1.3.7-2 .6h-2.8L1711.6 1667zM1712.5 1670.6h1.5c.5.0 1-.1 1.4-.3.3-.3.5-.7.4-1.1.0-.4-.2-.8-.5-1-.5-.2-1-.4-1.5-.3h-1.4V1670.6zM1712.5 1671.4v3.2h1.7c.5.0 1-.1 1.5-.4.3-.3.5-.8.5-1.2.0-.4-.2-.9-.5-1.2-.5-.3-1-.4-1.5-.4H1712.5z"/><path class="st2" d="M1722.4 1675.5l-.2-.9v0c-.2.3-.5.6-.9.8-.4.1-.7.2-1.1.2-.5.0-1-.1-1.4-.5-.4-.4-.5-.9-.5-1.4.0-1.3 1-1.9 2.9-2h1v-.4c0-.4-.1-.8-.3-1.1-.3-.3-.6-.4-1-.3-.6.0-1.2.2-1.7.5l-.3-.7c.3-.2.7-.3 1-.4.3-.1.7-.1 1.1-.1.6.0 1.1.1 1.6.5.4.4.6 1 .5 1.6v4.3L1722.4 1675.5zM1720.4 1674.8c.5.0 1-.1 1.3-.5.3-.4.5-.9.5-1.4v-.6h-.9c-.5.0-1.1.1-1.6.4-.3.2-.5.6-.5 1 0 .3.1.6.3.8C1719.8 1674.7 1720.1 1674.8 1720.4 1674.8v0z"/><path class="st2" d="M1727.8 1669c.7.0 1.4.3 1.8.8.5.7.7 1.6.7 2.4.1.9-.2 1.7-.7 2.4-.4.6-1.1.9-1.8.9-.4.0-.7-.1-1.1-.2-.3-.2-.6-.4-.8-.7h-.1l-.2.8h-.6v-9h.9v2.2c0 .5.0.9-.1 1.3h.1C1726.3 1669.3 1727 1669 1727.8 1669zM1727.6 1669.8c-.5.0-1 .2-1.3.6-.3.6-.5 1.2-.4 1.9-.1.7.1 1.3.4 1.9.3.4.8.6 1.3.6.5.0 1-.2 1.3-.6.3-.6.4-1.2.4-1.8.0-.6-.1-1.3-.4-1.8C1728.6 1670 1728.1 1669.8 1727.6 1669.8v0z"/><path class="st2" d="M1730.9 1669.1h1l1.3 3.6c.2.6.4 1.2.5 1.8v0c0-.2.2-.5.3-1s.6-1.9 1.5-4.4h1l-2.6 7.2c-.2.6-.5 1.1-.9 1.5-.3.3-.8.5-1.3.4-.3.0-.6.0-.8-.1v-.8c.2.1.4.1.7.1.6.0 1.2-.5 1.3-1.1l.3-.9L1730.9 1669.1z"/><path class="st2" d="M1742.4 1675.5l-1.1-3.7c-.1-.2-.2-.7-.4-1.5h-.1c-.2.7-.3 1.2-.4 1.6l-1.1 3.7h-1l-1.6-6.3h.9c.4 1.6.7 2.8.9 3.6.1.5.3 1.1.3 1.7v0c0-.2.1-.5.2-.8s.2-.6.2-.8l1.1-3.6h1l1.1 3.6c.2.5.3 1.1.4 1.7v0c0-.1.1-.3.1-.6s.4-1.8 1.1-4.7h.9l-1.7 6.3L1742.4 1675.5z"/><path class="st2" d="M1749.9 1675.5l-.2-.9v0c-.2.3-.5.6-.9.8-.4.2-.7.2-1.1.2-.5.0-1-.1-1.4-.5-.4-.4-.5-.9-.5-1.4.0-1.3 1-1.9 2.9-2h1v-.4c0-.4-.1-.8-.3-1.1-.3-.3-.6-.4-1-.3-.6.0-1.2.2-1.7.5l-.3-.7c.3-.2.7-.3 1-.4.3-.1.7-.1 1.1-.1.6-.1 1.1.1 1.6.5.4.4.6 1 .5 1.6v4.3L1749.9 1675.5zM1747.8 1674.8c.5.0 1-.1 1.3-.5.3-.4.5-.9.5-1.4v-.6h-.9c-.5.0-1.1.1-1.6.4-.3.2-.5.6-.5 1 0 .3.1.6.3.8C1747.3 1674.7 1747.5 1674.8 1747.8 1674.8v0z"/><path class="st2" d="M1754.4 1674.8c.2.0.3.0.5.0.1.0.2.0.3-.1v.7c-.1.1-.3.1-.4.1-.2.0-.3.0-.5.0-1.2.0-1.7-.6-1.7-1.9v-3.8h-.9v-.5l.9-.4.4-1.3h.5v1.5h1.7v.7h-1.7v3.7c0 .3.1.6.3.9C1753.9 1674.7 1754.1 1674.8 1754.4 1674.8z"/><path class="st2" d="M1758.8 1675.6c-.8.0-1.5-.3-2-.8-.5-.7-.8-1.5-.7-2.4-.1-.9.2-1.7.7-2.4.5-.6 1.3-.9 2.1-.9.3.0.6.0.9.1.2.1.5.1.7.2l-.3.8c-.2-.1-.4-.2-.7-.2-.2-.1-.4-.1-.6-.1-1.2.0-1.8.8-1.8 2.5.0.6.1 1.3.4 1.8.3.4.8.7 1.3.6.5.0 1.1-.1 1.5-.3v.8C1759.9 1675.5 1759.3 1675.6 1758.8 1675.6z"/><path class="st2" d="M1765.9 1675.5v-4.1c0-.4-.1-.8-.3-1.2-.3-.3-.6-.4-1-.4-.5.0-1 .2-1.4.5-.3.5-.5 1.2-.4 1.8v3.3h-.9v-9h.9v2.7c0 .3.0.5.0.8h.1c.2-.3.4-.6.8-.7.3-.2.7-.3 1.1-.3.6.0 1.2.2 1.7.6.4.5.6 1.1.6 1.8v4.1L1765.9 1675.5z"/><path class="st2" d="M1768.3 1671.9c-.1-1.3.2-2.6.9-3.7.6-.8 1.7-1.3 2.7-1.2.3.0.7.0 1 .1v.8c-.3-.1-.7-.1-1-.1-.8-.1-1.5.3-2 .8-.5.8-.8 1.7-.8 2.7h.1c.4-.7 1.1-1.1 1.9-1 .6.0 1.3.2 1.7.7.4.5.7 1.2.6 1.9.0.8-.2 1.5-.7 2.1-.5.5-1.2.8-1.8.8-.8.0-1.5-.3-2-1C1768.5 1673.7 1768.2 1672.8 1768.3 1671.9zM1771 1674.8c.5.0.9-.2 1.2-.5.3-.4.5-1 .4-1.5.0-.5-.1-.9-.4-1.3-.3-.3-.7-.5-1.2-.5-.3.0-.6.1-.9.2-.3.1-.5.3-.7.6-.2.2-.2.5-.3.8.0.4.1.8.2 1.1.1.3.3.6.6.8C1770.3 1674.7 1770.7 1674.8 1771 1674.8z"/><path class="st2" d="M1780.3 1673.5h-1.2v1.9h-.9v-1.9h-3.9v-.8l3.8-5.7h1v5.7h1.2L1780.3 1673.5zM1778.2 1672.7v-2.8c0-.5.0-1.2.1-1.9v0c-.1.3-.3.6-.5.9l-2.5 3.8H1778.2z"/><path class="st2" d="M1736.1 1175h2.3c.8-.1 1.6.1 2.3.5.5.4.8 1 .7 1.6.0.4-.1.9-.4 1.2-.3.3-.7.6-1.2.6v.1c1.1.0 1.9.9 1.8 2 0 0 0 0 0 0 0 .7-.2 1.3-.7 1.8-.6.4-1.3.7-2 .6h-2.8L1736.1 1175zM1737.1 1178.6h1.5c.5.0 1-.1 1.4-.3.3-.3.5-.7.4-1.1.0-.4-.2-.8-.5-1-.5-.2-1-.4-1.5-.3h-1.4L1737.1 1178.6zM1737.1 1179.4v3.2h1.7c.5.0 1-.1 1.5-.4.3-.3.5-.8.5-1.2.0-.4-.2-.9-.5-1.2-.5-.3-1-.4-1.5-.4H1737.1z"/><path class="st2" d="M1743.4 1175h2.3c.8-.1 1.6.1 2.3.5.5.4.8 1 .7 1.6.0.4-.1.9-.4 1.2-.3.3-.7.6-1.2.6v.1c1.1.1 1.9.9 1.8 2 0 .7-.2 1.3-.7 1.8-.6.4-1.3.7-2 .6h-2.8L1743.4 1175zM1744.3 1178.6h1.5c.5.0 1-.1 1.4-.3.3-.3.5-.7.4-1.1.0-.4-.2-.8-.5-1-.5-.2-1-.4-1.5-.3h-1.4L1744.3 1178.6zM1744.3 1179.4v3.2h1.7c.5.0 1-.1 1.5-.4.3-.3.5-.8.5-1.2.0-.4-.2-.9-.5-1.2-.5-.3-1-.4-1.5-.4H1744.3z"/><path class="st2" d="M1753.5 1183.4h-.9v-6c0-.5.0-1 0-1.4l-.3.3c-.1.1-.5.5-1.3 1.1l-.5-.7 2.1-1.7h.8L1753.5 1183.4z"/><path class="st2" d="M1721.3 1197.5l-1-2.7h-3.2l-1 2.7h-.9l3.2-8.5h.8l3.2 8.5H1721.3zM1720 1194l-.9-2.6c-.1-.4-.3-.8-.4-1.2-.1.4-.2.8-.3 1.2l-.9 2.6H1720z"/><path class="st2" d="M1725.7 1197.7c-.8.0-1.5-.3-2-.8-.5-.7-.8-1.5-.7-2.4-.1-.9.2-1.7.7-2.4.5-.6 1.3-.9 2.1-.9.3.0.6.0.9.1.2.0.5.1.7.2l-.3.8c-.2-.1-.4-.2-.7-.2-.2-.1-.4-.1-.6-.1-1.2.0-1.8.8-1.8 2.4.0.6.1 1.3.4 1.8.3.4.8.7 1.3.6.5.0 1.1-.1 1.5-.3v.8C1726.7 1197.6 1726.2 1197.7 1725.7 1197.7z"/><path class="st2" d="M1731 1197.7c-.8.0-1.5-.3-2-.8-.5-.7-.8-1.5-.7-2.4-.1-.9.2-1.7.7-2.4.5-.6 1.3-.9 2.1-.9.3.0.6.0.9.1.2.0.5.1.7.2l-.3.8c-.2-.1-.4-.2-.7-.2-.2-.1-.4-.1-.6-.1-1.2.0-1.8.8-1.8 2.4.0.6.1 1.3.4 1.8.3.4.8.7 1.3.6.5.0 1.1-.1 1.5-.3v.8C1732.1 1197.6 1731.5 1197.7 1731 1197.7z"/><path class="st2" d="M1736.5 1197.7c-.8.0-1.6-.3-2.1-.9-.6-.7-.8-1.5-.8-2.4.0-.9.2-1.7.7-2.4.5-.6 1.2-.9 1.9-.9.7.0 1.3.3 1.8.8.5.6.7 1.3.7 2.1v.6h-4.1c0 .6.2 1.2.5 1.7.4.4.9.6 1.4.6.7.0 1.3-.1 1.9-.4v.8c-.3.1-.6.2-.9.3C1737.2 1197.6 1736.8 1197.7 1736.5 1197.7zM1736.2 1191.9c-.4.0-.9.2-1.2.5-.3.4-.5.9-.5 1.4h3.1c0-.5-.1-1-.4-1.4C1737.1 1192.1 1736.6 1191.9 1736.2 1191.9z"/><path class="st2" d="M1744.1 1195.8c0 .5-.2 1-.6 1.4-.5.3-1.1.5-1.8.5-.6.0-1.3-.1-1.9-.4v-.9c.3.2.6.3.9.4.3.1.7.1 1 .1.4.0.8-.1 1.1-.2.3-.2.4-.4.4-.7.0-.2-.1-.5-.3-.6-.4-.3-.8-.5-1.2-.6-.4-.1-.8-.3-1.2-.6-.2-.1-.4-.3-.5-.6-.1-.2-.2-.5-.2-.7.0-.5.2-.9.6-1.2.5-.3 1.1-.5 1.6-.4.7.0 1.3.1 1.9.4l-.3.8c-.5-.2-1.1-.4-1.6-.4-.3.0-.7.0-1 .2-.2.1-.3.3-.3.6.0.2.0.3.1.4.1.1.2.3.4.3.3.2.7.3 1.1.5.5.2 1 .5 1.4.8C1744 1195.1 1744.1 1195.4 1744.1 1195.8z"/><path class="st2" d="M1749.5 1195.8c0 .5-.2 1-.6 1.4-.5.3-1.1.5-1.8.5-.6.0-1.3-.1-1.9-.4v-.9c.3.2.6.3.9.4.3.1.7.1 1 .1.4.0.8-.1 1.1-.2.3-.2.4-.4.4-.7.0-.2-.1-.5-.3-.6-.4-.3-.8-.5-1.2-.6-.4-.1-.8-.3-1.2-.6-.2-.1-.4-.3-.5-.6-.1-.2-.2-.5-.2-.7.0-.5.2-.9.6-1.2.5-.3 1.1-.5 1.6-.4.7.0 1.3.1 1.9.4l-.3.8c-.5-.2-1.1-.4-1.6-.4-.3.0-.7.0-1 .2-.2.1-.3.3-.3.6.0.2.0.3.1.4.1.1.2.3.4.3.3.2.7.3 1.1.5.5.2 1 .5 1.4.8C1749.3 1195.1 1749.5 1195.4 1749.5 1195.8z"/><path class="st2" d="M1756.1 1194.4c.1.9-.2 1.7-.7 2.4-.9 1-2.4 1.1-3.5.5-.4-.3-.8-.7-1-1.1-.2-.5-.4-1.1-.3-1.7-.1-.9.2-1.7.7-2.4.5-.6 1.2-.9 2-.9.8.0 1.5.3 2 .9C1755.8 1192.7 1756.1 1193.5 1756.1 1194.4zM1751.5 1194.4c0 .6.1 1.3.5 1.8.3.4.8.7 1.3.6.5.0 1-.2 1.4-.6.3-.6.5-1.2.5-1.8.0-.6-.1-1.3-.5-1.8-.3-.4-.8-.7-1.4-.6-.5.0-1 .2-1.3.6C1751.7 1193.1 1751.5 1193.7 1751.5 1194.4z"/><path class="st2" d="M1760.4 1191.1c.2.0.5.0.7.1l-.1.9c-.2-.1-.4-.1-.7-.1-.5.0-1 .2-1.3.6-.3.4-.5 1-.5 1.6v3.4h-.9v-6.3h.8l.1 1.2v0c.2-.4.5-.7.8-1C1759.7 1191.2 1760.1 1191.1 1760.4 1191.1z"/><path class="st2" d="M1762.2 1189.5c0-.2.0-.3.2-.5.1-.1.2-.2.4-.2.1.0.3.1.4.2.1.1.2.3.2.5.0.2.0.3-.2.5-.1.1-.2.2-.4.2-.1.0-.3-.1-.4-.2C1762.2 1189.9 1762.2 1189.7 1762.2 1189.5zm1 8h-.9v-6.3h.9V1197.5z"/><path class="st2" d="M1767.7 1197.7c-.8.0-1.6-.3-2.1-.9-.6-.7-.8-1.5-.8-2.4.0-.9.2-1.7.7-2.4.5-.6 1.2-.9 1.9-.9.7.0 1.3.3 1.8.8.5.6.7 1.3.7 2.1v.6h-4.1c0 .6.2 1.2.5 1.7.4.4.9.6 1.4.6.7.0 1.3-.1 1.9-.4v.8c-.3.1-.6.2-.9.3C1768.4 1197.6 1768 1197.7 1767.7 1197.7zM1767.4 1191.9c-.4.0-.9.2-1.2.5-.3.4-.5.9-.5 1.4h3.1c0-.5-.1-1-.4-1.4C1768.2 1192.1 1767.8 1191.9 1767.4 1191.9z"/><path class="st2" d="M1775.3 1195.8c0 .5-.2 1-.6 1.4-.5.3-1.1.5-1.8.5-.6.0-1.3-.1-1.9-.4v-.9c.3.2.6.3.9.4.3.1.7.1 1 .1.4.0.8-.1 1.1-.2.3-.2.4-.4.4-.7.0-.2-.1-.5-.3-.6-.4-.3-.8-.5-1.2-.6-.4-.1-.8-.3-1.2-.6-.2-.1-.4-.3-.5-.6-.1-.2-.2-.5-.2-.7.0-.5.2-.9.6-1.2.5-.3 1.1-.5 1.6-.4.7.0 1.3.1 1.9.4l-.3.8c-.5-.2-1.1-.4-1.6-.4-.3.0-.7.0-1 .2-.2.1-.3.4-.3.6.0.2.0.3.1.4.1.1.2.3.4.3.3.2.7.3 1 .5.5.2 1 .5 1.4.8C1775.2 1195.1 1775.3 1195.4 1775.3 1195.8z"/><path class="st2" d="M1740.3 1522.4h-1.5v-3.6h-9.2v3.6h-1.5v-5.1h1c1-1.9 1.8-3.9 2.4-6 .6-2.1 1-4.3 1.1-6.5h5.9v12.5h1.7L1740.3 1522.4zM1737.1 1517.3v-11h-3c-.2 1.9-.5 3.7-1.1 5.5-.5 1.9-1.2 3.7-2.2 5.5H1737.1z"/><path class="st2" d="M1743.7 1508.3v6.6l-.1 1.7v.6l5.4-8.9h1.9v10.4h-1.4v-6.4-1.3-1.2l-5.4 8.9h-1.9v-10.4h1.5z"/><path class="st2" d="M1762.1 1510.9c0 .6-.2 1.1-.6 1.6-.4.4-1 .6-1.6.7v.1c.7.0 1.3.3 1.9.8.4.5.6 1.1.6 1.7.0.9-.3 1.7-1 2.3-.9.6-1.9.9-3 .8h-4.4v-10.4h4.4C1760.8 1508.3 1762.1 1509.1 1762.1 1510.9zM1760.6 1511c0-.4-.2-.9-.6-1.1-.5-.2-1.1-.4-1.7-.3h-2.8v2.9h2.6c.7.1 1.4-.1 2-.4C1760.5 1512 1760.7 1511.5 1760.6 1511v0zM1760.9 1515.6c0-.5-.2-1-.6-1.2-.6-.3-1.3-.4-2-.4h-2.7v3.4h2.8C1760 1517.4 1760.9 1516.8 1760.9 1515.6v0z"/><path class="st3" d="M1664.5 690h162v353h-162z"/><path class="st2" d="M1785.8 759.1h-19.2c-3.7.0-7.3 1.5-9.9 4.1l-39.2 39.8H1705c-6.5.0-11.7 5.3-11.7 11.7.0.1.0.1.0.2.2 6.4 5.4 11.5 11.8 11.5h17.5c3.7.0 7.3-1.5 9.9-4.1l39.2-39.8h14.3c6.5.0 11.7-5.3 11.7-11.7.0-.1.0-.1.0-.2C1797.5 764.2 1792.3 759.1 1785.8 759.1z"/><path class="st2" d="M1738.2 736.1c-5 0-9 4-9 9s4 9 9 9 9-4 9-9v0c0-4.899999999999977-4-9-9-9z"/><path class="st2" d="M1738.4 756.5c-5.1.0-9.2 4.1-9.2 9.1.0.0.0.0.0.1v18l18.1-18.2c0-5-4-9-8.899999999999864-9z"/><path class="st3" d="M1255.5 319h280v154h-280z"/><path class="st2" d="M1355.5 370.5h27.4v73.2H1355.5z"/><path class="st2" d="M1323.5 370.5h27.4v73.2H1323.5z"/><path class="st2" d="M1403.5 343h-100.6c-1.3.0-2.3 1-2.3 2.3.0.0.0.0.0.0v100.6c0 1.3 1 2.3 2.3 2.3h16v-80c0-1.3 1-2.3 2.3-2.3h64c1.3.0 2.3 1 2.3 2.3v80h16c1.3.0 2.3-1 2.3-2.3V345.3C1405.7 344 1404.7 343 1403.5 343zM1345.7 360.6c-.9.9-2.3.9-3.2.0.0.0.0.0.0.0l-3-3-3 3c-.9.9-2.3.9-3.2.0-.9-.9-.9-2.3.0-3.2l4.6-4.6c.9-.9 2.3-.9 3.2.0l4.6 4.6C1346.5 358.3 1346.5 359.7 1345.7 360.6zM1373.1 356.1l-4.6 4.6c-.9.9-2.3.9-3.2.0.0.0.0.0.0.0l-4.6-4.6c-.9-.9-.9-2.3.0-3.2.9-.9 2.3-.9 3.2.0l3 3 3-3c.9-.9 2.4-.8 3.2.1C1374 353.8 1374 355.2 1373.1 356.1v0zM1394.4 402.5c-1.3.0-2.3-1-2.3-2.3s1-2.3 2.3-2.3 2.3 1 2.3 2.3c0 0 0 0 0 0C1396.6 401.4 1395.6 402.5 1394.4 402.5v0zM1394.4 393.3c-1.3.0-2.3-1-2.3-2.3.0-1.3 1-2.3 2.3-2.3 1.3.0 2.3 1 2.3 2.3.0.0.0.0.0.0C1396.6 392.3 1395.6 393.3 1394.4 393.3z"/><path class="st2" d="M1490.3 409.4c0-11.9-9.4-21.5-21-21.5-1.3.0-2.5.1-3.7.3-.7.1-1.4.3-2.1.5l5.8 20.7h21z"/><path class="st2" d="M1443.7 412.4c-.1-2.5-1-4.8-2.6-6.8-2.1-2.6-5.3-4.3-9.4-5.2-.5-.6-1.2-.9-2-.9h-2.7c-1.4-.1-2.7 1-2.8 2.4-.1 1.4 1 2.7 2.4 2.8.1.0.2.0.3.0h2.7c.6.0 1.2-.2 1.7-.6 2.6.4 5 1.8 6.8 3.7 1 1.3 1.7 2.9 1.8 4.5h-.1c0 11.4 11.3 20.6 25.2 20.6s25.2-9.2 25.2-20.6H1443.7z"/><path class="st2" d="M1455.3 433.9c-4 0-7.2 3.2-7.2 7.2s3.2 7.2 7.2 7.2 7.2-3.2 7.2-7.2c0 0 0 0 0 0C1462.4 437.1 1459.2 433.9 1455.3 433.9zM1455.3 444.6c-1.9.0-3.5-1.6-3.5-3.5.0-1.9 1.6-3.5 3.5-3.5 1.9.0 3.5 1.6 3.5 3.5.0.0.0.0.0.0C1458.8 443 1457.2 444.6 1455.3 444.6c0 0 0 0 0 0v0z"/><path class="st2" d="M1474.6 433.9c-4 0-7.2 3.2-7.2 7.2s3.2 7.2 7.2 7.2 7.2-3.2 7.2-7.2c0 0 0 0 0 0C1481.8 437.1 1478.6 433.9 1474.6 433.9zM1474.6 444.6c-1.9.0-3.5-1.6-3.5-3.5.0-1.9 1.6-3.5 3.5-3.5 1.9.0 3.5 1.6 3.5 3.5.0.0.0.0.0.0C1478.1 443 1476.6 444.6 1474.6 444.6v0z"/><path class="st3" d="M1208.5 1793h48v-76h-50v-18-24-18h-178v157h180z"/><path class="st2" d="M1157.9 1703h-20.2c-1.9.0-3.4 1.5-3.4 3.4v16.8h-16.8c-1.9.0-3.4 1.5-3.4 3.4.0.0.0.0.0.0v16.8h-16.8c-1.9.0-3.4 1.5-3.4 3.4v16.8h-16.8c-1.9-.1-3.5 1.3-3.6 3.2s1.3 3.5 3.2 3.6c.1.0.2.0.4.0h20.2c1.9.0 3.4-1.5 3.4-3.4v-16.8h16.8c1.9.0 3.4-1.5 3.4-3.4.0.0.0.0.0.0V1730h16.8c1.9.0 3.4-1.5 3.4-3.4.0.0.0.0.0.0v-16.8h16.8c1.9.1 3.5-1.3 3.6-3.2s-1.3-3.5-3.2-3.6C1158.1 1703 1158 1703 1157.9 1703v0z"/><path class="st4" d="M1181.5 2310.5c-60.4.0-118.6-22.7-163-63.7v27l-10.3.2c-59.2 1-114.8 1.5-166.9 1.5-409.4.0-600.5-28.7-659.9-40.1-40.1 40.8-105.6 41.3-146.4 1.3s-41.3-105.6-1.3-146.4c2.8-2.8 5.7-5.4 8.7-7.9V1015h1104V4h1209v2086.6c40 40.8 39.4 106.3-1.4 146.4-40.8 40-106.3 39.4-146.4-1.4-1-1-1.9-2-2.9-3.1-17.6 3.9-71.9 14.5-178.7 24.2-120.3 11-332.8 22.9-662.3 17.2l-10.3-.2v-35.8c-18.6 19-40.2 34.8-63.9 46.8C1256.1 2301.8 1219 2310.6 1181.5 2310.5zM997.5 2192.9l18.4 21.1c79.6 91.5 218.2 101.1 309.7 21.5 11.1-9.6 21.2-20.4 30.1-32l18.8-24.5v74.1c54.7.9 106.3 1.3 154.5 1.3 235.6.0 395.7-9.6 494-18.5 113.5-10.3 168.1-21.8 180.4-24.6l6.2-6.2 7.3 9.2c28.3 35.7 80.2 41.7 115.9 13.4 35.7-28.3 41.7-80.2 13.4-115.9-2.5-3.2-5.3-6.2-8.3-9l-3.3-3.1V25h-1167v1011H63.5v1057l-4.3 3.1c-36.9 26.7-45.1 78.3-18.4 115.2 26.7 36.9 78.3 45.1 115.2 18.4 5-3.7 9.7-7.9 13.8-12.6l4-4.6 6 1.2c51.4 10.3 239.8 40.8 661.2 40.8 49 0 101.1-.4 156.6-1.3L997.5 2192.9z"/><path class="st2" d="M118.9 1473c0 5.8 4.7 10.5 10.5 10.5 5.8.0 10.5-4.7 10.5-10.5.0-5.8-4.7-10.5-10.5-10.5.0.0.0.0.0.0C123.6 1462.5 118.9 1467.2 118.9 1473z"/><path class="st2" d="M145.7 1457.8c-.6.4-.9 1-.9 1.7v27c0 1.1.9 2 2 2 .3.0.6.0.8-.2l33.6-13.5c.8-.3 1.3-1 1.3-1.9.0-.8-.5-1.6-1.3-1.9l-33.6-13.5C147 1457.3 146.3 1457.4 145.7 1457.8z"/><path class="st2" d="M118.9 1436.5c0 5.8 4.7 10.5 10.5 10.5 5.8.0 10.5-4.7 10.5-10.5.0-5.8-4.7-10.5-10.5-10.5C123.6 1426 118.9 1430.7 118.9 1436.5v0z"/><path class="st2" d="M179.7 1421.1l-33.6 13.5c-1 .4-1.6 1.5-1.2 2.6.2.5.6 1 1.2 1.2l33.6 13.5c1 .4 2.2-.1 2.6-1.1.1-.3.2-.5.2-.8v-27c0-1.1-.9-2-2-2C180.2 1421 179.9 1421 179.7 1421.1v0z"/></svg>