<svg id="level-1" data-name="Слой 1" xmlns="http://www.w3.org/2000/svg" viewBox="0 0 2722 2295"><defs><style>.cls-1{fill:#dbdbe0;}.cls-2{fill:#cbcbcd;}.cls-3{fill:#ebebeb;}.cls-4{fill:#aaaba7;}.cls-5{fill:#bebebe;}</style></defs><title>Карта</title><polygon class="cls-1" points="1706.5 330.5 1706.5 14.5 14.5 14.5 14.5 1167.5 675.5 1167.5 675.5 2280.5 2517.78 2280.5 2707.5 2106.22 2707.5 330.5 1706.5 330.5"/><polygon class="cls-2" points="14.82 14.5 14.82 1172.5 469.23 1172.5 725.71 1172.5 1263.76 1172.5 1352.5 1172.5 1352.5 933.5 1263.76 933.7 1263.76 14.5 14.82 14.5"/><rect class="cls-2" x="1311.5" y="887.5" width="17" height="31"/><rect class="cls-2" x="1365.5" y="565.5" width="112" height="186"/><rect class="cls-2" x="1365.5" y="407.5" width="112" height="58"/><rect class="cls-2" x="1365.5" y="277.5" width="246" height="114"/><rect class="cls-2" x="1365.5" y="146.5" width="246" height="114"/><rect class="cls-2" x="1365.5" y="14.5" width="246" height="114"/><rect class="cls-2" x="1499.5" y="565.5" width="112" height="186"/><rect class="cls-2" x="1490.5" y="910.5" width="132" height="271"/><rect class="cls-2" x="1490.5" y="1262.5" width="206" height="321"/><rect class="cls-2" x="1365.5" y="2068.5" width="158" height="212" transform="translate(2889 4349) rotate(180)"/><rect class="cls-2" x="1713.5" y="910.5" width="334" height="334"/><rect class="cls-2" x="1713.5" y="1262.5" width="334" height="321"/><rect class="cls-2" x="1641.5" y="910.5" width="53" height="109"/><rect class="cls-2" x="2299.5" y="910.5" width="408" height="163"/><rect class="cls-2" x="2299.5" y="1090.5" width="212" height="154"/><rect class="cls-2" x="2119.5" y="1693.5" width="121" height="121"/><rect class="cls-2" x="1781.5" y="1945.5" width="66" height="58"/><rect class="cls-2" x="1636.5" y="2205.5" width="73" height="38"/><rect class="cls-2" x="1446.5" y="1780.5" width="63" height="149"/><rect class="cls-2" x="2119.5" y="1512.5" width="121" height="121"/><rect class="cls-2" x="2119.5" y="1319.5" width="121" height="121"/><rect class="cls-2" x="2299.5" y="1610.5" width="408" height="142"/><rect class="cls-2" x="1490.5" y="1199.5" width="132" height="45"/><rect class="cls-2" x="1198.5" y="1199.5" width="154" height="45"/><rect class="cls-2" x="1012.5" y="1262.5" width="340" height="147"/><rect class="cls-2" x="1012.5" y="1427.5" width="340" height="147"/><rect class="cls-2" x="1881.5" y="612.5" width="75" height="139"/><rect class="cls-2" x="1706.5" y="760.5" width="21" height="32"/><rect class="cls-2" x="1804.5" y="760.5" width="18" height="32"/><rect class="cls-2" x="1836.5" y="760.5" width="18" height="32"/><rect class="cls-2" x="1867.5" y="760.5" width="18" height="32"/><rect class="cls-2" x="1741.5" y="760.5" width="50" height="32"/><rect class="cls-2" x="2135.5" y="331.5" width="208" height="420"/><rect class="cls-2" x="2528.5" y="584.5" width="179" height="167"/><polygon class="cls-2" points="1840.5 331.5 1840.5 493.5 1972.5 493.5 1972.5 751.5 2119.5 751.5 2119.5 331.5 1840.5 331.5"/><polygon class="cls-2" points="1499.5 407.5 1499.5 484.5 1365.5 484.5 1365.5 549.5 1611.5 549.5 1611.5 407.5 1499.5 407.5"/><rect class="cls-2" x="1460.5" y="955.5" width="17" height="31"/><polygon class="cls-2" points="2509.5 566.5 2707.5 566.5 2707.5 331.5 2360.5 331.5 2360.5 751.5 2509.5 751.5 2509.5 566.5"/><polygon class="cls-3" points="1865 599 1956.5 599 1956.5 511 1826 511 1826 331.5 1706.5 331.5 1706.5 751.5 1865 751.5 1865 599"/><polygon class="cls-2" points="1490.5 1603.5 1490.5 1759.3 1779.5 1759.3 1779.5 1929.5 2047.5 1929.5 2047.5 1603.5 1490.5 1603.5"/><polygon class="cls-2" points="2528.5 1090.5 2528.5 1261.5 2299.5 1261.5 2299.5 1588.5 2707.5 1588.5 2707.5 1090.5 2528.5 1090.5"/><polygon class="cls-2" points="2300 1772.5 2300 1946 1863.5 1946 1863.5 2280.5 2517.78 2280.5 2707.5 2106.22 2707.5 1772.5 2300 1772.5"/><polygon class="cls-2" points="992.5 1591.5 992.5 1262.5 675.5 1262.5 675.5 2280.5 1352.5 2280.5 1352.5 1591.5 992.5 1591.5"/><path class="cls-4" d="M363.3,551.17q0,16.11-8.15,25.33t-22.65,9.23q-14.82,0-22.88-9.06t-8.06-25.59q0-16.4,8.08-25.41t22.95-9q14.46,0,22.58,9.18T363.3,551.17Zm-53.47,0q0,13.64,5.8,20.67t16.87,7q11.16,0,16.84-7t5.7-20.7q0-13.54-5.67-20.54t-16.78-7q-11.14,0-17,7T309.83,551.17Z"/><path class="cls-4" d="M406.44,534.51h8.36l-21.71,24.28,23.5,26h-8.91l-22.95-25.47v25.47h-7.62v-50.3h7.62V559Z"/><path class="cls-4" d="M447.15,585.73q-11.14,0-17.6-6.79t-6.45-18.87q0-12.17,6-19.32t16.09-7.16q9.45,0,15,6.22t5.51,16.41V561H431q.22,8.85,4.47,13.44t12,4.59a40.54,40.54,0,0,0,16.06-3.39v6.79a40.13,40.13,0,0,1-7.64,2.5A42.55,42.55,0,0,1,447.15,585.73ZM445.09,540a12.44,12.44,0,0,0-9.66,3.95q-3.62,3.95-4.25,10.92h26.3q0-7.2-3.21-11T445.09,540Z"/><path class="cls-4" d="M485.8,534.51v31.9l-.32,8.35-.14,2.62,27.22-42.87h9.5v50.3H515V554.06l.13-6.06.23-6-27.17,42.78h-9.5v-50.3Zm14.37-6.66q-8.49,0-12.4-3.28t-4.36-10.81h7.16c.28,3.18,1.11,5.4,2.51,6.66s3.81,1.88,7.27,1.88c3.15,0,5.49-.67,7-2s2.44-3.52,2.78-6.52h7.2q-.54,7.26-4.63,10.67T500.17,527.85Z"/><path class="cls-4" d="M534,563.1v-7h22.54v7Z"/><path class="cls-4" d="M581.82,523.72a35.67,35.67,0,0,0-15.33,3.49l-3.3-6.61a42.23,42.23,0,0,1,18.72-3.86,34.5,34.5,0,0,1,17.15,4A26.5,26.5,0,0,1,610,532.3a39.32,39.32,0,0,1,3.71,17.63q0,17.25-8.35,26.53t-24.05,9.27q-10.42,0-17.58-2.62v-6.84c2.54.65,5.12,1.23,7.76,1.75a43.77,43.77,0,0,0,8.49.78q12.43,0,18.77-6.63t6.7-19.12h-33v-7h32.91q-1-10.5-7.23-16.43T581.82,523.72Z"/><path class="cls-4" d="M657,534.51h8.35l-21.7,24.28,23.5,26h-8.91l-23-25.47v25.47h-7.62v-50.3h7.62V559Z"/><path class="cls-4" d="M696.57,585.73q-10.94,0-16.92-6.73t-6-19q0-12.62,6.08-19.51t17.33-6.88a34.38,34.38,0,0,1,7.25.78,23.43,23.43,0,0,1,5.69,1.84l-2.34,6.47a35.87,35.87,0,0,0-5.5-1.68,24.81,24.81,0,0,0-5.28-.66q-15.33,0-15.33,19.55,0,9.27,3.74,14.23t11.08,5a34,34,0,0,0,12.9-2.7v6.74Q704.22,585.74,696.57,585.73Z"/><path class="cls-4" d="M728.83,584.81h-7.62v-50.3h42.23v50.3h-7.71V541.12h-26.9Z"/><path class="cls-4" d="M803,585.73a21.75,21.75,0,0,1-9-1.81,16.82,16.82,0,0,1-6.81-5.58h-.56a67,67,0,0,1,.56,8.35v20.7H779.6V534.51h6.19l1.06,6.88h.37a17.71,17.71,0,0,1,6.83-6,20.86,20.86,0,0,1,9-1.83q10,0,15.45,6.84t5.44,19.18q0,12.4-5.53,19.26T803,585.73Zm-1.1-45.67q-7.71,0-11.15,4.27t-3.53,13.59v1.69q0,10.6,3.53,15.17t11.34,4.57a11.79,11.79,0,0,0,10.21-5.28q3.69-5.28,3.69-14.55t-3.69-14.43A12.16,12.16,0,0,0,801.9,540.06Z"/><path class="cls-4" d="M858.45,585.73q-11.16,0-17.6-6.79t-6.45-18.87q0-12.17,6-19.32t16.09-7.16q9.45,0,15,6.22T877,556.22V561H842.29q.24,8.85,4.48,13.44t12,4.59a40.57,40.57,0,0,0,16.06-3.39v6.79a40.13,40.13,0,0,1-7.64,2.5A42.62,42.62,0,0,1,858.45,585.73ZM856.38,540a12.46,12.46,0,0,0-9.66,3.95q-3.6,3.95-4.24,10.92h26.3q0-7.2-3.22-11T856.38,540Z"/><path class="cls-4" d="M910,585.73q-10.92,0-16.91-6.73t-6-19q0-12.62,6.08-19.51t17.32-6.88a34.47,34.47,0,0,1,7.26.78,23.73,23.73,0,0,1,5.69,1.84l-2.34,6.47a36,36,0,0,0-5.51-1.68,24.81,24.81,0,0,0-5.28-.66q-15.33,0-15.33,19.55,0,9.27,3.74,14.23t11.09,5a33.92,33.92,0,0,0,12.89-2.7v6.74Q917.71,585.74,910,585.73Z"/><path class="cls-4" d="M954.79,585.73q-10.92,0-16.91-6.73t-6-19q0-12.62,6.08-19.51t17.33-6.88a34.45,34.45,0,0,1,7.25.78,23.73,23.73,0,0,1,5.69,1.84l-2.34,6.47a36,36,0,0,0-5.51-1.68,24.81,24.81,0,0,0-5.28-.66q-15.33,0-15.33,19.55,0,9.27,3.74,14.23t11.09,5a33.92,33.92,0,0,0,12.89-2.7v6.74Q962.46,585.74,954.79,585.73Z"/><path class="cls-4" d="M846.79,1974.81H839v-67.1H876.4v6.93H846.79v24.55h27.82v6.94H846.79Z"/><path class="cls-4" d="M938.18,1907.71v43.42q0,11.47-6.93,18t-19,6.56q-12.12,0-18.75-6.61t-6.63-18.18v-43.23h7.8v43.79q0,8.38,4.59,12.89t13.49,4.5q8.49,0,13.08-4.52t4.59-13v-43.69Z"/><path class="cls-4" d="M1008.35,1974.81h-8.9l-36.67-56.32h-.37q.74,9.91.74,18.18v38.14h-7.21v-67.1h8.81l36.58,56.09h.37c-.06-.83-.2-3.48-.41-8s-.29-7.69-.23-9.61v-38.51h7.29Z"/><path class="cls-4" d="M1080.37,1940.62q0,16.61-9,25.4t-25.95,8.79h-18.59v-67.1h20.56q15.64,0,24.32,8.67T1080.37,1940.62Zm-8.26.27q0-13.12-6.59-19.78t-19.57-6.65h-11.34v53.6h9.5q14,0,21-6.86T1072.11,1940.89Z"/><path class="cls-4" d="M1137.51,1974.81l-8.35-21.34h-26.9l-8.26,21.34h-7.89l26.53-67.38h6.56l26.39,67.38Zm-10.78-28.36-7.81-20.8q-1.51-3.95-3.12-9.68a84.4,84.4,0,0,1-2.89,9.68l-7.89,20.8Z"/><path class="cls-4" d="M1171.89,1941.26l17.9-33.55h8.45l-22.4,41.08v26h-7.9v-25.66l-22.35-41.44h8.54Z"/><path class="cls-4" d="M1921.66,2147.81v-67.1h7.8v67.1Z"/><path class="cls-4" d="M1954.34,2147.81h-7.62v-71.42h7.62Z"/><path class="cls-4" d="M1991.75,2148.73q-11.16,0-17.6-6.79t-6.45-18.87q0-12.17,6-19.32t16.08-7.16q9.46,0,15,6.22t5.5,16.41V2124h-34.65q.23,8.85,4.48,13.44t12,4.59a40.62,40.62,0,0,0,16.07-3.39v6.79a40.36,40.36,0,0,1-7.64,2.5A42.68,42.68,0,0,1,1991.75,2148.73Zm-2.07-45.76a12.44,12.44,0,0,0-9.66,4q-3.6,3.95-4.25,10.92h26.3q0-7.2-3.21-11T1989.68,2103Z"/><path class="cls-4" d="M2081.89,2141.06h-.41q-5.28,7.67-15.79,7.67-9.87,0-15.35-6.75t-5.49-19.18q0-12.45,5.51-19.33t15.33-6.88q10.23,0,15.7,7.43h.59l-.32-3.62-.18-3.54v-20.47h7.62v71.42h-6.2Zm-15.24,1.29q7.8,0,11.32-4.25t3.51-13.7v-1.6q0-10.7-3.56-15.26t-11.36-4.57a11.67,11.67,0,0,0-10.26,5.21q-3.56,5.21-3.55,14.71t3.53,14.55Q2059.82,2142.35,2066.65,2142.35Z"/><path class="cls-4" d="M2126.51,2148.73q-11.16,0-17.61-6.79t-6.45-18.87q0-12.17,6-19.32t16.09-7.16q9.45,0,15,6.22t5.51,16.41V2124h-34.65q.22,8.85,4.47,13.44t12,4.59a40.62,40.62,0,0,0,16.07-3.39v6.79a40.44,40.44,0,0,1-7.65,2.5A42.51,42.51,0,0,1,2126.51,2148.73Zm-2.07-45.76a12.44,12.44,0,0,0-9.66,4q-3.6,3.95-4.25,10.92h26.3q0-7.2-3.21-11T2124.44,2103Z"/><path class="cls-4" d="M2205.82,2096.68q9.91,0,15.4,6.77t5.48,19.16q0,12.41-5.53,19.26t-15.35,6.86a21.69,21.69,0,0,1-9-1.81,16.85,16.85,0,0,1-6.82-5.58h-.55l-1.61,6.47h-5.46v-71.42H2190v17.35q0,5.84-.37,10.47h.37Q2195.35,2096.68,2205.82,2096.68Zm-1.1,6.38c-5.21,0-8.95,1.49-11.25,4.48s-3.44,8-3.44,15.07,1.18,12.13,3.53,15.17,6.14,4.57,11.34,4.57q7,0,10.46-5.12t3.45-14.71q0-9.83-3.45-14.64T2204.72,2103.06Z"/><path class="cls-4" d="M2261.26,2148.73q-11.15,0-17.6-6.79t-6.45-18.87q0-12.17,6-19.32t16.09-7.16q9.45,0,15,6.22t5.51,16.41V2124h-34.65q.22,8.85,4.47,13.44t12,4.59a40.57,40.57,0,0,0,16.06-3.39v6.79a40.13,40.13,0,0,1-7.64,2.5A42.55,42.55,0,0,1,2261.26,2148.73ZM2259.2,2103a12.44,12.44,0,0,0-9.66,4q-3.61,3.95-4.25,10.92h26.3q0-7.2-3.21-11C2266.23,2104.25,2263.18,2103,2259.2,2103Z"/><path class="cls-4" d="M2323.69,2147.81l-1.52-7.16h-.37a21.13,21.13,0,0,1-7.5,6.4,22.85,22.85,0,0,1-9.34,1.68q-7.49,0-11.73-3.86t-4.24-11q0-15.22,24.37-16l8.54-.27v-3.12q0-5.92-2.55-8.75t-8.15-2.82q-6.28,0-14.23,3.85l-2.34-5.82a36.63,36.63,0,0,1,17-4.32q9,0,13.33,4c2.89,2.67,4.34,6.93,4.34,12.81v34.33Zm-17.22-5.37q7.13,0,11.18-3.9t4.06-10.92v-4.55l-7.62.32q-9.09.33-13.1,2.83c-2.68,1.66-4,4.26-4,7.78a7.85,7.85,0,0,0,2.5,6.28A10.38,10.38,0,0,0,2306.47,2142.44Z"/><path class="cls-4" d="M2352.19,2097.51v32.63q0,6.15,2.8,9.18c1.86,2,4.79,3,8.76,3q7.9,0,11.55-4.31t3.65-14.1v-26.43h7.62v50.3h-6.29l-1.1-6.75h-.42a15.2,15.2,0,0,1-6.49,5.7,21.92,21.92,0,0,1-9.48,2q-9.18,0-13.75-4.36t-4.56-13.95v-32.91Z"/><path class="cls-4" d="M2419,2142.44a24.66,24.66,0,0,0,3.9-.3,23.85,23.85,0,0,0,3-.62v5.83a13.74,13.74,0,0,1-3.64,1,27.53,27.53,0,0,1-4.34.39q-14.6,0-14.6-15.38v-29.92h-7.2v-3.67l7.2-3.17,3.22-10.74h4.4v11.66h14.6v5.92h-14.6V2133q0,4.54,2.16,7A7.51,7.51,0,0,0,2419,2142.44Z"/><path class="cls-4" d="M2457.16,2148.73q-11.16,0-17.6-6.79t-6.45-18.87q0-12.17,6-19.32t16.08-7.16q9.46,0,15,6.22t5.5,16.41V2124H2441q.23,8.85,4.48,13.44t11.95,4.59a40.62,40.62,0,0,0,16.07-3.39v6.79a40.36,40.36,0,0,1-7.64,2.5A42.68,42.68,0,0,1,2457.16,2148.73Zm-2.07-45.76a12.44,12.44,0,0,0-9.66,4q-3.6,3.95-4.24,10.92h26.29q0-7.2-3.21-11T2455.09,2103Z"/><path class="cls-4" d="M1407.67,78.87,1401.58,63h-.1c.12,1.26.18,2.75.18,4.49V78.87h-1.93v-18h3.14l5.68,14.8h.1l5.74-14.8h3.11v18h-2.08V67.3c0-1.32,0-2.76.17-4.32h-.1l-6.14,15.89Z"/><path class="cls-4" d="M1424.16,65.41v5.64h7.53V65.41h2V78.87h-2V72.8h-7.53v6.07h-2V65.41Z"/><path class="cls-4" d="M1449.67,72.13a7.43,7.43,0,0,1-1.66,5.13,5.82,5.82,0,0,1-4.58,1.85,6,6,0,0,1-3.2-.85,5.45,5.45,0,0,1-2.16-2.43,8.4,8.4,0,0,1-.77-3.7A7.39,7.39,0,0,1,1439,67a5.83,5.83,0,0,1,4.57-1.83A5.68,5.68,0,0,1,1448,67,7.42,7.42,0,0,1,1449.67,72.13Zm-10.25,0a6.36,6.36,0,0,0,1,3.92,3.53,3.53,0,0,0,3,1.35,3.6,3.6,0,0,0,3-1.34,6.37,6.37,0,0,0,1-3.93,6.28,6.28,0,0,0-1-3.9,3.65,3.65,0,0,0-3.07-1.33,3.58,3.58,0,0,0-3,1.31A6.33,6.33,0,0,0,1439.42,72.13Z"/><path class="cls-4" d="M1461.34,67.15h-6.06V78.87h-2V65.41h8.1Z"/><path class="cls-4" d="M1475.62,72.13a7.43,7.43,0,0,1-1.66,5.13,5.82,5.82,0,0,1-4.58,1.85,6,6,0,0,1-3.2-.85,5.45,5.45,0,0,1-2.16-2.43,8.4,8.4,0,0,1-.77-3.7A7.39,7.39,0,0,1,1464.9,67a5.83,5.83,0,0,1,4.57-1.83A5.68,5.68,0,0,1,1474,67,7.42,7.42,0,0,1,1475.62,72.13Zm-10.25,0a6.36,6.36,0,0,0,1,3.92,3.53,3.53,0,0,0,3,1.35,3.6,3.6,0,0,0,3-1.34,6.37,6.37,0,0,0,1-3.93,6.28,6.28,0,0,0-1-3.9,3.65,3.65,0,0,0-3.07-1.33,3.58,3.58,0,0,0-3,1.31A6.4,6.4,0,0,0,1465.37,72.13Z"/><path class="cls-4" d="M1494,78.87,1487.88,63h-.1c.11,1.26.17,2.75.17,4.49V78.87H1486v-18h3.14l5.68,14.8h.1l5.73-14.8h3.12v18h-2.09V67.3c0-1.32.06-2.76.17-4.32h-.09l-6.14,15.89Z"/><path class="cls-4" d="M1514.1,79.11a6.15,6.15,0,0,1-4.71-1.82,7,7,0,0,1-1.72-5,7.8,7.8,0,0,1,1.6-5.17,5.31,5.31,0,0,1,4.3-1.91,5.06,5.06,0,0,1,4,1.66,6.34,6.34,0,0,1,1.48,4.39v1.29h-9.27a5.28,5.28,0,0,0,1.2,3.59,4.11,4.11,0,0,0,3.19,1.23,10.79,10.79,0,0,0,4.3-.91v1.82a11.26,11.26,0,0,1-2,.67A12,12,0,0,1,1514.1,79.11Zm-.55-12.24a3.33,3.33,0,0,0-2.59,1.06,4.85,4.85,0,0,0-1.13,2.92h7a4.42,4.42,0,0,0-.86-2.95A3,3,0,0,0,1513.55,66.87Z"/><path class="cls-4" d="M1521.82,70.8a15,15,0,0,1,1.3-6.89,5.83,5.83,0,0,1,4.13-3.09c2.34-.5,4.4-.9,6.18-1.22l.38,1.8c-2.84.47-4.86.85-6.08,1.13a4,4,0,0,0-2.67,1.91,8.64,8.64,0,0,0-1,4.11h.15a5.37,5.37,0,0,1,2-1.62,5.69,5.69,0,0,1,2.52-.59,4.82,4.82,0,0,1,3.86,1.61,6.58,6.58,0,0,1,1.39,4.46,7.06,7.06,0,0,1-1.61,4.93,5.74,5.74,0,0,1-4.48,1.77,5.21,5.21,0,0,1-4.44-2.17A10.19,10.19,0,0,1,1521.82,70.8Zm6.24,6.6q3.74,0,3.74-4.77c0-3-1.13-4.55-3.4-4.55a4.34,4.34,0,0,0-1.8.38,6.23,6.23,0,0,0-1.58,1,5.27,5.27,0,0,0-1.11,1.31,9.65,9.65,0,0,0,1,4.92A3.41,3.41,0,0,0,1528.06,77.4Z"/><path class="cls-4" d="M1543.19,79.11a6.12,6.12,0,0,1-4.7-1.82,7,7,0,0,1-1.73-5,7.8,7.8,0,0,1,1.6-5.17,5.31,5.31,0,0,1,4.31-1.91,5.08,5.08,0,0,1,4,1.66,6.38,6.38,0,0,1,1.47,4.39v1.29h-9.27a5.28,5.28,0,0,0,1.2,3.59,4.14,4.14,0,0,0,3.2,1.23,10.74,10.74,0,0,0,4.29-.91v1.82a11.26,11.26,0,0,1-2,.67A11.89,11.89,0,0,1,1543.19,79.11Zm-.55-12.24a3.3,3.3,0,0,0-2.58,1.06,4.85,4.85,0,0,0-1.14,2.92h7a4.47,4.47,0,0,0-.86-2.95A3,3,0,0,0,1542.64,66.87Z"/><path class="cls-4" d="M1561.64,78.87h-2.06V67.15h-4a49.15,49.15,0,0,1-.92,6.94,9.64,9.64,0,0,1-1.53,3.76,2.91,2.91,0,0,1-2.38,1.19,3,3,0,0,1-1.06-.15V77.38a2.27,2.27,0,0,0,.61.07c.94,0,1.69-1,2.25-3a48.48,48.48,0,0,0,1.26-9.06h7.87Z"/><path class="cls-4" d="M1567.88,65.41v8.53l-.09,2.24,0,.7L1575,65.41h2.54V78.87h-1.91V70.64l0-1.62.06-1.6-7.27,11.45H1566V65.41Z"/><path class="cls-4" d="M1435.83,203.4v7.47h-2.09v-18h4.92a7.77,7.77,0,0,1,4.88,1.26,4.6,4.6,0,0,1,1.58,3.81,4.77,4.77,0,0,1-3.61,4.81l4.87,8.07h-2.47l-4.34-7.47Zm0-1.79h2.85a4.93,4.93,0,0,0,3.25-.88,3.28,3.28,0,0,0,1-2.63,3,3,0,0,0-1-2.57,5.73,5.73,0,0,0-3.37-.78h-2.71Z"/><path class="cls-4" d="M1454.66,211.11a6.15,6.15,0,0,1-4.71-1.82,7,7,0,0,1-1.73-5,7.8,7.8,0,0,1,1.61-5.17,5.29,5.29,0,0,1,4.3-1.91,5.07,5.07,0,0,1,4,1.66,6.38,6.38,0,0,1,1.47,4.39v1.29h-9.27a5.33,5.33,0,0,0,1.2,3.59,4.14,4.14,0,0,0,3.2,1.23,10.79,10.79,0,0,0,4.3-.91v1.82a11.34,11.34,0,0,1-2,.67A11.86,11.86,0,0,1,1454.66,211.11Zm-.56-12.24a3.3,3.3,0,0,0-2.58,1.06,4.91,4.91,0,0,0-1.14,2.92h7a4.47,4.47,0,0,0-.86-2.95A3,3,0,0,0,1454.1,198.87Z"/><path class="cls-4" d="M1472.23,209.06h-.11a4.78,4.78,0,0,1-4.22,2.05,5,5,0,0,1-4.11-1.8,9.78,9.78,0,0,1,0-10.3,5,5,0,0,1,4.1-1.84,4.89,4.89,0,0,1,4.2,2h.16l-.09-1-.05-.94v-5.48h2v19.11h-1.66Zm-4.07.34a3.68,3.68,0,0,0,3-1.13,5.73,5.73,0,0,0,.94-3.67v-.43a6.73,6.73,0,0,0-.95-4.08,3.61,3.61,0,0,0-3-1.22,3.12,3.12,0,0,0-2.74,1.4,6.94,6.94,0,0,0-1,3.93,6.63,6.63,0,0,0,.94,3.89A3.2,3.2,0,0,0,1468.16,209.4Z"/><path class="cls-4" d="M1495.63,210.87v-8.76a3.63,3.63,0,0,0-.69-2.41,2.66,2.66,0,0,0-2.13-.8A3.43,3.43,0,0,0,1490,200a5.17,5.17,0,0,0-.91,3.36v7.52h-2v-8.76a3.63,3.63,0,0,0-.69-2.41,2.67,2.67,0,0,0-2.14-.8,3.34,3.34,0,0,0-2.81,1.14,6.26,6.26,0,0,0-.89,3.77v7.06h-2V197.41h1.66l.33,1.84h.1a4,4,0,0,1,1.63-1.53,4.94,4.94,0,0,1,2.35-.55c2.1,0,3.48.76,4.12,2.28h.1a4.31,4.31,0,0,1,1.74-1.67,5.41,5.41,0,0,1,2.61-.61,4.53,4.53,0,0,1,3.41,1.17,5.23,5.23,0,0,1,1.14,3.75v8.78Z"/><path class="cls-4" d="M1513.48,204.13a7.38,7.38,0,0,1-1.66,5.13,5.8,5.8,0,0,1-4.58,1.85,6,6,0,0,1-3.2-.85,5.57,5.57,0,0,1-2.16-2.43,8.4,8.4,0,0,1-.76-3.7,7.44,7.44,0,0,1,1.64-5.13,5.83,5.83,0,0,1,4.57-1.83,5.7,5.7,0,0,1,4.49,1.87A7.41,7.41,0,0,1,1513.48,204.13Zm-10.25,0a6.36,6.36,0,0,0,1,3.92,4.1,4.1,0,0,0,6.07,0,6.37,6.37,0,0,0,1-3.93,6.27,6.27,0,0,0-1-3.9,3.63,3.63,0,0,0-3.06-1.33,3.57,3.57,0,0,0-3,1.31A6.33,6.33,0,0,0,1503.23,204.13Z"/><path class="cls-4" d="M1526.26,210.87v-8.71a3.5,3.5,0,0,0-.75-2.45,3,3,0,0,0-2.34-.81,3.89,3.89,0,0,0-3.1,1.14,5.8,5.8,0,0,0-1,3.77v7.06h-2V197.41h1.66l.33,1.84h.1a4.24,4.24,0,0,1,1.75-1.54,5.81,5.81,0,0,1,2.52-.54,5.13,5.13,0,0,1,3.66,1.17,5,5,0,0,1,1.23,3.75v8.78Z"/><path class="cls-4" d="M1541.64,209.06h-.11a4.78,4.78,0,0,1-4.22,2.05,5,5,0,0,1-4.11-1.8,9.73,9.73,0,0,1,0-10.3,5.47,5.47,0,0,1,8.3.14h.16l-.09-1,0-.94v-5.48h2v19.11h-1.66Zm-4.08.34a3.7,3.7,0,0,0,3-1.13,5.73,5.73,0,0,0,.94-3.67v-.43a6.8,6.8,0,0,0-1-4.08,3.64,3.64,0,0,0-3-1.22,3.12,3.12,0,0,0-2.74,1.4,6.86,6.86,0,0,0-1,3.93,6.63,6.63,0,0,0,.94,3.89A3.19,3.19,0,0,0,1537.56,209.4Z"/><path class="cls-4" d="M1426.36,525.87h-2.09v-16.1h-5.68v-1.85H1432v1.85h-5.68Z"/><path class="cls-4" d="M1446.05,519.13a7.38,7.38,0,0,1-1.66,5.13,5.8,5.8,0,0,1-4.58,1.85,6,6,0,0,1-3.2-.85,5.57,5.57,0,0,1-2.16-2.43,8.4,8.4,0,0,1-.76-3.7,7.44,7.44,0,0,1,1.64-5.13,5.83,5.83,0,0,1,4.57-1.83,5.7,5.7,0,0,1,4.49,1.87A7.41,7.41,0,0,1,1446.05,519.13Zm-10.25,0a6.36,6.36,0,0,0,1,3.92,4.1,4.1,0,0,0,6.07,0,6.37,6.37,0,0,0,1-3.93,6.27,6.27,0,0,0-1-3.9,3.63,3.63,0,0,0-3.06-1.33,3.57,3.57,0,0,0-3,1.31A6.33,6.33,0,0,0,1435.8,519.13Z"/><path class="cls-4" d="M1455.88,512.19A5,5,0,0,1,1460,514a9.69,9.69,0,0,1,0,10.28,5,5,0,0,1-4.11,1.83,5.91,5.91,0,0,1-2.4-.48,4.53,4.53,0,0,1-1.82-1.5h-.15l-.43,1.74h-1.46V506.76h2v4.64c0,1,0,2-.1,2.8h.1A4.84,4.84,0,0,1,1455.88,512.19Zm-.29,1.71a3.58,3.58,0,0,0-3,1.19,6.81,6.81,0,0,0-.92,4,6.7,6.7,0,0,0,.95,4,3.58,3.58,0,0,0,3,1.22,3.15,3.15,0,0,0,2.8-1.36,7.11,7.11,0,0,0,.92-3.94,6.75,6.75,0,0,0-.92-3.91A3.28,3.28,0,0,0,1455.59,513.9Z"/><path class="cls-4" d="M1473.3,525.87l-.4-1.92h-.1a5.67,5.67,0,0,1-2,1.71,6.08,6.08,0,0,1-2.5.45,4.46,4.46,0,0,1-3.13-1,3.75,3.75,0,0,1-1.14-2.93c0-2.72,2.18-4.15,6.52-4.28l2.28-.07V517a3.37,3.37,0,0,0-.68-2.34,2.77,2.77,0,0,0-2.18-.76,8.94,8.94,0,0,0-3.8,1l-.63-1.56a9.49,9.49,0,0,1,2.18-.84,9.2,9.2,0,0,1,2.38-.31,5.12,5.12,0,0,1,3.56,1.07,4.42,4.42,0,0,1,1.16,3.42v9.19Zm-4.6-1.44a4.17,4.17,0,0,0,3-1,3.89,3.89,0,0,0,1.08-2.93v-1.21l-2,.08a7.43,7.43,0,0,0-3.51.76,2.29,2.29,0,0,0-1.07,2.08,2.07,2.07,0,0,0,.67,1.68A2.74,2.74,0,0,0,1468.7,524.43Z"/><path class="cls-4" d="M1484.39,526.11a5.75,5.75,0,0,1-4.53-1.8,7.43,7.43,0,0,1-1.6-5.09,7.57,7.57,0,0,1,1.63-5.21,5.84,5.84,0,0,1,4.63-1.84,9.75,9.75,0,0,1,1.94.2,6.11,6.11,0,0,1,1.52.5l-.62,1.73a9.76,9.76,0,0,0-1.47-.45,6.63,6.63,0,0,0-1.42-.18q-4.1,0-4.1,5.23a6.25,6.25,0,0,0,1,3.8,3.48,3.48,0,0,0,3,1.33,9.12,9.12,0,0,0,3.45-.72v1.8A7.32,7.32,0,0,1,1484.39,526.11Z"/><path class="cls-4" d="M1496.36,526.11a5.75,5.75,0,0,1-4.53-1.8,7.38,7.38,0,0,1-1.6-5.09,7.57,7.57,0,0,1,1.63-5.21,5.84,5.84,0,0,1,4.63-1.84,9.83,9.83,0,0,1,1.94.2,6.26,6.26,0,0,1,1.52.5l-.62,1.73a9.55,9.55,0,0,0-1.48-.45,6.47,6.47,0,0,0-1.41-.18q-4.1,0-4.1,5.23a6.25,6.25,0,0,0,1,3.8,3.48,3.48,0,0,0,3,1.33,9.12,9.12,0,0,0,3.45-.72v1.8A7.32,7.32,0,0,1,1496.36,526.11Z"/><path class="cls-4" d="M1514.56,519.13a7.38,7.38,0,0,1-1.66,5.13,5.8,5.8,0,0,1-4.57,1.85,6,6,0,0,1-3.21-.85,5.57,5.57,0,0,1-2.16-2.43,8.4,8.4,0,0,1-.76-3.7,7.44,7.44,0,0,1,1.64-5.13,5.83,5.83,0,0,1,4.57-1.83,5.7,5.7,0,0,1,4.49,1.87A7.41,7.41,0,0,1,1514.56,519.13Zm-10.25,0a6.43,6.43,0,0,0,1,3.92,4.1,4.1,0,0,0,6.07,0,6.37,6.37,0,0,0,1-3.93,6.27,6.27,0,0,0-1-3.9,3.63,3.63,0,0,0-3.06-1.33,3.58,3.58,0,0,0-3,1.31A6.33,6.33,0,0,0,1504.31,519.13Z"/><path class="cls-4" d="M1527.34,525.87v-8.71a3.5,3.5,0,0,0-.75-2.45,3,3,0,0,0-2.34-.81,3.89,3.89,0,0,0-3.1,1.14,5.8,5.8,0,0,0-1,3.77v7.06h-2V512.41h1.66l.33,1.84h.1a4.2,4.2,0,0,1,1.76-1.54,5.74,5.74,0,0,1,2.51-.54,5.13,5.13,0,0,1,3.66,1.17,5,5,0,0,1,1.23,3.75v8.78Z"/><path class="cls-4" d="M1533.39,508.77a1.36,1.36,0,0,1,.35-1,1.15,1.15,0,0,1,.85-.32,1.21,1.21,0,0,1,.85.33,1.32,1.32,0,0,1,.36,1,1.33,1.33,0,0,1-.36,1,1.18,1.18,0,0,1-.85.34,1.13,1.13,0,0,1-.85-.34A1.37,1.37,0,0,1,1533.39,508.77Zm2.21,17.1h-2V512.41h2Z"/><path class="cls-4" d="M1548.6,522.2a3.37,3.37,0,0,1-1.4,2.89,6.56,6.56,0,0,1-3.93,1,8.48,8.48,0,0,1-4.17-.85v-1.89a10.14,10.14,0,0,0,2.08.78,9.05,9.05,0,0,0,2.14.28,4.85,4.85,0,0,0,2.46-.51,1.76,1.76,0,0,0,.18-2.9,11,11,0,0,0-2.66-1.32,14,14,0,0,1-2.67-1.22,3.68,3.68,0,0,1-1.18-1.18,3.07,3.07,0,0,1-.39-1.59,3,3,0,0,1,1.34-2.59,6.2,6.2,0,0,1,3.67-1,10.72,10.72,0,0,1,4.25.88l-.73,1.66a9.68,9.68,0,0,0-3.67-.84,4.14,4.14,0,0,0-2.18.46,1.41,1.41,0,0,0-.74,1.25,1.48,1.48,0,0,0,.28.92,2.73,2.73,0,0,0,.89.72,20.14,20.14,0,0,0,2.36,1,8.8,8.8,0,0,1,3.23,1.75A3.11,3.11,0,0,1,1548.6,522.2Z"/><path class="cls-4" d="M1556.26,524.43a7,7,0,0,0,1-.08,5.36,5.36,0,0,0,.8-.17v1.56a3.51,3.51,0,0,1-1,.27,7.27,7.27,0,0,1-1.16.1q-3.92,0-3.91-4.11v-8h-1.92v-1l1.92-.84.86-2.88h1.18v3.12h3.9V514h-3.9v7.91a2.72,2.72,0,0,0,.58,1.87A2,2,0,0,0,1556.26,524.43Z"/><path class="cls-4" d="M1973.13,423.87h-10V405.92h10v1.85h-7.92v5.78h7.44v1.85h-7.44V422h7.92Z"/><path class="cls-4" d="M1978.83,423.87h-2V404.76h2Z"/><path class="cls-4" d="M1983,406.77a1.36,1.36,0,0,1,.35-1,1.18,1.18,0,0,1,.86-.32,1.2,1.2,0,0,1,.84.33,1.32,1.32,0,0,1,.36,1,1.33,1.33,0,0,1-.36,1,1.17,1.17,0,0,1-.84.34,1.15,1.15,0,0,1-.86-.34A1.37,1.37,0,0,1,1983,406.77Zm2.21,17.1h-2V410.41h2Z"/><path class="cls-4" d="M1998.19,420.2a3.34,3.34,0,0,1-1.4,2.89,6.56,6.56,0,0,1-3.93,1,8.48,8.48,0,0,1-4.17-.85v-1.89a10.14,10.14,0,0,0,2.08.78,9.12,9.12,0,0,0,2.14.28,4.85,4.85,0,0,0,2.46-.51,1.76,1.76,0,0,0,.18-2.9,11,11,0,0,0-2.66-1.32,14,14,0,0,1-2.67-1.22,3.68,3.68,0,0,1-1.18-1.18,3.07,3.07,0,0,1-.39-1.59,3,3,0,0,1,1.34-2.59,6.2,6.2,0,0,1,3.67-.95,10.72,10.72,0,0,1,4.25.88l-.72,1.66a9.77,9.77,0,0,0-3.68-.84,4.14,4.14,0,0,0-2.18.46,1.41,1.41,0,0,0-.74,1.25,1.55,1.55,0,0,0,.28.92,2.73,2.73,0,0,0,.89.72,20.14,20.14,0,0,0,2.36,1,8.8,8.8,0,0,1,3.23,1.75A3.11,3.11,0,0,1,1998.19,420.2Z"/><path class="cls-4" d="M2214.56,544.09a4.41,4.41,0,0,1-1.72,3.7,7.46,7.46,0,0,1-4.66,1.32,11.64,11.64,0,0,1-4.91-.82v-2a13.19,13.19,0,0,0,2.4.73,12.71,12.71,0,0,0,2.58.27,5.23,5.23,0,0,0,3.15-.79,2.6,2.6,0,0,0,1-2.2,2.84,2.84,0,0,0-.37-1.53,3.49,3.49,0,0,0-1.26-1.1,16.17,16.17,0,0,0-2.67-1.14,8.45,8.45,0,0,1-3.57-2.13,4.64,4.64,0,0,1-1.08-3.2,4,4,0,0,1,1.56-3.3,6.49,6.49,0,0,1,4.13-1.23,12.24,12.24,0,0,1,4.92,1l-.65,1.82a11.14,11.14,0,0,0-4.32-.93,4.13,4.13,0,0,0-2.59.71,2.32,2.32,0,0,0-.94,2,3,3,0,0,0,.35,1.53,3.25,3.25,0,0,0,1.16,1.1,14.3,14.3,0,0,0,2.49,1.09,10.11,10.11,0,0,1,3.89,2.16A4.25,4.25,0,0,1,2214.56,544.09Z"/><path class="cls-4" d="M2227.13,548.87v-8.71a3.5,3.5,0,0,0-.75-2.45,3,3,0,0,0-2.34-.81,3.83,3.83,0,0,0-3.1,1.15,5.85,5.85,0,0,0-1,3.78v7h-2V529.76h2v5.79a11.94,11.94,0,0,1-.1,1.73h.13a4.11,4.11,0,0,1,1.71-1.53,5.62,5.62,0,0,1,2.54-.56,5.22,5.22,0,0,1,3.7,1.17,5,5,0,0,1,1.23,3.73v8.78Z"/><path class="cls-4" d="M2241.63,548.87l-.4-1.92h-.1a5.67,5.67,0,0,1-2,1.71,6.11,6.11,0,0,1-2.5.45,4.5,4.5,0,0,1-3.14-1,3.78,3.78,0,0,1-1.13-2.93q0-4.08,6.52-4.28l2.28-.07V540a3.42,3.42,0,0,0-.68-2.34,2.77,2.77,0,0,0-2.18-.76,8.94,8.94,0,0,0-3.8,1l-.63-1.56a9.31,9.31,0,0,1,2.18-.84,9.18,9.18,0,0,1,2.37-.31,5.13,5.13,0,0,1,3.57,1.07,4.46,4.46,0,0,1,1.16,3.42v9.19Zm-4.6-1.44a4.17,4.17,0,0,0,3-1,3.89,3.89,0,0,0,1.08-2.93v-1.21l-2,.08a7.38,7.38,0,0,0-3.5.76,2.27,2.27,0,0,0-1.07,2.08,2.1,2.1,0,0,0,.66,1.68A2.78,2.78,0,0,0,2237,547.43Z"/><path class="cls-4" d="M2251.68,547.43a7.2,7.2,0,0,0,1.05-.08,6,6,0,0,0,.8-.17v1.56a3.6,3.6,0,0,1-1,.27,7.27,7.27,0,0,1-1.16.1q-3.9,0-3.9-4.11v-8h-1.93v-1l1.93-.84.86-2.88h1.17v3.12h3.91V537h-3.91v7.91a2.77,2.77,0,0,0,.58,1.87A2,2,0,0,0,2251.68,547.43Z"/><path class="cls-4" d="M2260.56,547.43a7,7,0,0,0,1-.08,5.65,5.65,0,0,0,.8-.17v1.56a3.6,3.6,0,0,1-1,.27,7.06,7.06,0,0,1-1.15.1q-3.92,0-3.91-4.11v-8h-1.93v-1l1.93-.84.86-2.88h1.18v3.12h3.9V537h-3.9v7.91a2.72,2.72,0,0,0,.58,1.87A2,2,0,0,0,2260.56,547.43Z"/><path class="cls-4" d="M2270.77,549.11a6.15,6.15,0,0,1-4.71-1.82,7,7,0,0,1-1.72-5,7.8,7.8,0,0,1,1.6-5.17,5.31,5.31,0,0,1,4.3-1.91,5.09,5.09,0,0,1,4,1.66,6.38,6.38,0,0,1,1.47,4.39v1.29h-9.27a5.28,5.28,0,0,0,1.2,3.59,4.12,4.12,0,0,0,3.2,1.23,10.74,10.74,0,0,0,4.29-.91v1.82a11.26,11.26,0,0,1-2,.67A11.89,11.89,0,0,1,2270.77,549.11Zm-.55-12.24a3.3,3.3,0,0,0-2.58,1.06,4.79,4.79,0,0,0-1.14,2.92h7a4.47,4.47,0,0,0-.85-3A3,3,0,0,0,2270.22,536.87Z"/><path class="cls-4" d="M2492.08,446.72c0,3-.81,5.23-2.41,6.79s-3.93,2.36-6.94,2.36h-5V437.92h5.5a8.06,8.06,0,0,1,8.83,8.8Zm-2.21.07a7.25,7.25,0,0,0-1.76-5.29,7.1,7.1,0,0,0-5.24-1.78h-3v14.34h2.54q3.73,0,5.61-1.83A7.3,7.3,0,0,0,2489.87,446.79Z"/><path class="cls-4" d="M2510.1,455.87h-2.38l-9.81-15.07h-.1c.13,1.77.2,3.39.2,4.86v10.21h-1.93V437.92h2.36l9.78,15h.1c0-.22-.05-.93-.11-2.13s-.08-2.06-.06-2.57v-10.3h1.95Z"/><path class="cls-4" d="M2525.16,451.09a4.41,4.41,0,0,1-1.72,3.7,7.46,7.46,0,0,1-4.66,1.32,11.64,11.64,0,0,1-4.91-.82v-2a13,13,0,0,0,2.4.73,12.71,12.71,0,0,0,2.58.27,5.17,5.17,0,0,0,3.14-.79,2.58,2.58,0,0,0,1.06-2.2,2.84,2.84,0,0,0-.37-1.53,3.49,3.49,0,0,0-1.26-1.1,16.17,16.17,0,0,0-2.67-1.14,8.45,8.45,0,0,1-3.57-2.13,4.64,4.64,0,0,1-1.08-3.2,4,4,0,0,1,1.56-3.3,6.46,6.46,0,0,1,4.12-1.23,12.26,12.26,0,0,1,4.93,1l-.65,1.82a11.14,11.14,0,0,0-4.32-.93,4.13,4.13,0,0,0-2.59.71,2.32,2.32,0,0,0-.94,2,3,3,0,0,0,.35,1.53,3.25,3.25,0,0,0,1.16,1.1,14.3,14.3,0,0,0,2.49,1.09,10.11,10.11,0,0,1,3.89,2.16A4.25,4.25,0,0,1,2525.16,451.09Z"/><path class="cls-4" d="M2545.49,451.09a4.41,4.41,0,0,1-1.72,3.7,7.46,7.46,0,0,1-4.66,1.32,11.64,11.64,0,0,1-4.91-.82v-2a13.38,13.38,0,0,0,5,1,5.17,5.17,0,0,0,3.14-.79,2.58,2.58,0,0,0,1.06-2.2,2.84,2.84,0,0,0-.38-1.53,3.45,3.45,0,0,0-1.25-1.1,16.17,16.17,0,0,0-2.67-1.14,8.56,8.56,0,0,1-3.58-2.13,4.69,4.69,0,0,1-1.07-3.2,4,4,0,0,1,1.56-3.3,6.46,6.46,0,0,1,4.12-1.23,12.26,12.26,0,0,1,4.93,1l-.65,1.82a11.23,11.23,0,0,0-4.33-.93,4.17,4.17,0,0,0-2.59.71,2.33,2.33,0,0,0-.93,2,3.1,3.1,0,0,0,.34,1.53,3.34,3.34,0,0,0,1.16,1.1,14.84,14.84,0,0,0,2.5,1.09,10.11,10.11,0,0,1,3.89,2.16A4.25,4.25,0,0,1,2545.49,451.09Z"/><path class="cls-4" d="M2558.06,455.87v-8.71a3.5,3.5,0,0,0-.75-2.45,3,3,0,0,0-2.34-.81,3.83,3.83,0,0,0-3.1,1.15,5.85,5.85,0,0,0-1,3.78v7h-2V436.76h2v5.79a11.94,11.94,0,0,1-.1,1.73h.13a4.11,4.11,0,0,1,1.71-1.53,5.57,5.57,0,0,1,2.53-.56,5.18,5.18,0,0,1,3.7,1.17,4.92,4.92,0,0,1,1.24,3.73v8.78Z"/><path class="cls-4" d="M2575.9,449.13a7.43,7.43,0,0,1-1.66,5.13,5.8,5.8,0,0,1-4.58,1.85,6,6,0,0,1-3.2-.85,5.45,5.45,0,0,1-2.16-2.43,8.4,8.4,0,0,1-.76-3.7,7.39,7.39,0,0,1,1.64-5.13,5.83,5.83,0,0,1,4.57-1.83,5.68,5.68,0,0,1,4.48,1.87A7.42,7.42,0,0,1,2575.9,449.13Zm-10.25,0a6.36,6.36,0,0,0,1,3.92,3.56,3.56,0,0,0,3,1.35,3.6,3.6,0,0,0,3-1.34,6.37,6.37,0,0,0,1-3.93,6.27,6.27,0,0,0-1-3.9,3.63,3.63,0,0,0-3.06-1.33,3.57,3.57,0,0,0-3,1.31A6.33,6.33,0,0,0,2565.65,449.13Z"/><path class="cls-4" d="M2585.73,456.11a5.85,5.85,0,0,1-2.4-.48,4.46,4.46,0,0,1-1.82-1.5h-.15a17.92,17.92,0,0,1,.15,2.24v5.54h-2v-19.5h1.66l.28,1.84h.1a4.65,4.65,0,0,1,1.83-1.59,5.49,5.49,0,0,1,2.39-.49,5,5,0,0,1,4.13,1.83,9.78,9.78,0,0,1,0,10.28A5,5,0,0,1,2585.73,456.11Zm-.29-12.21a3.62,3.62,0,0,0-3,1.14,5.85,5.85,0,0,0-.94,3.63v.46a6.71,6.71,0,0,0,.94,4.05,3.58,3.58,0,0,0,3,1.22,3.16,3.16,0,0,0,2.74-1.41,6.76,6.76,0,0,0,1-3.89,6.51,6.51,0,0,0-1-3.86A3.24,3.24,0,0,0,2585.44,443.9Z"/><path class="cls-4" d="M2576.5,659a5.83,5.83,0,0,0-4.67,2,7.89,7.89,0,0,0-1.72,5.39,8.12,8.12,0,0,0,1.65,5.45,5.87,5.87,0,0,0,4.71,1.92,16.19,16.19,0,0,0,4.29-.68v1.83a13.15,13.15,0,0,1-4.61.7,7.81,7.81,0,0,1-6.12-2.4,10,10,0,0,1-2.15-6.84,10.67,10.67,0,0,1,1-4.86,7.46,7.46,0,0,1,3-3.22,9.1,9.1,0,0,1,4.61-1.13,11.12,11.12,0,0,1,4.94,1l-.89,1.79A9.63,9.63,0,0,0,2576.5,659Z"/><path class="cls-4" d="M2595.28,665.29a2.52,2.52,0,0,1-.76,2,4.12,4.12,0,0,1-2.11.92v.11a4.39,4.39,0,0,1,2.51,1,2.89,2.89,0,0,1,.79,2.14,3.4,3.4,0,0,1-1.38,2.9,6.75,6.75,0,0,1-4,1h-5.93V661.91h5.91Q2595.28,661.91,2595.28,665.29Zm-2,.19a1.44,1.44,0,0,0-.76-1.39,5,5,0,0,0-2.28-.41h-3.85v3.79h3.45a5.56,5.56,0,0,0,2.67-.46A1.66,1.66,0,0,0,2593.29,665.48Zm.38,5.83a1.74,1.74,0,0,0-.83-1.59,5.63,5.63,0,0,0-2.74-.49h-3.7v4.43h3.75C2592.5,673.66,2593.67,672.88,2593.67,671.31Z"/><path class="cls-4" d="M2599.34,675.37H2597l3.87-5.69a4.16,4.16,0,0,1-2.39-1.33,3.76,3.76,0,0,1-.83-2.49,3.58,3.58,0,0,1,1.24-2.89,5.15,5.15,0,0,1,3.46-1.06h6v13.46h-2V670h-3.4Zm.26-9.48c0,1.55,1.13,2.33,3.39,2.33h3.27v-4.54h-3.69C2600.59,663.68,2599.6,664.42,2599.6,665.89Z"/><path class="cls-4" d="M2615.19,667.5c2.54,0,3.82-.71,3.82-2.11s-1-2-3.1-2a7.66,7.66,0,0,0-1.72.17,12.09,12.09,0,0,0-2,.69l-.73-1.66a11.1,11.1,0,0,1,4.56-.93,6.16,6.16,0,0,1,3.66,1,3,3,0,0,1,1.33,2.59,2.92,2.92,0,0,1-2.51,3v.1a4.51,4.51,0,0,1,2.26,1.3,3.16,3.16,0,0,1,.71,2.1,3.32,3.32,0,0,1-1.5,2.9,7.19,7.19,0,0,1-4.16,1,9.43,9.43,0,0,1-4.49-.87v-1.87a10.47,10.47,0,0,0,4.54,1.06,4.75,4.75,0,0,0,2.67-.61,2,2,0,0,0,.9-1.75q0-2.34-3.82-2.34h-1.86V667.5Z"/><path class="cls-4" d="M2626.8,661.91v5.64h7.54v-5.64h2v13.46h-2V669.3h-7.54v6.07h-2V661.91Z"/><path class="cls-4" d="M2652.31,668.63a7.38,7.38,0,0,1-1.66,5.13,5.8,5.8,0,0,1-4.58,1.85,6,6,0,0,1-3.2-.85,5.57,5.57,0,0,1-2.16-2.43,8.4,8.4,0,0,1-.76-3.7,7.44,7.44,0,0,1,1.64-5.13,5.83,5.83,0,0,1,4.57-1.83,5.7,5.7,0,0,1,4.49,1.87A7.41,7.41,0,0,1,2652.31,668.63Zm-10.25,0a6.36,6.36,0,0,0,1,3.92,4.1,4.1,0,0,0,6.07,0,6.37,6.37,0,0,0,1-3.93,6.27,6.27,0,0,0-1-3.9,3.63,3.63,0,0,0-3.06-1.33,3.57,3.57,0,0,0-3,1.31A6.33,6.33,0,0,0,2642.06,668.63Z"/><path class="cls-4" d="M2657.8,661.91v8.53l-.09,2.24,0,.7,7.28-11.47h2.54v13.46h-1.9v-8.23l0-1.62.06-1.6-7.27,11.45h-2.54V661.91Zm3.84-1.78a5.09,5.09,0,0,1-3.32-.88,3.9,3.9,0,0,1-1.16-2.89h1.91a2.68,2.68,0,0,0,.67,1.78,2.89,2.89,0,0,0,2,.51,2.76,2.76,0,0,0,1.87-.54,2.62,2.62,0,0,0,.74-1.75h1.93a3.93,3.93,0,0,1-1.24,2.86A5.13,5.13,0,0,1,2661.64,660.13Z"/><path class="cls-4" d="M1713.37,1701.84l-4.86-12.43h-15.67l-4.81,12.43h-4.6l15.45-39.24h3.83l15.37,39.24Zm-6.28-16.52-4.54-12.11q-.88-2.3-1.82-5.64a50.35,50.35,0,0,1-1.68,5.64l-4.6,12.11Z"/><path class="cls-4" d="M1734.49,1702.38q-6.36,0-9.85-3.92t-3.49-11.08q0-7.35,3.54-11.36t10.1-4a20.25,20.25,0,0,1,4.22.45,14.12,14.12,0,0,1,3.31,1.07l-1.36,3.77a21.25,21.25,0,0,0-3.21-1,14.22,14.22,0,0,0-3.07-.39q-8.92,0-8.93,11.39,0,5.4,2.18,8.28a7.56,7.56,0,0,0,6.45,2.89,19.79,19.79,0,0,0,7.52-1.58v3.93A16,16,0,0,1,1734.49,1702.38Z"/><path class="cls-4" d="M1774.13,1687.17q0,7.15-3.61,11.18t-10,4a13.18,13.18,0,0,1-7-1.85,12.15,12.15,0,0,1-4.71-5.29,18.52,18.52,0,0,1-1.66-8.07q0-7.17,3.59-11.16t9.94-4a12.37,12.37,0,0,1,9.77,4.09Q1774.13,1680.2,1774.13,1687.17Zm-22.32,0q0,5.61,2.25,8.55a8.91,8.91,0,0,0,13.22,0c1.5-2,2.26-4.8,2.26-8.56s-.76-6.56-2.26-8.49a8,8,0,0,0-6.67-2.9,7.8,7.8,0,0,0-6.58,2.86Q1751.81,1681.51,1751.81,1687.17Z"/><path class="cls-4" d="M1807.2,1687.17q0,7.15-3.61,11.18t-10,4a13.21,13.21,0,0,1-7-1.85,12.13,12.13,0,0,1-4.7-5.29,18.37,18.37,0,0,1-1.66-8.07q0-7.17,3.58-11.16t10-4a12.39,12.39,0,0,1,9.77,4.09Q1807.2,1680.2,1807.2,1687.17Zm-22.32,0q0,5.61,2.24,8.55a8.91,8.91,0,0,0,13.22,0q2.27-2.93,2.26-8.56t-2.26-8.49a7.94,7.94,0,0,0-6.67-2.9,7.8,7.8,0,0,0-6.57,2.86Q1784.88,1681.51,1784.88,1687.17Z"/><path class="cls-4" d="M1819.42,1701.84H1815v-41.59h4.44Z"/><path class="cls-4" d="M1846.84,1701.84l-.88-4.17h-.21a12.37,12.37,0,0,1-4.37,3.73,13.37,13.37,0,0,1-5.44,1,9.75,9.75,0,0,1-6.83-2.25,8.2,8.2,0,0,1-2.48-6.39q0-8.87,14.2-9.3l5-.16v-1.82a7.47,7.47,0,0,0-1.48-5.09c-1-1.1-2.58-1.64-4.75-1.64a19.32,19.32,0,0,0-8.29,2.24l-1.36-3.39a21.31,21.31,0,0,1,9.92-2.52q5.23,0,7.76,2.33t2.53,7.46v20Zm-10-3.13a9,9,0,0,0,6.51-2.27,8.41,8.41,0,0,0,2.36-6.36v-2.65l-4.44.19c-3.52.13-6.07.67-7.63,1.64a5,5,0,0,0-2.34,4.54,4.58,4.58,0,0,0,1.46,3.66A6,6,0,0,0,1836.82,1698.71Z"/><path class="cls-4" d="M1524.53,1415a7.45,7.45,0,0,1-2.77,6.23q-2.76,2.19-7.91,2.19h-3.14V1434h-3.11v-26.7h6.92Q1524.53,1407.26,1524.53,1415Zm-13.82,5.75h2.79q4.13,0,6-1.33a4.91,4.91,0,0,0,1.84-4.27,4.61,4.61,0,0,0-1.73-4q-1.74-1.29-5.4-1.29h-3.47Z"/><path class="cls-4" d="M1546.93,1423.93q0,4.89-2.46,7.64a8.71,8.71,0,0,1-6.81,2.75,9,9,0,0,1-4.77-1.26,8.25,8.25,0,0,1-3.21-3.61,12.54,12.54,0,0,1-1.14-5.52q0-4.89,2.45-7.62a8.66,8.66,0,0,1,6.79-2.73,8.48,8.48,0,0,1,6.68,2.79A11,11,0,0,1,1546.93,1423.93Zm-15.24,0a9.5,9.5,0,0,0,1.53,5.84,6.09,6.09,0,0,0,9,0,9.43,9.43,0,0,0,1.54-5.85,9.32,9.32,0,0,0-1.54-5.8,5.43,5.43,0,0,0-4.56-2,5.32,5.32,0,0,0-4.49,2Q1531.69,1420.06,1531.69,1423.93Z"/><path class="cls-4" d="M1551.2,1422q0-6.57,1.94-10.25a8.61,8.61,0,0,1,6.13-4.59c3.49-.75,6.55-1.35,9.21-1.81l.56,2.66q-6.33,1.07-9,1.68a5.9,5.9,0,0,0-4,2.85,12.89,12.89,0,0,0-1.46,6.12h.22a7.91,7.91,0,0,1,2.92-2.41,8.36,8.36,0,0,1,3.75-.88,7.2,7.2,0,0,1,5.75,2.39,9.87,9.87,0,0,1,2.06,6.63,10.54,10.54,0,0,1-2.39,7.33,8.53,8.53,0,0,1-6.66,2.64,7.76,7.76,0,0,1-6.61-3.23Q1551.2,1427.85,1551.2,1422Zm9.28,9.82q5.57,0,5.57-7.1c0-4.52-1.69-6.77-5.06-6.77a6.51,6.51,0,0,0-2.67.57A8.85,8.85,0,0,0,1556,1420a8.08,8.08,0,0,0-1.65,2q0,4.8,1.51,7.31A5.06,5.06,0,0,0,1560.48,1431.78Z"/><path class="cls-4" d="M1577.39,1413.94v12.69l-.13,3.33-.06,1,10.83-17.06h3.78v20H1589v-12.24l.06-2.41.09-2.37-10.81,17h-3.78v-20Z"/><path class="cls-4" d="M1601.27,1413.94v8.38h11.21v-8.38h3v20h-3v-9h-11.21v9h-3v-20Z"/><path class="cls-4" d="M1625.75,1422.25c3.79,0,5.68-1,5.68-3.14s-1.53-3-4.6-3a11.86,11.86,0,0,0-2.56.26,19.72,19.72,0,0,0-3,1l-1.08-2.46a16.35,16.35,0,0,1,6.78-1.39,9.27,9.27,0,0,1,5.44,1.41,4.49,4.49,0,0,1,2,3.87q0,3.35-3.74,4.4v.14a6.78,6.78,0,0,1,3.36,1.93,4.71,4.71,0,0,1,1.06,3.13,5,5,0,0,1-2.24,4.32,10.74,10.74,0,0,1-6.18,1.54,14,14,0,0,1-6.69-1.3v-2.77a15.71,15.71,0,0,0,6.76,1.57,7.15,7.15,0,0,0,4-.9,3,3,0,0,0,1.34-2.61q0-3.48-5.67-3.48h-2.78v-2.58Z"/><path class="cls-4" d="M1657.27,1423.93q0,4.89-2.47,7.64a8.68,8.68,0,0,1-6.81,2.75,9,9,0,0,1-4.76-1.26,8.33,8.33,0,0,1-3.22-3.61,12.68,12.68,0,0,1-1.13-5.52q0-4.89,2.45-7.62a8.64,8.64,0,0,1,6.79-2.73,8.46,8.46,0,0,1,6.67,2.79A11,11,0,0,1,1657.27,1423.93Zm-15.25,0a9.43,9.43,0,0,0,1.54,5.84,6.07,6.07,0,0,0,9,0,9.42,9.42,0,0,0,1.55-5.85,9.32,9.32,0,0,0-1.55-5.8,5.4,5.4,0,0,0-4.55-2,5.31,5.31,0,0,0-4.49,2A9.38,9.38,0,0,0,1642,1423.93Z"/><path class="cls-4" d="M1665.61,1413.94v8.38h11.21v-8.38h3v20h-3v-9h-11.21v9h-3v-20Z"/><path class="cls-4" d="M1784.89,1420H1794v13a28.73,28.73,0,0,1-4.31,1,32.88,32.88,0,0,1-5.07.35q-6.06,0-9.44-3.61t-3.38-10.1a15.33,15.33,0,0,1,1.67-7.3,11.37,11.37,0,0,1,4.81-4.78,15.63,15.63,0,0,1,7.36-1.65,20,20,0,0,1,8,1.57l-1.2,2.74a17.67,17.67,0,0,0-7-1.54,9.93,9.93,0,0,0-7.61,2.91c-1.83,1.93-2.74,4.62-2.74,8q0,5.4,2.64,8.2c1.75,1.86,4.34,2.79,7.75,2.79a22.83,22.83,0,0,0,5.42-.64v-8.22h-6Z"/><path class="cls-4" d="M1808.37,1434.32a9.19,9.19,0,0,1-7-2.7,10.46,10.46,0,0,1-2.57-7.51,11.59,11.59,0,0,1,2.39-7.68,7.89,7.89,0,0,1,6.39-2.85,7.55,7.55,0,0,1,6,2.47,9.5,9.5,0,0,1,2.19,6.53v1.92h-13.79a8,8,0,0,0,1.78,5.35,6.19,6.19,0,0,0,4.76,1.82,16.16,16.16,0,0,0,6.39-1.35v2.7a15.38,15.38,0,0,1-3,1A17.19,17.19,0,0,1,1808.37,1434.32Zm-.82-18.2a5,5,0,0,0-3.85,1.57A7.23,7.23,0,0,0,1802,1422h10.46a6.68,6.68,0,0,0-1.28-4.39A4.51,4.51,0,0,0,1807.55,1416.12Z"/><path class="cls-4" d="M1830,1413.58a11.68,11.68,0,0,1,2.4.22l-.42,2.81a10.5,10.5,0,0,0-2.19-.27,5.32,5.32,0,0,0-4.16,2,7.18,7.18,0,0,0-1.72,4.91V1434h-3v-20h2.5l.34,3.71h.15a8.79,8.79,0,0,1,2.68-3A6,6,0,0,1,1830,1413.58Z"/><path class="cls-4" d="M1845.29,1413.58a11.51,11.51,0,0,1,2.39.22l-.42,2.81a10.5,10.5,0,0,0-2.19-.27,5.31,5.31,0,0,0-4.15,2,7.18,7.18,0,0,0-1.73,4.91V1434h-3v-20h2.5l.35,3.71h.14a8.81,8.81,0,0,1,2.69-3A6,6,0,0,1,1845.29,1413.58Z"/><path class="cls-4" d="M1848.25,1413.94h3.25l4.38,11.42a43.08,43.08,0,0,1,1.79,5.64h.14c.16-.62.49-1.69,1-3.19s2.16-6.12,5-13.87H1867l-8.6,22.79a11.41,11.41,0,0,1-3,4.79,6.31,6.31,0,0,1-4.19,1.42,12.65,12.65,0,0,1-2.74-.31v-2.43a10.34,10.34,0,0,0,2.25.22q3.12,0,4.45-3.51l1.12-2.85Z"/><path class="cls-4" d="M1903.73,1434h-3.06l-5.39-17.88c-.25-.79-.54-1.79-.86-3a18,18,0,0,1-.49-2.18,40.88,40.88,0,0,1-1.28,5.28l-5.22,17.77h-3.07l-7.1-26.7h3.29l4.21,16.49A60.51,60.51,0,0,1,1886,1430a46.21,46.21,0,0,1,1.46-6.54l4.79-16.23h3.28l5,16.38a48.82,48.82,0,0,1,1.48,6.39,53.87,53.87,0,0,1,1.32-6.32l4.2-16.45h3.28Z"/><path class="cls-4" d="M1923.05,1434.32a9.19,9.19,0,0,1-7-2.7,10.46,10.46,0,0,1-2.57-7.51,11.59,11.59,0,0,1,2.39-7.68,7.91,7.91,0,0,1,6.4-2.85,7.55,7.55,0,0,1,6,2.47,9.5,9.5,0,0,1,2.19,6.53v1.92h-13.78a7.91,7.91,0,0,0,1.78,5.35,6.16,6.16,0,0,0,4.75,1.82,16.09,16.09,0,0,0,6.39-1.35v2.7a15.38,15.38,0,0,1-3,1A17.12,17.12,0,0,1,1923.05,1434.32Zm-.82-18.2a4.92,4.92,0,0,0-3.84,1.57,7.17,7.17,0,0,0-1.69,4.34h10.46a6.68,6.68,0,0,0-1.28-4.39A4.51,4.51,0,0,0,1922.23,1416.12Z"/><path class="cls-4" d="M1944.89,1413.62a7.44,7.44,0,0,1,6.13,2.69q2.18,2.68,2.18,7.62c0,3.29-.74,5.84-2.2,7.66a7.42,7.42,0,0,1-6.11,2.73,8.69,8.69,0,0,1-3.57-.72,6.67,6.67,0,0,1-2.71-2.22h-.22l-.64,2.58h-2.17v-28.42h3v6.91c0,1.54,0,2.93-.15,4.16h.15A7.17,7.17,0,0,1,1944.89,1413.62Zm-.44,2.53a5.3,5.3,0,0,0-4.47,1.78q-1.37,1.78-1.37,6t1.41,6a5.33,5.33,0,0,0,4.5,1.81,4.7,4.7,0,0,0,4.17-2,10.51,10.51,0,0,0,1.37-5.86,10.08,10.08,0,0,0-1.37-5.82A4.87,4.87,0,0,0,1944.45,1416.15Z"/><path class="cls-4" d="M1967,1434.32a9.21,9.21,0,0,1-7-2.7q-2.57-2.7-2.56-7.51a11.59,11.59,0,0,1,2.38-7.68,7.91,7.91,0,0,1,6.4-2.85,7.53,7.53,0,0,1,5.95,2.47,9.5,9.5,0,0,1,2.19,6.53v1.92h-13.78a7.91,7.91,0,0,0,1.78,5.35,6.19,6.19,0,0,0,4.76,1.82,16.16,16.16,0,0,0,6.39-1.35v2.7a15.82,15.82,0,0,1-3,1A17.19,17.19,0,0,1,1967,1434.32Zm-.83-18.2a5,5,0,0,0-3.84,1.57,7.24,7.24,0,0,0-1.69,4.34h10.46a6.68,6.68,0,0,0-1.27-4.39A4.53,4.53,0,0,0,1966.12,1416.12Z"/><path class="cls-4" d="M1988.6,1413.58a11.51,11.51,0,0,1,2.39.22l-.42,2.81a10.42,10.42,0,0,0-2.19-.27,5.31,5.31,0,0,0-4.15,2,7.18,7.18,0,0,0-1.73,4.91V1434h-3v-20h2.5l.35,3.71h.15a8.69,8.69,0,0,1,2.68-3A6,6,0,0,1,1988.6,1413.58Z"/><path class="cls-4" d="M1842.49,1074.47h9.08v13a29,29,0,0,1-4.31,1,32.92,32.92,0,0,1-5.08.35q-6.06,0-9.44-3.61t-3.37-10.1a15.21,15.21,0,0,1,1.67-7.3,11.27,11.27,0,0,1,4.81-4.78,15.61,15.61,0,0,1,7.36-1.65,20,20,0,0,1,8,1.57l-1.21,2.74a17.66,17.66,0,0,0-7-1.54,10,10,0,0,0-7.62,2.91c-1.82,1.93-2.74,4.62-2.74,8q0,5.4,2.64,8.2t7.75,2.79a22.92,22.92,0,0,0,5.43-.64v-8.22h-6Z"/><path class="cls-4" d="M1860.37,1068.44v13a5.24,5.24,0,0,0,1.11,3.65,4.57,4.57,0,0,0,3.49,1.2,5.69,5.69,0,0,0,4.59-1.71q1.45-1.72,1.46-5.61v-10.52h3v20h-2.51l-.43-2.69h-.17a6.07,6.07,0,0,1-2.58,2.27,8.73,8.73,0,0,1-3.77.78q-3.66,0-5.47-1.73t-1.82-5.55v-13.1Z"/><path class="cls-4" d="M1888.93,1088.82a9.21,9.21,0,0,1-7-2.7q-2.57-2.7-2.56-7.51a11.59,11.59,0,0,1,2.38-7.68,7.91,7.91,0,0,1,6.4-2.85,7.53,7.53,0,0,1,5.95,2.47,9.5,9.5,0,0,1,2.19,6.53V1079H1882.5a7.91,7.91,0,0,0,1.78,5.35,6.19,6.19,0,0,0,4.76,1.82,16.16,16.16,0,0,0,6.39-1.35v2.7a15.82,15.82,0,0,1-3,1A17.19,17.19,0,0,1,1888.93,1088.82Zm-.83-18.2a5,5,0,0,0-3.84,1.57,7.24,7.24,0,0,0-1.69,4.34H1893a6.68,6.68,0,0,0-1.27-4.39A4.53,4.53,0,0,0,1888.1,1070.62Z"/><path class="cls-4" d="M1914.36,1083a5,5,0,0,1-2.08,4.3,9.73,9.73,0,0,1-5.84,1.52,12.68,12.68,0,0,1-6.21-1.26v-2.81a14.79,14.79,0,0,0,3.09,1.15,13,13,0,0,0,3.19.42,7.17,7.17,0,0,0,3.65-.76,2.5,2.5,0,0,0,1.28-2.31,2.53,2.53,0,0,0-1-2,16.09,16.09,0,0,0-4-2,21.18,21.18,0,0,1-4-1.82,5.33,5.33,0,0,1-1.75-1.76,4.62,4.62,0,0,1-.58-2.35,4.52,4.52,0,0,1,2-3.87,9.31,9.31,0,0,1,5.46-1.41,16.08,16.08,0,0,1,6.32,1.31l-1.08,2.47a14.43,14.43,0,0,0-5.46-1.24,6.33,6.33,0,0,0-3.25.67,2.08,2.08,0,0,0-1.09,1.86,2.27,2.27,0,0,0,.41,1.37,4,4,0,0,0,1.32,1.08,30.72,30.72,0,0,0,3.51,1.48,13,13,0,0,1,4.81,2.61A4.63,4.63,0,0,1,1914.36,1083Z"/><path class="cls-4" d="M1932.2,1083a5,5,0,0,1-2.08,4.3,9.73,9.73,0,0,1-5.84,1.52,12.68,12.68,0,0,1-6.21-1.26v-2.81a14.79,14.79,0,0,0,3.09,1.15,13,13,0,0,0,3.19.42,7.17,7.17,0,0,0,3.65-.76,2.5,2.5,0,0,0,1.28-2.31,2.53,2.53,0,0,0-1-2,16.09,16.09,0,0,0-4-2,21.18,21.18,0,0,1-4-1.82,5.33,5.33,0,0,1-1.75-1.76,4.85,4.85,0,0,1,1.41-6.22,9.31,9.31,0,0,1,5.46-1.41,16.08,16.08,0,0,1,6.32,1.31l-1.08,2.47a14.47,14.47,0,0,0-5.46-1.24,6.31,6.31,0,0,0-3.25.67,2.08,2.08,0,0,0-1.09,1.86,2.21,2.21,0,0,0,.41,1.37,3.94,3.94,0,0,0,1.32,1.08,30.72,30.72,0,0,0,3.51,1.48,13,13,0,0,1,4.81,2.61A4.63,4.63,0,0,1,1932.2,1083Z"/><path class="cls-4" d="M2400.75,986.65a9.86,9.86,0,0,1,6.64,2.09,7.17,7.17,0,0,1,2.42,5.72,8.25,8.25,0,0,1-2.64,6.5,10.51,10.51,0,0,1-7.28,2.36,13.41,13.41,0,0,1-6.88-1.44V999a10.6,10.6,0,0,0,3.18,1.28,15.64,15.64,0,0,0,3.74.47,7.46,7.46,0,0,0,5-1.52,5.42,5.42,0,0,0,1.78-4.38q0-5.58-6.84-5.59a27.51,27.51,0,0,0-4.64.53l-1.57-1,1-12.49h13.28v2.79h-10.69l-.67,8A21.24,21.24,0,0,1,2400.75,986.65Z"/><path class="cls-4" d="M2422.62,975.88a9,9,0,0,1,5.79,1.7,5.64,5.64,0,0,1,2.14,4.69,5.91,5.91,0,0,1-1.22,3.6,10.9,10.9,0,0,1-3.91,3,13.32,13.32,0,0,1,4.62,3.26,6.17,6.17,0,0,1,1.37,4,6.64,6.64,0,0,1-2.32,5.3,9.5,9.5,0,0,1-6.36,2c-2.84,0-5-.62-6.57-1.87a6.47,6.47,0,0,1-2.3-5.31q0-4.57,5.59-7.13a10.36,10.36,0,0,1-3.62-3.08,6.55,6.55,0,0,1-1.09-3.7,5.64,5.64,0,0,1,2.14-4.63A8.9,8.9,0,0,1,2422.62,975.88Zm-5.77,20.34a4.11,4.11,0,0,0,1.53,3.41,6.65,6.65,0,0,0,4.28,1.23,6.41,6.41,0,0,0,4.24-1.28,4.34,4.34,0,0,0,1.51-3.51,4.27,4.27,0,0,0-1.42-3.15,14.49,14.49,0,0,0-5-2.67,10.82,10.82,0,0,0-3.94,2.58A5,5,0,0,0,2416.85,996.22Zm5.74-17.88a5.38,5.38,0,0,0-3.58,1.1,3.64,3.64,0,0,0-1.3,2.92,4.16,4.16,0,0,0,1.08,2.88,11.17,11.17,0,0,0,4,2.41,10,10,0,0,0,3.7-2.35,4.38,4.38,0,0,0,1.08-2.94,3.59,3.59,0,0,0-1.32-2.93A5.6,5.6,0,0,0,2422.59,978.34Z"/><path class="cls-4" d="M2443.51,986.65a9.84,9.84,0,0,1,6.64,2.09,7.17,7.17,0,0,1,2.42,5.72,8.25,8.25,0,0,1-2.64,6.5,10.49,10.49,0,0,1-7.28,2.36,13.41,13.41,0,0,1-6.88-1.44V999a10.6,10.6,0,0,0,3.18,1.28,15.64,15.64,0,0,0,3.74.47,7.46,7.46,0,0,0,5-1.52,5.42,5.42,0,0,0,1.78-4.38q0-5.58-6.84-5.59a27.62,27.62,0,0,0-4.64.53l-1.57-1,1-12.49h13.28v2.79H2440l-.68,8A21.24,21.24,0,0,1,2443.51,986.65Z"/><path class="cls-4" d="M2483.59,982.51a5.75,5.75,0,0,1-1.67,4.27,8.07,8.07,0,0,1-4.61,2.08V989a8.85,8.85,0,0,1,5.07,2.1,5.63,5.63,0,0,1,1.72,4.29,6.87,6.87,0,0,1-2.79,5.83q-2.79,2.09-7.89,2.09a17.54,17.54,0,0,1-7.63-1.44V999a17.45,17.45,0,0,0,3.79,1.3,18.09,18.09,0,0,0,3.91.46,9.15,9.15,0,0,0,5.47-1.37,4.61,4.61,0,0,0,1.85-4,4.07,4.07,0,0,0-2-3.7,11.9,11.9,0,0,0-6.12-1.26h-4v-2.61h3.82a10.52,10.52,0,0,0,5.8-1.35,4.22,4.22,0,0,0,2.05-3.75,3.77,3.77,0,0,0-1.48-3.12,6.22,6.22,0,0,0-4-1.17,13.15,13.15,0,0,0-3.63.46,14.61,14.61,0,0,0-3.76,1.8l-1.54-2.08a13.63,13.63,0,0,1,4.14-2.07,16.08,16.08,0,0,1,4.76-.7,10.28,10.28,0,0,1,6.43,1.8A5.8,5.8,0,0,1,2483.59,982.51Z"/><path class="cls-4" d="M2506.65,992.93q0,4.89-2.46,7.64a8.71,8.71,0,0,1-6.81,2.75,9,9,0,0,1-4.77-1.26,8.25,8.25,0,0,1-3.21-3.61,12.54,12.54,0,0,1-1.14-5.52q0-4.89,2.45-7.62a8.66,8.66,0,0,1,6.79-2.73,8.48,8.48,0,0,1,6.68,2.79A11,11,0,0,1,2506.65,992.93Zm-15.25,0a9.5,9.5,0,0,0,1.54,5.84,6.09,6.09,0,0,0,9,0,9.43,9.43,0,0,0,1.54-5.85,9.32,9.32,0,0,0-1.54-5.8,5.43,5.43,0,0,0-4.56-2,5.32,5.32,0,0,0-4.49,2A9.38,9.38,0,0,0,2491.4,992.93Z"/><path class="cls-4" d="M2526.88,1003h-3.07V985.54h-6a73.48,73.48,0,0,1-1.37,10.31,14.31,14.31,0,0,1-2.28,5.59,4.33,4.33,0,0,1-3.55,1.77,4.52,4.52,0,0,1-1.57-.22v-2.24a3.63,3.63,0,0,0,.92.11c1.39,0,2.51-1.48,3.34-4.44a74.3,74.3,0,0,0,1.88-13.48h11.7Z"/><path class="cls-4" d="M2550.58,992.93q0,4.89-2.46,7.64a8.71,8.71,0,0,1-6.81,2.75,9,9,0,0,1-4.77-1.26,8.25,8.25,0,0,1-3.21-3.61,12.54,12.54,0,0,1-1.14-5.52q0-4.89,2.45-7.62a8.66,8.66,0,0,1,6.79-2.73,8.48,8.48,0,0,1,6.68,2.79A11,11,0,0,1,2550.58,992.93Zm-15.24,0a9.5,9.5,0,0,0,1.53,5.84,6.09,6.09,0,0,0,9,0,9.43,9.43,0,0,0,1.54-5.85,9.32,9.32,0,0,0-1.54-5.8,5.43,5.43,0,0,0-4.56-2,5.32,5.32,0,0,0-4.49,2Q2535.34,989.06,2535.34,992.93Z"/><path class="cls-4" d="M2569.39,985.54h-6.5V1003h-3V985.54h-6.43v-2.6h16Z"/><path class="cls-4" d="M2590.62,992.93q0,4.89-2.46,7.64a8.71,8.71,0,0,1-6.81,2.75,9,9,0,0,1-4.77-1.26,8.25,8.25,0,0,1-3.21-3.61,12.54,12.54,0,0,1-1.13-5.52q0-4.89,2.44-7.62a8.66,8.66,0,0,1,6.8-2.73,8.48,8.48,0,0,1,6.67,2.79A11,11,0,0,1,2590.62,992.93Zm-15.24,0a9.5,9.5,0,0,0,1.53,5.84,6.09,6.09,0,0,0,9,0,9.43,9.43,0,0,0,1.54-5.85,9.32,9.32,0,0,0-1.54-5.8,5.43,5.43,0,0,0-4.56-2,5.32,5.32,0,0,0-4.49,2Q2575.38,989.06,2575.38,992.93Z"/><path class="cls-4" d="M2598.78,982.94v12.69l-.12,3.33-.06,1,10.83-17.06h3.78v20h-2.83V990.72l0-2.41.09-2.37-10.8,17h-3.78v-20Zm5.72-2.64c-2.25,0-3.9-.44-4.93-1.31a5.83,5.83,0,0,1-1.74-4.3h2.85a3.91,3.91,0,0,0,1,2.65,4.32,4.32,0,0,0,2.89.75,4.1,4.1,0,0,0,2.79-.81,3.91,3.91,0,0,0,1.1-2.59h2.87a5.86,5.86,0,0,1-1.85,4.25A7.67,7.67,0,0,1,2604.5,980.3Z"/><path class="cls-4" d="M2444.61,1441l-3.33-8.5h-10.7l-3.28,8.5h-3.14l10.55-26.81h2.61l10.5,26.81Zm-4.29-11.29-3.11-8.27c-.4-1.05-.81-2.33-1.24-3.85a34.75,34.75,0,0,1-1.15,3.85l-3.14,8.27Z"/><path class="cls-4" d="M2454.06,1441h-3v-28.42h3Z"/><path class="cls-4" d="M2469.8,1420.62a7.43,7.43,0,0,1,6.13,2.69q2.18,2.68,2.18,7.62t-2.2,7.66a7.41,7.41,0,0,1-6.11,2.73,8.69,8.69,0,0,1-3.57-.72,6.74,6.74,0,0,1-2.71-2.22h-.22l-.63,2.58h-2.18v-28.42h3v6.91c0,1.54-.05,2.93-.14,4.16h.14A7.2,7.2,0,0,1,2469.8,1420.62Zm-.43,2.53a5.33,5.33,0,0,0-4.48,1.78q-1.36,1.78-1.37,6t1.41,6a5.35,5.35,0,0,0,4.51,1.81,4.68,4.68,0,0,0,4.16-2,10.43,10.43,0,0,0,1.37-5.86c0-2.6-.45-4.54-1.37-5.82A4.84,4.84,0,0,0,2469.37,1423.15Z"/><path class="cls-4" d="M2491.86,1441.32a9.19,9.19,0,0,1-7-2.7,10.46,10.46,0,0,1-2.57-7.51,11.59,11.59,0,0,1,2.39-7.68,7.89,7.89,0,0,1,6.39-2.85,7.55,7.55,0,0,1,6,2.47,9.5,9.5,0,0,1,2.19,6.53v1.92h-13.79a8,8,0,0,0,1.78,5.35,6.19,6.19,0,0,0,4.76,1.82,16.16,16.16,0,0,0,6.39-1.35v2.7a15.38,15.38,0,0,1-3,1A17.19,17.19,0,0,1,2491.86,1441.32Zm-.82-18.2a5,5,0,0,0-3.85,1.57,7.23,7.23,0,0,0-1.68,4.34H2496a6.68,6.68,0,0,0-1.28-4.39A4.51,4.51,0,0,0,2491,1423.12Z"/><path class="cls-4" d="M2513.52,1420.58a11.64,11.64,0,0,1,2.39.22l-.42,2.81a10.5,10.5,0,0,0-2.19-.27,5.32,5.32,0,0,0-4.16,2,7.18,7.18,0,0,0-1.72,4.91V1441h-3v-20h2.5l.34,3.71h.15a8.79,8.79,0,0,1,2.68-3A6,6,0,0,1,2513.52,1420.58Z"/><path class="cls-4" d="M2526.11,1438.82a9.86,9.86,0,0,0,1.56-.12,9.34,9.34,0,0,0,1.18-.25v2.32a5.68,5.68,0,0,1-1.45.4,11.23,11.23,0,0,1-1.72.15c-3.88,0-5.81-2-5.81-6.12v-11.9H2517v-1.46l2.87-1.26,1.28-4.27h1.75v4.63h5.81v2.36h-5.81v11.78a4,4,0,0,0,.86,2.77A3,3,0,0,0,2526.11,1438.82Z"/><path class="cls-4" d="M2532.6,1415.52a2,2,0,0,1,.51-1.52,1.74,1.74,0,0,1,1.27-.49,1.78,1.78,0,0,1,1.26.5,1.93,1.93,0,0,1,.53,1.51,2,2,0,0,1-.53,1.53,1.78,1.78,0,0,1-1.26.5,1.75,1.75,0,0,1-1.27-.5A2.08,2.08,0,0,1,2532.6,1415.52Zm3.28,25.44h-3v-20h3Z"/><path class="cls-4" d="M2556,1441v-13a5.23,5.23,0,0,0-1.11-3.65,4.52,4.52,0,0,0-3.49-1.21,5.76,5.76,0,0,0-4.6,1.7q-1.46,1.7-1.46,5.61V1441h-3v-20h2.46l.5,2.74h.14a6.21,6.21,0,0,1,2.61-2.29,8.52,8.52,0,0,1,3.75-.81,7.61,7.61,0,0,1,5.44,1.74q1.82,1.74,1.82,5.58V1441Z"/><path class="cls-4" d="M2577.57,1441l-.61-2.85h-.14a8.43,8.43,0,0,1-3,2.54,9,9,0,0,1-3.71.67,6.7,6.7,0,0,1-4.67-1.53,5.64,5.64,0,0,1-1.69-4.37q0-6.06,9.7-6.35l3.39-.11v-1.24a5.06,5.06,0,0,0-1-3.48,4.16,4.16,0,0,0-3.24-1.12,13.24,13.24,0,0,0-5.66,1.53l-.93-2.32a14.56,14.56,0,0,1,3.24-1.26,14.18,14.18,0,0,1,3.53-.45c2.39,0,4.16.52,5.31,1.58s1.72,2.76,1.72,5.1V1441Zm-6.85-2.14a6.18,6.18,0,0,0,4.45-1.55,5.79,5.79,0,0,0,1.61-4.35v-1.81l-3,.13a11.1,11.1,0,0,0-5.21,1.12,3.39,3.39,0,0,0-1.6,3.1,3.11,3.11,0,0,0,1,2.5A4.13,4.13,0,0,0,2570.72,1438.82Z"/><path class="cls-4" d="M2406.77,1678.85q0,6.62-3.58,10.11t-10.33,3.5h-7.39v-26.7h8.18q6.22,0,9.67,3.45T2406.77,1678.85Zm-3.28.11c0-3.48-.88-6.1-2.62-7.87s-4.34-2.64-7.79-2.64h-4.51v21.32h3.78q5.55,0,8.34-2.73T2403.49,1679Z"/><path class="cls-4" d="M2420.72,1692.82a9.2,9.2,0,0,1-7-2.7q-2.56-2.7-2.56-7.51a11.59,11.59,0,0,1,2.38-7.68,7.91,7.91,0,0,1,6.4-2.85,7.53,7.53,0,0,1,5.95,2.47,9.5,9.5,0,0,1,2.19,6.53V1683H2414.3a7.91,7.91,0,0,0,1.78,5.35,6.16,6.16,0,0,0,4.75,1.82,16.09,16.09,0,0,0,6.39-1.35v2.7a15.38,15.38,0,0,1-3,1A17.06,17.06,0,0,1,2420.72,1692.82Zm-.82-18.2a5,5,0,0,0-3.84,1.57,7.17,7.17,0,0,0-1.69,4.34h10.46a6.63,6.63,0,0,0-1.28-4.39A4.51,4.51,0,0,0,2419.9,1674.62Z"/><path class="cls-4" d="M2446.94,1692.46v-13a5.23,5.23,0,0,0-1.11-3.65,4.51,4.51,0,0,0-3.49-1.21,5.77,5.77,0,0,0-4.6,1.7q-1.45,1.7-1.46,5.61v10.5h-3v-20h2.47l.49,2.74h.14a6.29,6.29,0,0,1,2.62-2.29,8.45,8.45,0,0,1,3.74-.81,7.61,7.61,0,0,1,5.44,1.74q1.83,1.74,1.83,5.58v13.06Z"/><path class="cls-4" d="M2456,1667a2,2,0,0,1,.51-1.52,1.74,1.74,0,0,1,1.27-.49,1.78,1.78,0,0,1,1.26.5,1.93,1.93,0,0,1,.53,1.51,2,2,0,0,1-.53,1.53,1.78,1.78,0,0,1-1.26.5,1.75,1.75,0,0,1-1.27-.5A2.08,2.08,0,0,1,2456,1667Zm3.28,25.44h-3v-20h3Z"/><path class="cls-4" d="M2491.17,1692.46v-13a5.36,5.36,0,0,0-1-3.59,3.94,3.94,0,0,0-3.17-1.2,5.1,5.1,0,0,0-4.18,1.63,7.72,7.72,0,0,0-1.35,5v11.18h-3v-13a5.41,5.41,0,0,0-1-3.59,4,4,0,0,0-3.19-1.2,5,5,0,0,0-4.18,1.71c-.88,1.14-1.32,3-1.32,5.6v10.5h-3v-20h2.46l.5,2.74h.14a6,6,0,0,1,2.42-2.28,7.38,7.38,0,0,1,3.5-.82q4.7,0,6.13,3.39h.15a6.45,6.45,0,0,1,2.59-2.48,8.07,8.07,0,0,1,3.87-.91,6.79,6.79,0,0,1,5.09,1.74c1.12,1.16,1.69,3,1.69,5.58v13.06Z"/><path class="cls-4" d="M2531.66,1699.41h-2.95v-7h-18.55v7h-3v-9.77h2.06a50,50,0,0,0,4.81-11.5,51.52,51.52,0,0,0,2.22-12.38h12v23.88h3.37Zm-6.48-9.77v-21.09h-6.08a50.13,50.13,0,0,1-2.21,10.62,48.66,48.66,0,0,1-4.38,10.47Z"/><path class="cls-4" d="M2544.83,1672.48h2.79v9.7l8.27-9.7h3.33l-8.37,9.7,9.08,10.28h-3.51l-8.8-10.14v10.14h-2.79v-10.14l-8.78,10.14h-3.49l9.05-10.28-8.34-9.7h3.32l8.24,9.7Z"/><path class="cls-4" d="M2566.06,1672.44v12.69l-.12,3.33-.06,1,10.83-17.06h3.78v20h-2.83v-12.24l.05-2.41.09-2.37-10.81,17h-3.77v-20Z"/><path class="cls-4" d="M2589.94,1672.44v8.38h11.22v-8.38h3v20h-3v-9h-11.22v9h-3v-20Z"/><path class="cls-4" d="M2618.61,1692.82a8.55,8.55,0,0,1-6.73-2.67q-2.39-2.69-2.38-7.57t2.42-7.76a8.69,8.69,0,0,1,6.89-2.74,13.59,13.59,0,0,1,2.89.31,9.67,9.67,0,0,1,2.26.73l-.93,2.57a14.45,14.45,0,0,0-2.19-.66,9.59,9.59,0,0,0-2.1-.27q-6.1,0-6.1,7.78a9.26,9.26,0,0,0,1.49,5.66,5.16,5.16,0,0,0,4.41,2,13.6,13.6,0,0,0,5.13-1.07v2.68A11,11,0,0,1,2618.61,1692.82Z"/><path class="cls-4" d="M2332.35,1174.87l-2.23-5.71h-7.2l-2.21,5.71h-2.11l7.1-18h1.75l7.06,18Zm-2.88-7.59-2.09-5.56c-.27-.71-.55-1.57-.83-2.59a25,25,0,0,1-.78,2.59l-2.11,5.56Z"/><path class="cls-4" d="M2351,1174.87h-2.38l-9.81-15.07h-.1c.13,1.77.2,3.39.2,4.86v10.21H2337v-17.95h2.36l9.78,15h.1c0-.22-.06-.93-.11-2.13s-.08-2.06-.06-2.57v-10.3H2351Z"/><path class="cls-4" d="M2363.83,1165.46h6.1v8.73a20.72,20.72,0,0,1-2.9.69,22.77,22.77,0,0,1-3.41.23,8.29,8.29,0,0,1-6.35-2.42,9.58,9.58,0,0,1-2.27-6.8,10.24,10.24,0,0,1,1.12-4.9,7.57,7.57,0,0,1,3.24-3.22,10.46,10.46,0,0,1,4.94-1.11,13.46,13.46,0,0,1,5.36,1.06l-.81,1.84a11.91,11.91,0,0,0-4.68-1,6.7,6.7,0,0,0-5.12,2,7.55,7.55,0,0,0-1.84,5.41,7.75,7.75,0,0,0,1.77,5.51,6.81,6.81,0,0,0,5.21,1.88,15.32,15.32,0,0,0,3.65-.43v-5.52h-4Z"/><path class="cls-4" d="M2384.24,1174.87h-10v-17.95h10v1.85h-7.92v5.78h7.44v1.85h-7.44v6.6h7.92Z"/><path class="cls-4" d="M2388.22,1174.87v-17.95h2.08v16h7.92v1.9Z"/><path class="cls-4" d="M2417.92,1170.09a4.41,4.41,0,0,1-1.72,3.7,7.46,7.46,0,0,1-4.66,1.32,11.67,11.67,0,0,1-4.91-.82v-2a13.06,13.06,0,0,0,2.41.73,12.54,12.54,0,0,0,2.57.27,5.23,5.23,0,0,0,3.15-.79,2.6,2.6,0,0,0,1-2.2,2.84,2.84,0,0,0-.37-1.53,3.53,3.53,0,0,0-1.25-1.1,17,17,0,0,0-2.67-1.14,8.5,8.5,0,0,1-3.58-2.13,4.64,4.64,0,0,1-1.08-3.2,4,4,0,0,1,1.56-3.3,6.49,6.49,0,0,1,4.13-1.23,12.24,12.24,0,0,1,4.92,1l-.65,1.82a11.14,11.14,0,0,0-4.32-.93,4.13,4.13,0,0,0-2.59.71,2.34,2.34,0,0,0-.94,2,3,3,0,0,0,.35,1.53,3.25,3.25,0,0,0,1.16,1.1,14.13,14.13,0,0,0,2.5,1.09,10.13,10.13,0,0,1,3.88,2.16A4.25,4.25,0,0,1,2417.92,1170.09Z"/><path class="cls-4" d="M2431.6,1174.87h-10v-17.95h10v1.85h-7.92v5.78h7.44v1.85h-7.44v6.6h7.92Z"/><path class="cls-4" d="M2443.26,1158.53a5.85,5.85,0,0,0-4.67,2,7.94,7.94,0,0,0-1.71,5.39,8.12,8.12,0,0,0,1.65,5.45,5.86,5.86,0,0,0,4.7,1.92,16.07,16.07,0,0,0,4.29-.68v1.83a13.13,13.13,0,0,1-4.6.7,7.78,7.78,0,0,1-6.12-2.4q-2.16-2.42-2.16-6.84a10.8,10.8,0,0,1,1-4.86,7.46,7.46,0,0,1,3-3.22,9.13,9.13,0,0,1,4.61-1.13,11.09,11.09,0,0,1,4.94,1l-.88,1.79A9.64,9.64,0,0,0,2443.26,1158.53Z"/><path class="cls-4" d="M2453.52,1167.4v7.47h-2.08v-17.95h4.92a7.77,7.77,0,0,1,4.88,1.26,4.6,4.6,0,0,1,1.57,3.81,4.76,4.76,0,0,1-3.61,4.81l4.88,8.07h-2.47l-4.34-7.47Zm0-1.79h2.86a4.9,4.9,0,0,0,3.24-.88,3.24,3.24,0,0,0,1-2.63,3,3,0,0,0-1.05-2.57,5.71,5.71,0,0,0-3.37-.78h-2.71Z"/><path class="cls-4" d="M2477,1174.87h-10v-17.95h10v1.85h-7.92v5.78h7.44v1.85h-7.44v6.6H2477Z"/><path class="cls-4" d="M2486.48,1174.87h-2.09v-16.1h-5.68v-1.85h13.45v1.85h-5.68Z"/><path class="cls-4" d="M1390.86,432.76a3.54,3.54,0,0,1-1.3,2.93,5.94,5.94,0,0,1-3.73,1h-1.47v4.94h-1.46V429.1h3.25Q1390.86,429.1,1390.86,432.76Zm-6.5,2.7h1.31a4.88,4.88,0,0,0,2.81-.63,2.28,2.28,0,0,0,.86-2,2.19,2.19,0,0,0-.81-1.86,4.24,4.24,0,0,0-2.54-.61h-1.63Z"/><path class="cls-4" d="M1397.24,441.82a4.32,4.32,0,0,1-3.29-1.27,4.92,4.92,0,0,1-1.21-3.53,5.44,5.44,0,0,1,1.13-3.61,3.72,3.72,0,0,1,3-1.34,3.56,3.56,0,0,1,2.8,1.16,4.45,4.45,0,0,1,1,3.07v.9h-6.48a3.73,3.73,0,0,0,.84,2.52,2.9,2.9,0,0,0,2.24.86,7.46,7.46,0,0,0,3-.64v1.27a7,7,0,0,1-1.43.47A7.67,7.67,0,0,1,1397.24,441.82Zm-.38-8.56a2.34,2.34,0,0,0-1.81.74,3.38,3.38,0,0,0-.79,2h4.92a3.09,3.09,0,0,0-.61-2.06A2.1,2.1,0,0,0,1396.86,433.26Z"/><path class="cls-4" d="M1409.54,440.39h-.08a3.33,3.33,0,0,1-3,1.43,3.49,3.49,0,0,1-2.87-1.26,5.52,5.52,0,0,1-1-3.59,5.62,5.62,0,0,1,1-3.61,3.47,3.47,0,0,1,2.87-1.29,3.41,3.41,0,0,1,2.93,1.39h.12l-.06-.68,0-.66v-3.83h1.43v13.36h-1.16Zm-2.85.24a2.58,2.58,0,0,0,2.12-.8,4,4,0,0,0,.65-2.56V437a4.74,4.74,0,0,0-.66-2.85,2.55,2.55,0,0,0-2.13-.86,2.2,2.2,0,0,0-1.92,1,4.86,4.86,0,0,0-.66,2.75,4.64,4.64,0,0,0,.66,2.72A2.25,2.25,0,0,0,1406.69,440.63Z"/><path class="cls-4" d="M1419.7,441.65l-.29-1.34h-.07a3.94,3.94,0,0,1-1.4,1.2,4.28,4.28,0,0,1-1.75.31,3.14,3.14,0,0,1-2.19-.72,2.62,2.62,0,0,1-.8-2.05c0-1.9,1.53-2.9,4.56-3l1.6-.05v-.58a2.43,2.43,0,0,0-.47-1.64,2,2,0,0,0-1.53-.53,6.23,6.23,0,0,0-2.66.72l-.44-1.09a6.86,6.86,0,0,1,3.19-.8,3.56,3.56,0,0,1,2.49.74,3.13,3.13,0,0,1,.81,2.4v6.42Zm-3.22-1a2.94,2.94,0,0,0,2.09-.73,2.74,2.74,0,0,0,.76-2.05V437l-1.43.06a5.21,5.21,0,0,0-2.45.53,1.6,1.6,0,0,0-.75,1.46,1.44,1.44,0,0,0,.47,1.17A1.94,1.94,0,0,0,1416.48,440.65Z"/><path class="cls-4" d="M1430.13,441.65v-6.09a2.43,2.43,0,0,0-.53-1.71,2.1,2.1,0,0,0-1.64-.57,2.71,2.71,0,0,0-2.16.8,4,4,0,0,0-.69,2.63v4.94h-1.42v-9.41h1.16l.23,1.29h.07a3,3,0,0,1,1.23-1.08,4,4,0,0,1,1.76-.38,3.54,3.54,0,0,1,2.55.82,3.46,3.46,0,0,1,.86,2.62v6.14Z"/><path class="cls-4" d="M1437.52,440.65a4.32,4.32,0,0,0,.73-.06,3.51,3.51,0,0,0,.56-.12v1.1a2.94,2.94,0,0,1-.68.18,5,5,0,0,1-.82.07c-1.82,0-2.73-1-2.73-2.87v-5.6h-1.34v-.69l1.34-.59.61-2h.82v2.18h2.73v1.11H1436v5.54a1.89,1.89,0,0,0,.4,1.3A1.39,1.39,0,0,0,1437.52,440.65Z"/><path class="cls-4" d="M1440.48,440.74a1.26,1.26,0,0,1,.27-.87.93.93,0,0,1,.75-.3,1,1,0,0,1,.77.3,1.48,1.48,0,0,1,0,1.73,1.13,1.13,0,0,1-1.5,0A1.19,1.19,0,0,1,1440.48,440.74Z"/><path class="cls-4" d="M1449.66,432.07a5.59,5.59,0,0,1,1.13.1l-.2,1.32a5.18,5.18,0,0,0-1-.12,2.49,2.49,0,0,0-2,.92,3.35,3.35,0,0,0-.82,2.31v5h-1.42v-9.41h1.18l.16,1.74h.07a4.14,4.14,0,0,1,1.26-1.41A2.84,2.84,0,0,1,1449.66,432.07Z"/><path class="cls-4" d="M1453.89,432.24v6.11a2.43,2.43,0,0,0,.52,1.71,2.13,2.13,0,0,0,1.64.57,2.68,2.68,0,0,0,2.16-.81,4.09,4.09,0,0,0,.68-2.63v-4.95h1.43v9.41h-1.18l-.2-1.26h-.08a2.81,2.81,0,0,1-1.22,1.06,4,4,0,0,1-1.77.37,3.62,3.62,0,0,1-2.57-.81,3.49,3.49,0,0,1-.86-2.61v-6.16Z"/><path class="cls-4" d="M1389.1,652.23h1.24v6.35c0,1.17,0,2.23-.11,3.18h.07l6.4-9.53h1.46v11.42h-1.25v-6.29c0-1,0-2.14.13-3.29H1397l-6.42,9.58h-1.45Z"/><path class="cls-4" d="M1408,657.24a1.64,1.64,0,0,1-.48,1.27,2.63,2.63,0,0,1-1.35.58v.07a2.79,2.79,0,0,1,1.6.64,1.8,1.8,0,0,1,.5,1.36,2.15,2.15,0,0,1-.87,1.84,4.26,4.26,0,0,1-2.57.65h-3.77v-8.56h3.75C1407,655.09,1408,655.8,1408,657.24Zm-1.26.12a.93.93,0,0,0-.49-.88,3,3,0,0,0-1.45-.27h-2.45v2.42h2.2a3.45,3.45,0,0,0,1.69-.3A1,1,0,0,0,1406.77,657.36Zm.24,3.71a1.1,1.1,0,0,0-.53-1,3.59,3.59,0,0,0-1.75-.31h-2.35v2.82h2.39C1406.26,662.57,1407,662.07,1407,661.07Z"/><path class="cls-4" d="M1421.78,655.56a3.22,3.22,0,0,1-1.18,2.67,5.39,5.39,0,0,1-3.39.93h-1.34v4.49h-1.33V652.23h3Q1421.78,652.23,1421.78,655.56Zm-5.91,2.46h1.19a4.47,4.47,0,0,0,2.56-.57,2.12,2.12,0,0,0,.79-1.83,2,2,0,0,0-.75-1.69,3.85,3.85,0,0,0-2.31-.55h-1.48Z"/><path class="cls-4" d="M1431.37,659.36a4.68,4.68,0,0,1-1.06,3.27,3.68,3.68,0,0,1-2.91,1.18,3.84,3.84,0,0,1-2-.54,3.66,3.66,0,0,1-1.38-1.55,5.43,5.43,0,0,1-.48-2.36,4.71,4.71,0,0,1,1-3.26,3.67,3.67,0,0,1,2.9-1.17,3.63,3.63,0,0,1,2.86,1.2A4.71,4.71,0,0,1,1431.37,659.36Zm-6.53,0a4,4,0,0,0,.66,2.5,2.61,2.61,0,0,0,3.86,0,4.06,4.06,0,0,0,.66-2.51,4,4,0,0,0-.66-2.48,2.34,2.34,0,0,0-1.95-.85,2.27,2.27,0,0,0-1.92.84A4,4,0,0,0,1424.84,659.36Z"/><path class="cls-4" d="M1440,662.53h3.8v-7.44h1.31v8.56h-11.49v-8.56h1.3v7.44h3.79v-7.44H1440Z"/><path class="cls-4" d="M1451.5,663.81a3.94,3.94,0,0,1-3-1.16,4.48,4.48,0,0,1-1.09-3.21,5,5,0,0,1,1-3.29,3.37,3.37,0,0,1,2.73-1.22,3.24,3.24,0,0,1,2.55,1.06,4,4,0,0,1,.94,2.79v.82h-5.9a3.42,3.42,0,0,0,.76,2.29,2.64,2.64,0,0,0,2,.78,7,7,0,0,0,2.73-.57v1.15a7,7,0,0,1-1.3.43A7.75,7.75,0,0,1,1451.5,663.81Zm-.35-7.79a2.12,2.12,0,0,0-1.65.67,3.08,3.08,0,0,0-.72,1.86h4.48a2.89,2.89,0,0,0-.55-1.88A1.94,1.94,0,0,0,1451.15,656Z"/><path class="cls-4" d="M1213.28,1216.62a3.26,3.26,0,0,0-2.66,1.18,5,5,0,0,0-1,3.24,5,5,0,0,0,.94,3.26,3.25,3.25,0,0,0,2.68,1.15,8.76,8.76,0,0,0,2.44-.4v1.09a7.21,7.21,0,0,1-2.63.42,4.33,4.33,0,0,1-3.48-1.44,6.14,6.14,0,0,1-1.23-4.1,6.78,6.78,0,0,1,.59-2.91,4.41,4.41,0,0,1,1.71-1.93,5,5,0,0,1,2.62-.68,6.14,6.14,0,0,1,2.82.62l-.51,1.07A5.22,5.22,0,0,0,1213.28,1216.62Z"/><path class="cls-4" d="M1218.85,1218.35v5.11l0,1.34,0,.42,4.15-6.87h1.45v8.07h-1.09v-4.94l0-1,0-1-4.14,6.86h-1.45v-8.07Z"/><path class="cls-4" d="M1230.81,1225.24l.22-.69.3-.87,2.08-5.32h1.47v8.06h-1v-6.67l-.15.43-.4,1.13-2,5.11h-1l-2-5.13a13.46,13.46,0,0,1-.51-1.54v6.67h-1v-8.06h1.41l2,5.12A16.66,16.66,0,0,1,1230.81,1225.24Z"/><path class="cls-4" d="M1245.57,1222.38a4.14,4.14,0,0,1-1,2.91,4,4,0,0,1-2.77,1.24V1230h-1.15v-3.51a4,4,0,0,1-2.74-1.25,4.16,4.16,0,0,1-1-2.9,3.82,3.82,0,0,1,3.79-4.15V1215h1.1v3.27a4.12,4.12,0,0,1,2.76,1.27A4.17,4.17,0,0,1,1245.57,1222.38Zm-7.44,0a3.54,3.54,0,0,0,.62,2.21,2.61,2.61,0,0,0,2,.93v-6.27a2.78,2.78,0,0,0-1.94.89A3.44,3.44,0,0,0,1238.13,1222.38Zm6.23,0c0-1.88-.85-2.92-2.55-3.11v6.25a2.62,2.62,0,0,0,1.94-.94A3.53,3.53,0,0,0,1244.36,1222.38Z"/><path class="cls-4" d="M1254.21,1222.38a4.61,4.61,0,0,1-1,3.08,3.26,3.26,0,0,1-2.6,1.1,3.31,3.31,0,0,1-1.83-.51,3.26,3.26,0,0,1-1.23-1.45,5.33,5.33,0,0,1-.43-2.22,4.64,4.64,0,0,1,.93-3.08,3.25,3.25,0,0,1,2.6-1.1,3.17,3.17,0,0,1,2.56,1.13A4.58,4.58,0,0,1,1254.21,1222.38Zm-5.84,0a3.9,3.9,0,0,0,.59,2.35,2.24,2.24,0,0,0,3.45,0,5,5,0,0,0,0-4.69,2,2,0,0,0-1.74-.8,2,2,0,0,0-1.72.79A3.89,3.89,0,0,0,1248.37,1222.38Z"/><path class="cls-4" d="M1257.4,1218.35v3.38h4.29v-3.38h1.16v8.07h-1.16v-3.64h-4.29v3.64h-1.16v-8.07Z"/><path class="cls-4" d="M1266.41,1218.35v5.11l-.05,1.34,0,.42,4.14-6.87h1.45v8.07h-1.08v-4.94l0-1,0-1-4.14,6.86h-1.44v-8.07Z"/><path class="cls-4" d="M1274.77,1226.42h-1.35l2.2-3.41a2.42,2.42,0,0,1-1.36-.8,2.35,2.35,0,0,1-.47-1.49,2.21,2.21,0,0,1,.7-1.74,2.87,2.87,0,0,1,2-.63h3.41v8.07h-1.16v-3.23h-1.94Zm.15-5.69c0,.94.64,1.4,1.93,1.4h1.87v-2.72h-2.11C1275.48,1219.41,1274.92,1219.85,1274.92,1220.73Z"/><path class="cls-4" d="M1293.59,1226.42h-1.44l-4.73-5.46v5.46h-1.19v-10.76h1.19v5.21l4.61-5.21h1.36l-4.52,5.22Z"/><path class="cls-4" d="M1298.38,1226.56a3.19,3.19,0,0,1-1.36-.29,2.54,2.54,0,0,1-1-.89h-.09a10.52,10.52,0,0,1,.09,1.34V1230h-1.16v-11.69h.94l.16,1.1h.06a2.67,2.67,0,0,1,1-1,3,3,0,0,1,1.36-.3,2.8,2.8,0,0,1,2.36,1.1,6.13,6.13,0,0,1,0,6.16A2.76,2.76,0,0,1,1298.38,1226.56Zm-.16-7.32a2,2,0,0,0-1.7.68,3.69,3.69,0,0,0-.54,2.18v.28a4.2,4.2,0,0,0,.54,2.43,2,2,0,0,0,1.72.73,1.77,1.77,0,0,0,1.56-.85,4.2,4.2,0,0,0,.56-2.33,4,4,0,0,0-.56-2.31A1.82,1.82,0,0,0,1298.22,1219.24Z"/><path class="cls-4" d="M1308.3,1226.42l-.23-1.15h0a2.78,2.78,0,0,1-2.57,1.29,2.43,2.43,0,0,1-1.78-.62,2.3,2.3,0,0,1-.65-1.75q0-2.45,3.71-2.57l1.3,0v-.5a2.11,2.11,0,0,0-.39-1.4,1.54,1.54,0,0,0-1.24-.46,4.84,4.84,0,0,0-2.16.62l-.36-.93a5.05,5.05,0,0,1,1.24-.51,5.22,5.22,0,0,1,1.35-.18,2.79,2.79,0,0,1,2,.64,2.74,2.74,0,0,1,.67,2.05v5.51Zm-2.62-.87a2.29,2.29,0,0,0,1.71-.62,2.39,2.39,0,0,0,.61-1.75v-.73l-1.16,0a4.07,4.07,0,0,0-2,.45,1.39,1.39,0,0,0-.61,1.25,1.28,1.28,0,0,0,.38,1A1.52,1.52,0,0,0,1305.68,1225.55Z"/><path class="cls-4" d="M1314.62,1226.56a3.2,3.2,0,0,1-2.58-1.08,4.55,4.55,0,0,1-.91-3,4.69,4.69,0,0,1,.93-3.12,3.22,3.22,0,0,1,2.63-1.11,4.67,4.67,0,0,1,1.11.13,3.51,3.51,0,0,1,.87.29l-.36,1a5.16,5.16,0,0,0-.84-.27,3.63,3.63,0,0,0-.8-.11c-1.56,0-2.34,1-2.34,3.14a3.88,3.88,0,0,0,.57,2.28,1.94,1.94,0,0,0,1.69.8,4.91,4.91,0,0,0,2-.44v1.08A4,4,0,0,1,1314.62,1226.56Z"/><path class="cls-4" d="M1325,1222.38a4.61,4.61,0,0,1-1,3.08,3.27,3.27,0,0,1-2.61,1.1,3.3,3.3,0,0,1-1.82-.51,3.26,3.26,0,0,1-1.23-1.45,5.33,5.33,0,0,1-.43-2.22,4.64,4.64,0,0,1,.93-3.08,3.25,3.25,0,0,1,2.6-1.1,3.18,3.18,0,0,1,2.56,1.13A4.58,4.58,0,0,1,1325,1222.38Zm-5.84,0a3.9,3.9,0,0,0,.59,2.35,2.24,2.24,0,0,0,3.45,0,5,5,0,0,0,0-4.69,2,2,0,0,0-1.74-.8,2,2,0,0,0-1.72.79A3.89,3.89,0,0,0,1319.15,1222.38Z"/><path class="cls-4" d="M1332.19,1219.39h-2.49v7h-1.16v-7h-2.46v-1h6.11Z"/><path class="cls-4" d="M1334.86,1221.68h2.1a3.4,3.4,0,0,1,2.16.57,2.07,2.07,0,0,1,.7,1.71,2.25,2.25,0,0,1-.74,1.83,3.34,3.34,0,0,1-2.2.63h-3.18v-8.07h1.16Zm0,1.06v2.65h2c1.23,0,1.84-.45,1.84-1.36a1.16,1.16,0,0,0-.42-1,2.65,2.65,0,0,0-1.46-.3Zm7.41,3.68h-1.16v-8.07h1.16Z"/><path class="cls-4" d="M1514.13,1038.54l-2.06-5.52h-6.6l-2,5.52h-1.94l6.52-17.42h1.61l6.48,17.42Zm-2.65-7.33-1.92-5.38c-.25-.68-.5-1.51-.77-2.5a21.75,21.75,0,0,1-.71,2.5l-1.94,5.38Z"/><path class="cls-4" d="M1525.3,1025.53h2l-5.33,6.28,5.77,6.73h-2.19L1520,1032v6.59h-1.87v-13H1520v6.33Z"/><path class="cls-4" d="M1537.67,1038.54l-.37-1.85h-.09a5.27,5.27,0,0,1-1.84,1.65,5.34,5.34,0,0,1-2.29.44,4,4,0,0,1-2.88-1,3.72,3.72,0,0,1-1-2.84q0-3.93,6-4.13l2.1-.07v-.8a3.44,3.44,0,0,0-.63-2.27,2.52,2.52,0,0,0-2-.72,7.9,7.9,0,0,0-3.5,1l-.57-1.5a8.08,8.08,0,0,1,2-.82,8.18,8.18,0,0,1,2.18-.3,4.56,4.56,0,0,1,3.28,1,4.45,4.45,0,0,1,1.06,3.31v8.88Zm-4.22-1.39a3.68,3.68,0,0,0,2.74-1,3.81,3.81,0,0,0,1-2.82v-1.18l-1.87.09a6.38,6.38,0,0,0-3.22.73,2.23,2.23,0,0,0-1,2,2.07,2.07,0,0,0,.62,1.62A2.47,2.47,0,0,0,1533.45,1037.15Z"/><path class="cls-4" d="M1553.65,1043h-1.82v-4.5h-8.63v4.5h-1.81v-6.2h1a17.26,17.26,0,0,0,2.37-5.06,22.79,22.79,0,0,0,.89-6.25h6.26v11.31h1.77Zm-3.57-6.2v-9.75h-2.78a23.12,23.12,0,0,1-1,5.33,15.15,15.15,0,0,1-2,4.42Z"/><path class="cls-4" d="M1561.34,1038.78A5.55,5.55,0,0,1,1557,1037a7.06,7.06,0,0,1-1.58-4.88,7.8,7.8,0,0,1,1.47-5,4.77,4.77,0,0,1,3.95-1.85,4.56,4.56,0,0,1,3.68,1.6,6.41,6.41,0,0,1,1.35,4.25v1.24h-8.51a5.32,5.32,0,0,0,1.1,3.48,3.7,3.7,0,0,0,2.94,1.19,9.59,9.59,0,0,0,3.94-.88v1.75a9.58,9.58,0,0,1-1.88.65A10,10,0,0,1,1561.34,1038.78Zm-.51-11.83a3,3,0,0,0-2.37,1,4.87,4.87,0,0,0-1,2.82h6.46a4.46,4.46,0,0,0-.79-2.85A2.69,2.69,0,0,0,1560.83,1027Z"/><path class="cls-4" d="M1575.49,1036.64l.34-1.1.49-1.4,3.35-8.58h2.38v13h-1.66V1027.8l-.23.69-.65,1.81-3.19,8.24h-1.57l-3.19-8.26a24.76,24.76,0,0,1-.82-2.48v10.74h-1.67v-13h2.29l3.23,8.24C1574.92,1034.67,1575.21,1035.62,1575.49,1036.64Z"/><path class="cls-4" d="M1587.79,1025.53v8.25l-.07,2.16,0,.68,6.69-11.09h2.33v13H1595v-8l0-1.57,0-1.54-6.67,11.06H1586v-13Z"/><path class="cls-4" d="M1601.29,1038.54h-2.19l3.55-5.5a3.82,3.82,0,0,1-2.19-1.28,3.74,3.74,0,0,1-.76-2.41,3.58,3.58,0,0,1,1.14-2.8,4.6,4.6,0,0,1,3.18-1h5.5v13h-1.87v-5.2h-3.12Zm.24-9.16c0,1.5,1,2.25,3.11,2.25h3v-4.39h-3.4C1602.44,1027.24,1601.53,1028,1601.53,1029.38Z"/><path class="cls-4" d="M1522.82,1067.7h-1.92v-7.16a22.12,22.12,0,0,1-2.79.86,11.78,11.78,0,0,1-2.32.23,5.22,5.22,0,0,1-3.59-1.13,4.17,4.17,0,0,1-1.25-3.25v-6.9h1.91V1057a2.79,2.79,0,0,0,.72,2.12,3.28,3.28,0,0,0,2.33.69,11.79,11.79,0,0,0,2.09-.17,20.76,20.76,0,0,0,2.9-.82v-8.48h1.92Z"/><path class="cls-4" d="M1528.81,1054.7v8.24l-.07,2.16,0,.68,6.69-11.08h2.33v13H1536v-8l0-1.56,0-1.55-6.67,11.06h-2.33v-13Z"/><path class="cls-4" d="M1546.63,1067.94a5.15,5.15,0,0,1-4.16-1.74,7.41,7.41,0,0,1-1.47-4.92,7.62,7.62,0,0,1,1.5-5,5.22,5.22,0,0,1,4.25-1.78,8.3,8.3,0,0,1,1.78.2,5.13,5.13,0,0,1,1.4.48l-.58,1.67a7.37,7.37,0,0,0-1.35-.43,5.52,5.52,0,0,0-1.29-.18q-3.76,0-3.77,5.06a6.29,6.29,0,0,0,.92,3.68,3.14,3.14,0,0,0,2.72,1.28,7.91,7.91,0,0,0,3.17-.7v1.74A6.49,6.49,0,0,1,1546.63,1067.94Z"/><path class="cls-4" d="M1561,1056.38h-4v11.32h-1.87v-11.32h-4v-1.68H1561Z"/><path class="cls-4" d="M1574.12,1061.19a7.43,7.43,0,0,1-1.52,5,5.23,5.23,0,0,1-4.2,1.79,5.34,5.34,0,0,1-3-.82,5.29,5.29,0,0,1-2-2.35,8.47,8.47,0,0,1-.7-3.58,7.42,7.42,0,0,1,1.51-5,5.23,5.23,0,0,1,4.19-1.77,5.09,5.09,0,0,1,4.12,1.81A7.41,7.41,0,0,1,1574.12,1061.19Zm-9.41,0a6.33,6.33,0,0,0,1,3.79,3.19,3.19,0,0,0,2.78,1.31,3.22,3.22,0,0,0,2.79-1.3,6.34,6.34,0,0,0,1-3.8,6.24,6.24,0,0,0-1-3.77,3.69,3.69,0,0,0-5.59,0A6.4,6.4,0,0,0,1564.71,1061.19Z"/><path class="cls-4" d="M1585.73,1056.38h-4v11.32h-1.87v-11.32h-4v-1.68h9.85Z"/><path class="cls-4" d="M1590.05,1060.07h3.37a5.5,5.5,0,0,1,3.49.92,3.31,3.31,0,0,1,1.13,2.75,3.65,3.65,0,0,1-1.2,3,5.38,5.38,0,0,1-3.53,1h-5.13v-13h1.87Zm0,1.7v4.28h3.17q3,0,3-2.19a1.84,1.84,0,0,0-.68-1.59,4.08,4.08,0,0,0-2.35-.5Zm11.94,5.93h-1.87v-13H1602Z"/><path class="cls-4" d="M1531,1226.41h-1.19v-9.64h-3.32l-.21,1.76c-.29,2.35-.54,4.07-.76,5.16a5.36,5.36,0,0,1-.85,2.27,1.73,1.73,0,0,1-1.41.62,2.27,2.27,0,0,1-.93-.18v-1.05a1.8,1.8,0,0,0,.79.19.83.83,0,0,0,.64-.32,2.9,2.9,0,0,0,.49-1.11c.14-.53.32-1.53.54-3s.46-3.29.72-5.44H1531Z"/><path class="cls-4" d="M1536.9,1226.56a3.42,3.42,0,0,1-2.68-1.09,4.35,4.35,0,0,1-1-3,4.85,4.85,0,0,1,.91-3.1,3,3,0,0,1,2.45-1.15,2.81,2.81,0,0,1,2.28,1,3.93,3.93,0,0,1,.84,2.63v.77h-5.28a3.35,3.35,0,0,0,.68,2.16,2.31,2.31,0,0,0,1.82.73,5.93,5.93,0,0,0,2.45-.54V1226a5.72,5.72,0,0,1-1.16.4A6.36,6.36,0,0,1,1536.9,1226.56Zm-.31-7.34a1.84,1.84,0,0,0-1.47.64,3,3,0,0,0-.65,1.75h4a2.83,2.83,0,0,0-.49-1.77A1.7,1.7,0,0,0,1536.59,1219.22Z"/><path class="cls-4" d="M1550.11,1226.41l-3.46-9.53h-.06c.07.75.1,1.65.1,2.69v6.84h-1.1v-10.75h1.79l3.24,8.87h.05l3.27-8.87h1.77v10.75h-1.18v-6.93c0-.79,0-1.66.09-2.59h0l-3.5,9.52Z"/><path class="cls-4" d="M1557.13,1218.35h1.24l1.68,4.6a18.15,18.15,0,0,1,.68,2.27h.06c.06-.25.19-.68.38-1.28s.83-2.47,1.9-5.59h1.24l-3.29,9.18a4.69,4.69,0,0,1-1.14,1.93,2.37,2.37,0,0,1-1.61.57,4.7,4.7,0,0,1-1-.12v-1a3.85,3.85,0,0,0,.86.09,1.79,1.79,0,0,0,1.71-1.41l.43-1.15Z"/><path class="cls-4" d="M1569.12,1226.56a3.27,3.27,0,0,1-1.37-.29,2.58,2.58,0,0,1-1-.89h-.09a10.52,10.52,0,0,1,.09,1.34V1230h-1.16v-11.68h.94l.16,1.1h.06a2.6,2.6,0,0,1,1-1,3,3,0,0,1,1.36-.3,2.77,2.77,0,0,1,2.35,1.1,6.1,6.1,0,0,1,0,6.16A2.79,2.79,0,0,1,1569.12,1226.56Zm-.17-7.32a2,2,0,0,0-1.7.68,3.69,3.69,0,0,0-.53,2.18v.27a4.3,4.3,0,0,0,.53,2.44,2,2,0,0,0,1.73.73,1.78,1.78,0,0,0,1.56-.85,4.2,4.2,0,0,0,.56-2.33,4.08,4.08,0,0,0-.56-2.32A1.85,1.85,0,0,0,1569,1219.24Z"/><path class="cls-4" d="M1577.89,1226.56a3.22,3.22,0,0,1-1.36-.29,2.54,2.54,0,0,1-1-.89h-.09a10.52,10.52,0,0,1,.09,1.34V1230h-1.16v-11.68h.94l.16,1.1h.06a2.67,2.67,0,0,1,1-1,3,3,0,0,1,1.36-.3,2.8,2.8,0,0,1,2.36,1.1,6.13,6.13,0,0,1,0,6.16A2.79,2.79,0,0,1,1577.89,1226.56Zm-.16-7.32a2,2,0,0,0-1.7.68,3.69,3.69,0,0,0-.54,2.18v.27a4.21,4.21,0,0,0,.54,2.44,2,2,0,0,0,1.72.73,1.77,1.77,0,0,0,1.56-.85,4.2,4.2,0,0,0,.56-2.33,4.08,4.08,0,0,0-.56-2.32A1.83,1.83,0,0,0,1577.73,1219.24Z"/><path class="cls-4" d="M1586.67,1226.56a3.23,3.23,0,0,1-1.37-.29,2.6,2.6,0,0,1-1-.89h-.08a12.64,12.64,0,0,1,.08,1.34V1230h-1.16v-11.68h.94l.17,1.1h0a2.73,2.73,0,0,1,1-1,3,3,0,0,1,1.37-.3,2.78,2.78,0,0,1,2.35,1.1,5,5,0,0,1,.83,3.07,4.92,4.92,0,0,1-.85,3.09A2.78,2.78,0,0,1,1586.67,1226.56Zm-.17-7.32a2,2,0,0,0-1.7.68,3.69,3.69,0,0,0-.54,2.18v.27a4.21,4.21,0,0,0,.54,2.44,2,2,0,0,0,1.73.73,1.75,1.75,0,0,0,1.55-.85,4.12,4.12,0,0,0,.56-2.33,4,4,0,0,0-.56-2.32A1.82,1.82,0,0,0,1586.5,1219.24Z"/><path class="cls-4" d="M1461.36,1856.55a2.7,2.7,0,0,1-1,2.22,4.11,4.11,0,0,1-2.66.79,6.36,6.36,0,0,1-2.8-.49v-1.21a6.46,6.46,0,0,0,1.37.44,6.84,6.84,0,0,0,1.47.17,2.83,2.83,0,0,0,1.79-.48,1.57,1.57,0,0,0,.6-1.32,1.82,1.82,0,0,0-.21-.92,2.06,2.06,0,0,0-.71-.65,9.35,9.35,0,0,0-1.53-.69,4.76,4.76,0,0,1-2-1.27,2.89,2.89,0,0,1-.61-1.92,2.44,2.44,0,0,1,.88-2,3.57,3.57,0,0,1,2.35-.74,6.7,6.7,0,0,1,2.81.59l-.37,1.09a6.17,6.17,0,0,0-2.47-.56,2.26,2.26,0,0,0-1.47.43,1.44,1.44,0,0,0-.53,1.18,1.91,1.91,0,0,0,.19.92,1.86,1.86,0,0,0,.66.65,7.94,7.94,0,0,0,1.43.66,5.53,5.53,0,0,1,2.21,1.3A2.64,2.64,0,0,1,1461.36,1856.55Z"/><path class="cls-4" d="M1469.54,1859.42l-1.41-4.74c-.09-.29-.25-.94-.49-2h-.06c-.19.86-.35,1.52-.49,2l-1.45,4.72h-1.34l-2.09-8.07h1.22c.49,2,.87,3.57,1.13,4.63s.4,1.77.44,2.14h.06q.07-.42.24-1.08c.12-.45.22-.8.3-1.06l1.41-4.63h1.25l1.37,4.63a15.81,15.81,0,0,1,.54,2.13h0c0-.18.07-.45.15-.82s.57-2.35,1.46-5.94h1.2l-2.11,8.07Z"/><path class="cls-4" d="M1479.13,1859.42l-.23-1.15h-.06a3.18,3.18,0,0,1-1.14,1,3.33,3.33,0,0,1-1.42.27,2.49,2.49,0,0,1-1.79-.61,2.34,2.34,0,0,1-.65-1.76c0-1.63,1.24-2.49,3.72-2.56l1.3-.05v-.5a2.11,2.11,0,0,0-.39-1.4,1.55,1.55,0,0,0-1.24-.45,4.88,4.88,0,0,0-2.17.61l-.36-.93a5.26,5.26,0,0,1,2.6-.69,2.81,2.81,0,0,1,2,.64,2.76,2.76,0,0,1,.66,2.05v5.51Zm-2.62-.87a2.27,2.27,0,0,0,1.7-.62,2.4,2.4,0,0,0,.62-1.75v-.73l-1.16,0a4.24,4.24,0,0,0-2,.45,1.39,1.39,0,0,0-.61,1.25,1.31,1.31,0,0,0,.38,1A1.55,1.55,0,0,0,1476.51,1858.55Z"/><path class="cls-4" d="M1484.85,1858.55a3.86,3.86,0,0,0,.6,0,4,4,0,0,0,.45-.1v.93a1.73,1.73,0,0,1-.55.16,4.24,4.24,0,0,1-.66.06c-1.48,0-2.23-.82-2.23-2.46v-4.8h-1.09v-.59l1.09-.51.49-1.72h.67v1.87h2.23v1h-2.23v4.75a1.7,1.7,0,0,0,.33,1.12A1.14,1.14,0,0,0,1484.85,1858.55Z"/><path class="cls-4" d="M1490.5,1859.56a3.22,3.22,0,0,1-2.58-1.07,4.6,4.6,0,0,1-.91-3.06,4.76,4.76,0,0,1,.92-3.12,3.25,3.25,0,0,1,2.64-1.11,5.25,5.25,0,0,1,1.11.13,3.42,3.42,0,0,1,.86.29l-.35,1a5.16,5.16,0,0,0-.84-.27,3.56,3.56,0,0,0-.8-.1c-1.56,0-2.34,1-2.34,3.13a3.88,3.88,0,0,0,.57,2.28,1.94,1.94,0,0,0,1.69.8,4.91,4.91,0,0,0,2-.44v1.08A4,4,0,0,1,1490.5,1859.56Z"/><path class="cls-4" d="M1499.49,1859.42v-5.22a2.19,2.19,0,0,0-.42-1.47,1.68,1.68,0,0,0-1.34-.49,2.13,2.13,0,0,0-1.76.69,3.65,3.65,0,0,0-.56,2.27v4.22h-1.16V1848h1.16v3.47a9.76,9.76,0,0,1-.05,1h.07a2.39,2.39,0,0,1,1-.92,3.06,3.06,0,0,1,1.44-.33,2.86,2.86,0,0,1,2.11.7,3,3,0,0,1,.71,2.23v5.27Z"/><path class="cls-4" d="M1462.29,967.72a1.24,1.24,0,0,0-.56.13l-.12-.24a1.45,1.45,0,0,1,.68-.14,1.25,1.25,0,0,1,.63.14,1,1,0,0,1,.4.42,1.45,1.45,0,0,1,.13.65,1.4,1.4,0,0,1-.3,1,1.12,1.12,0,0,1-.88.34,2,2,0,0,1-.64-.09v-.25l.28.06a1.55,1.55,0,0,0,.31,0,.93.93,0,0,0,.69-.24,1.05,1.05,0,0,0,.24-.7H1462v-.25h1.2a.94.94,0,0,0-.27-.6A.8.8,0,0,0,1462.29,967.72Z"/><path class="cls-4" d="M1465,968.11h.3l-.79.89.86,1h-.32l-.84-.93V970H1464v-1.84h.28V969Z"/><path class="cls-4" d="M1466.47,970a.78.78,0,0,1-.61-.24,1,1,0,0,1-.22-.7,1,1,0,0,1,.22-.71.79.79,0,0,1,.63-.25l.27,0,.2.06-.08.24-.2-.06a.75.75,0,0,0-.2,0c-.37,0-.55.23-.55.71a.87.87,0,0,0,.13.52.48.48,0,0,0,.41.18,1.17,1.17,0,0,0,.47-.1v.25A1.09,1.09,0,0,1,1466.47,970Z"/><path class="cls-4" d="M1467.65,970h-.28v-1.84h1.54V970h-.28v-1.6h-1Z"/><path class="cls-4" d="M1470.35,970a.83.83,0,0,1-.32-.06.72.72,0,0,1-.25-.21h0c0,.11,0,.21,0,.31v.75h-.28v-2.66h.23l0,.25h0a.56.56,0,0,1,.25-.21.66.66,0,0,1,.32-.07.67.67,0,0,1,.57.25,1.12,1.12,0,0,1,.2.7,1.06,1.06,0,0,1-.21.7A.66.66,0,0,1,1470.35,970Zm0-1.66a.49.49,0,0,0-.4.15.77.77,0,0,0-.13.5V969a.87.87,0,0,0,.13.55.48.48,0,0,0,.41.17.44.44,0,0,0,.37-.19.92.92,0,0,0,.14-.53.88.88,0,0,0-.14-.53A.44.44,0,0,0,1470.31,968.32Z"/><path class="cls-4" d="M1472.38,970a.84.84,0,0,1-.65-.25,1,1,0,0,1-.23-.69,1,1,0,0,1,.22-.7.72.72,0,0,1,.58-.26.7.7,0,0,1,.55.23.88.88,0,0,1,.2.59v.18h-1.26a.7.7,0,0,0,.16.49.57.57,0,0,0,.44.17,1.36,1.36,0,0,0,.58-.13v.25l-.28.09A1.35,1.35,0,0,1,1472.38,970Zm-.08-1.67a.44.44,0,0,0-.35.15.64.64,0,0,0-.16.39h1a.66.66,0,0,0-.11-.4A.43.43,0,0,0,1472.3,968.31Z"/><path class="cls-4" d="M1474.26,970a.8.8,0,0,1-.62-.24,1.07,1.07,0,0,1-.22-.7,1.09,1.09,0,0,1,.22-.71.8.8,0,0,1,.64-.25l.26,0,.21.06-.09.24-.2-.06a.68.68,0,0,0-.19,0c-.37,0-.56.23-.56.71a.87.87,0,0,0,.14.52.46.46,0,0,0,.4.18,1.17,1.17,0,0,0,.47-.1v.25A1,1,0,0,1,1474.26,970Z"/><path class="cls-4" d="M1475.89,970a.8.8,0,0,1-.62-.24,1.07,1.07,0,0,1-.22-.7,1,1,0,0,1,.23-.71.77.77,0,0,1,.63-.25,1.15,1.15,0,0,1,.26,0l.21.06-.09.24-.2-.06a.65.65,0,0,0-.19,0c-.37,0-.56.23-.56.71a.87.87,0,0,0,.14.52.46.46,0,0,0,.4.18,1.14,1.14,0,0,0,.47-.1v.25A1,1,0,0,1,1475.89,970Z"/><path class="cls-4" d="M1465.33,972.83a1.42,1.42,0,0,1-.29.93,1.07,1.07,0,0,1-.83.33,1,1,0,0,1-.83-.33,1.59,1.59,0,0,1,0-1.86,1,1,0,0,1,.83-.33,1.08,1.08,0,0,1,.83.34A1.37,1.37,0,0,1,1465.33,972.83Zm-1.95,0a1.13,1.13,0,0,0,.22.76.74.74,0,0,0,.61.25.72.72,0,0,0,.61-.25,1.17,1.17,0,0,0,.21-.76,1.22,1.22,0,0,0-.2-.75.76.76,0,0,0-.62-.25.74.74,0,0,0-.61.26A1.09,1.09,0,0,0,1463.38,972.83Z"/><path class="cls-4" d="M1466.11,974.06h-.27v-1.83h1.54v1.83h-.28v-1.59h-1Z"/><path class="cls-4" d="M1469.2,972.46h-.59v1.6h-.28v-1.6h-.59v-.23h1.46Z"/><path class="cls-4" d="M1469.83,972.23v1.16l0,.3v.1l1-1.56h.35v1.83h-.26V972.5l-1,1.56h-.34v-1.83Z"/><path class="cls-4" d="M1472.81,972.23h.3l-.79.88.86.95h-.33l-.83-.93v.93h-.28v-1.83h.28v.89Z"/><path class="cls-4" d="M1474.65,974.06l-.06-.26h0a.92.92,0,0,1-.28.23.83.83,0,0,1-.34.06.6.6,0,0,1-.43-.14.51.51,0,0,1-.15-.4c0-.37.3-.56.89-.58h.31v-.11a.47.47,0,0,0-.09-.32.39.39,0,0,0-.3-.11,1.16,1.16,0,0,0-.52.15l-.08-.22a1.33,1.33,0,0,1,.62-.15.67.67,0,0,1,.48.14.59.59,0,0,1,.16.47v1.25Zm-.63-.2a.5.5,0,0,0,.55-.54v-.16h-.28a1,1,0,0,0-.47.1.32.32,0,0,0-.15.29.3.3,0,0,0,.09.23A.4.4,0,0,0,1474,973.86Z"/><path class="cls-4" d="M1712.21,777.5h-.34l-1.13-1.24v1.24h-.29v-2.44h.29v1.18l1.1-1.18h.33l-1.09,1.18Z"/><path class="cls-4" d="M1713.64,777.5l-.06-.26h0a.68.68,0,0,1-.28.24.83.83,0,0,1-.34.06.61.61,0,0,1-.42-.14.51.51,0,0,1-.16-.4c0-.37.3-.57.89-.59h.31v-.11a.49.49,0,0,0-.09-.32.38.38,0,0,0-.3-.1,1.31,1.31,0,0,0-.52.14l-.08-.21a1.48,1.48,0,0,1,.29-.12,1.24,1.24,0,0,1,.33,0,.66.66,0,0,1,.48.15.57.57,0,0,1,.16.46v1.25Zm-.63-.19a.6.6,0,0,0,.41-.14.53.53,0,0,0,.14-.4v-.17h-.27a1.06,1.06,0,0,0-.48.11.3.3,0,0,0-.15.28.29.29,0,0,0,.09.23A.4.4,0,0,0,1713,777.31Z"/><path class="cls-4" d="M1714.69,777.5h-.27v-1.83H1716v1.83h-.28v-1.59h-1Z"/><path class="cls-4" d="M1716.81,775.67v1.16l0,.31v.09l1-1.56h.35v1.83h-.26v-1.56l-1,1.56h-.35v-1.83Z"/><path class="cls-4" d="M1720,775.91h-.59v1.59h-.28v-1.59h-.59v-.24H1720Z"/><path class="cls-4" d="M1721.44,777.5l0-.26h0a.73.73,0,0,1-.27.24.83.83,0,0,1-.34.06.65.65,0,0,1-.43-.14.54.54,0,0,1-.15-.4c0-.37.29-.57.89-.59h.31v-.11a.49.49,0,0,0-.09-.32.4.4,0,0,0-.3-.1,1.27,1.27,0,0,0-.52.14l-.09-.21a1.34,1.34,0,0,1,.3-.12,1.24,1.24,0,0,1,.33,0,.67.67,0,0,1,.48.15.57.57,0,0,1,.16.46v1.25Zm-.62-.19a.57.57,0,0,0,.4-.14.54.54,0,0,0,.15-.4v-.17h-.28a1,1,0,0,0-.47.11.3.3,0,0,0-.15.28.29.29,0,0,0,.09.23A.4.4,0,0,0,1720.82,777.31Z"/><path class="cls-4" d="M1723.59,777.5h-.28v-1.59h-.55a5.74,5.74,0,0,1-.13.94,1.21,1.21,0,0,1-.21.52.4.4,0,0,1-.32.16l-.15,0v-.21h.09c.13,0,.23-.13.3-.41a6.27,6.27,0,0,0,.18-1.23h1.07Z"/><path class="cls-4" d="M1518,657.92a6.28,6.28,0,0,1-1.39,4.32,4.89,4.89,0,0,1-3.85,1.57,5,5,0,0,1-3.9-1.55,6.34,6.34,0,0,1-1.37-4.35,6.27,6.27,0,0,1,1.38-4.33,5,5,0,0,1,3.9-1.53,4.88,4.88,0,0,1,3.85,1.56A6.29,6.29,0,0,1,1518,657.92Zm-9.1,0a5.41,5.41,0,0,0,1,3.52,4,4,0,0,0,5.74,0,5.54,5.54,0,0,0,1-3.53,5.46,5.46,0,0,0-1-3.49,3.45,3.45,0,0,0-2.86-1.19,3.52,3.52,0,0,0-2.88,1.2A5.35,5.35,0,0,0,1508.9,657.92Z"/><path class="cls-4" d="M1529.52,659.36a4.28,4.28,0,0,1-1.1,3.1,4.65,4.65,0,0,1-3.09,1.32v3.72h-1.28v-3.72a4.6,4.6,0,0,1-3.07-1.33,4.3,4.3,0,0,1-1.12-3.09,4.22,4.22,0,0,1,1.12-3.09,4.72,4.72,0,0,1,3.11-1.31V651.5h1.24V655a4.65,4.65,0,0,1,3.08,1.36A4.23,4.23,0,0,1,1529.52,659.36Zm-8.3,0a3.62,3.62,0,0,0,.69,2.35,3,3,0,0,0,2.18,1v-6.66a3.16,3.16,0,0,0-2.16.94A3.51,3.51,0,0,0,1521.22,659.36Zm7,0q0-3-2.85-3.29v6.64a3.07,3.07,0,0,0,2.17-1A3.69,3.69,0,0,0,1528.18,659.36Z"/><path class="cls-4" d="M1537.56,656.2h-2.78v7.45h-1.3V656.2h-2.75v-1.11h6.83Z"/><path class="cls-4" d="M1544.52,663.65l-.25-1.22h-.07a3.53,3.53,0,0,1-1.27,1.09,3.93,3.93,0,0,1-1.59.29,2.86,2.86,0,0,1-2-.66,2.4,2.4,0,0,1-.72-1.87q0-2.6,4.15-2.71l1.45-.05V658a2.23,2.23,0,0,0-.43-1.49,1.8,1.8,0,0,0-1.39-.48,5.74,5.74,0,0,0-2.42.65l-.4-1a6.16,6.16,0,0,1,2.9-.73,3.24,3.24,0,0,1,2.27.68,2.84,2.84,0,0,1,.73,2.18v5.84Zm-2.93-.91a2.62,2.62,0,0,0,1.91-.67,2.45,2.45,0,0,0,.69-1.86v-.77l-1.3.06a4.58,4.58,0,0,0-2.23.48,1.43,1.43,0,0,0-.68,1.32,1.34,1.34,0,0,0,.42,1.07A1.75,1.75,0,0,0,1541.59,662.74Z"/><path class="cls-4" d="M1554.54,663.65h-1.31V656.2h-2.57a31,31,0,0,1-.59,4.41,6.09,6.09,0,0,1-1,2.39,1.85,1.85,0,0,1-1.52.76,2,2,0,0,1-.67-.09v-1a1.51,1.51,0,0,0,.39,0c.6,0,1.07-.63,1.43-1.9a31.4,31.4,0,0,0,.8-5.76h5Z"/><path class="cls-4" d="M1558.59,658.63h2.64c2.18,0,3.28.8,3.28,2.41a2.32,2.32,0,0,1-.86,1.94,4,4,0,0,1-2.5.67h-3.86v-8.56h1.3Zm0,1.12v2.82h2.5a2.85,2.85,0,0,0,1.57-.36,1.21,1.21,0,0,0,.55-1.09,1.17,1.17,0,0,0-.5-1,3.16,3.16,0,0,0-1.66-.33Z"/><path class="cls-4" d="M1571.2,662.4l.25-.73.33-.92,2.32-5.65h1.65v8.55h-1.15v-7.07l-.15.45-.46,1.2-2.21,5.42h-1.08l-2.22-5.44c-.27-.69-.46-1.24-.57-1.63v7.07h-1.15V655.1h1.58l2.25,5.43A19.56,19.56,0,0,1,1571.2,662.4Z"/><path class="cls-4" d="M1579.73,655.09v5.43l0,1.42,0,.45,4.63-7.3h1.62v8.56h-1.21v-5.23l0-1,0-1-4.63,7.28h-1.61v-8.56Z"/><path class="cls-4" d="M1593.65,655.09h1.42l-3.69,4.13,4,4.43h-1.52l-3.91-4.33v4.33h-1.29v-8.56H1590v4.16Z"/><path class="cls-4" d="M1602.23,663.65l-.26-1.22h-.06a3.63,3.63,0,0,1-1.28,1.09,3.89,3.89,0,0,1-1.59.29,2.86,2.86,0,0,1-2-.66,2.4,2.4,0,0,1-.72-1.87q0-2.6,4.15-2.71l1.45-.05V658a2.17,2.17,0,0,0-.43-1.49,1.79,1.79,0,0,0-1.39-.48,5.74,5.74,0,0,0-2.42.65l-.4-1a6.09,6.09,0,0,1,1.39-.54,6,6,0,0,1,1.51-.19,3.23,3.23,0,0,1,2.27.68,2.84,2.84,0,0,1,.74,2.18v5.84Zm-2.93-.91a2.61,2.61,0,0,0,1.9-.67,2.45,2.45,0,0,0,.69-1.86v-.77l-1.3.06a4.58,4.58,0,0,0-2.23.48,1.45,1.45,0,0,0-.68,1.32,1.31,1.31,0,0,0,.43,1.07A1.73,1.73,0,0,0,1599.3,662.74Z"/><path class="cls-4" d="M1893.56,678.59a3.22,3.22,0,0,1-1.18,2.67,5.39,5.39,0,0,1-3.39.94h-1.34v4.49h-1.33V675.27h3Q1893.56,675.27,1893.56,678.59Zm-5.91,2.46h1.19a4.47,4.47,0,0,0,2.56-.57,2.09,2.09,0,0,0,.78-1.82,2,2,0,0,0-.74-1.69,3.85,3.85,0,0,0-2.31-.56h-1.48Z"/><path class="cls-4" d="M1895.65,675.8a.89.89,0,0,1,.21-.65.83.83,0,0,1,1.09,0,.83.83,0,0,1,.23.64.88.88,0,0,1-.23.66.81.81,0,0,1-1.09,0A.92.92,0,0,1,1895.65,675.8Zm1.4,10.89h-1.3v-8.56h1.3Z"/><path class="cls-4" d="M1903.22,686.84a3.66,3.66,0,0,1-2.88-1.14,4.7,4.7,0,0,1-1-3.24,4.86,4.86,0,0,1,1-3.32,3.73,3.73,0,0,1,3-1.17,5.71,5.71,0,0,1,1.23.13,4.1,4.1,0,0,1,1,.31l-.4,1.11a5.65,5.65,0,0,0-.93-.29,4.57,4.57,0,0,0-.9-.11q-2.61,0-2.61,3.33a3.94,3.94,0,0,0,.64,2.42,2.2,2.2,0,0,0,1.88.84,5.71,5.71,0,0,0,2.2-.46v1.15A4.69,4.69,0,0,1,1903.22,686.84Z"/><path class="cls-4" d="M1908.7,682.3c.22-.31.57-.73,1-1.25l2.77-2.92H1914l-3.47,3.64,3.71,4.92h-1.57l-3-4.05-1,.84v3.21h-1.28V674.53h1.28V681c0,.28,0,.73-.06,1.32Z"/><path class="cls-4" d="M1923.25,678.59a3.19,3.19,0,0,1-1.18,2.67,5.39,5.39,0,0,1-3.39.94h-1.34v4.49H1916V675.27h3C1921.83,675.27,1923.25,676.38,1923.25,678.59Zm-5.91,2.46h1.2a4.45,4.45,0,0,0,2.55-.57,2.07,2.07,0,0,0,.79-1.82,2,2,0,0,0-.74-1.69,3.9,3.9,0,0,0-2.32-.56h-1.48Z"/><path class="cls-4" d="M1932.84,682.4a4.76,4.76,0,0,1-1,3.27,3.75,3.75,0,0,1-2.92,1.17,3.89,3.89,0,0,1-2-.54,3.49,3.49,0,0,1-1.37-1.54,5.29,5.29,0,0,1-.49-2.36,4.7,4.7,0,0,1,1-3.26,3.71,3.71,0,0,1,2.91-1.17,3.63,3.63,0,0,1,2.85,1.19A4.7,4.7,0,0,1,1932.84,682.4Zm-6.52,0a4.12,4.12,0,0,0,.65,2.5,2.61,2.61,0,0,0,3.87,0,4,4,0,0,0,.66-2.5,4,4,0,0,0-.66-2.48,2.31,2.31,0,0,0-1.95-.85,2.27,2.27,0,0,0-1.92.84A3.94,3.94,0,0,0,1926.32,682.4Z"/><path class="cls-4" d="M1935,675.8a.89.89,0,0,1,.22-.65.83.83,0,0,1,1.09,0,.83.83,0,0,1,.23.64.88.88,0,0,1-.23.66.81.81,0,0,1-1.09,0A.92.92,0,0,1,1935,675.8Zm1.41,10.89h-1.3v-8.56h1.3Z"/><path class="cls-4" d="M1945,686.69v-5.54a2.21,2.21,0,0,0-.48-1.56,1.9,1.9,0,0,0-1.49-.52,2.46,2.46,0,0,0-2,.73,3.7,3.7,0,0,0-.62,2.4v4.49h-1.3v-8.56h1.06l.21,1.17h.06a2.62,2.62,0,0,1,1.12-1,3.51,3.51,0,0,1,1.6-.35,3.29,3.29,0,0,1,2.33.74,3.2,3.2,0,0,1,.78,2.39v5.59Z"/><path class="cls-4" d="M1951.75,685.77a3.53,3.53,0,0,0,.66,0c.21,0,.38-.07.51-.1v1a2.53,2.53,0,0,1-.62.17,5.23,5.23,0,0,1-.74.06q-2.49,0-2.49-2.61v-5.1h-1.22v-.62l1.22-.54.55-1.83h.75v2h2.49v1h-2.49v5a1.71,1.71,0,0,0,.37,1.19A1.26,1.26,0,0,0,1951.75,685.77Z"/><path class="cls-4" d="M2158.52,1387.7a2.5,2.5,0,0,1-1.16-.22v-1.13a4,4,0,0,0,1.16.16,1.47,1.47,0,0,0,1.17-.47,2,2,0,0,0,.4-1.35v-11.42h1.33v11.31a3.28,3.28,0,0,1-.75,2.3A2.8,2.8,0,0,1,2158.52,1387.7Z"/><path class="cls-4" d="M2167.88,1384.84a3.93,3.93,0,0,1-3-1.15,4.48,4.48,0,0,1-1.1-3.21,5,5,0,0,1,1-3.29,3.39,3.39,0,0,1,2.74-1.22,3.23,3.23,0,0,1,2.55,1.06,4.05,4.05,0,0,1,.93,2.79v.82h-5.89a3.36,3.36,0,0,0,.76,2.29,2.63,2.63,0,0,0,2,.78,6.85,6.85,0,0,0,2.74-.58v1.16a6.3,6.3,0,0,1-1.3.42A7.08,7.08,0,0,1,2167.88,1384.84Zm-.36-7.79a2.12,2.12,0,0,0-1.64.68,3,3,0,0,0-.72,1.86h4.47a2.87,2.87,0,0,0-.54-1.88A1.93,1.93,0,0,0,2167.52,1377.05Z"/><path class="cls-4" d="M2179.09,1384.69v-5.54a2.21,2.21,0,0,0-.47-1.56,1.93,1.93,0,0,0-1.49-.52,2.43,2.43,0,0,0-2,.73,3.63,3.63,0,0,0-.63,2.4v4.49h-1.3v-8.56h1.06l.21,1.17h.06a2.68,2.68,0,0,1,1.12-1,3.51,3.51,0,0,1,1.6-.35,3.29,3.29,0,0,1,2.33.74,3.2,3.2,0,0,1,.78,2.39v5.59Z"/><path class="cls-4" d="M2188.32,1384.69l-.26-1.22H2188a3.65,3.65,0,0,1-1.28,1.09,3.87,3.87,0,0,1-1.59.28,2.82,2.82,0,0,1-2-.65,2.41,2.41,0,0,1-.73-1.87c0-1.73,1.39-2.64,4.15-2.72l1.46,0V1379a2.15,2.15,0,0,0-.44-1.48,1.74,1.74,0,0,0-1.38-.49,5.67,5.67,0,0,0-2.43.66l-.39-1a6,6,0,0,1,1.38-.54,6.09,6.09,0,0,1,1.51-.2,3.28,3.28,0,0,1,2.27.68,2.82,2.82,0,0,1,.74,2.18v5.85Zm-2.93-.92a2.63,2.63,0,0,0,1.9-.66,2.45,2.45,0,0,0,.69-1.86v-.77l-1.29,0a4.79,4.79,0,0,0-2.23.48,1.46,1.46,0,0,0-.69,1.33,1.37,1.37,0,0,0,.43,1.07A1.78,1.78,0,0,0,2185.39,1383.77Z"/><path class="cls-4" d="M2193.83,1384.69l-3.25-8.56H2192l1.84,5.07c.42,1.19.66,2,.74,2.32h.06c.06-.28.24-.85.54-1.72s1-2.76,2-5.67h1.39l-3.25,8.56Z"/><path class="cls-4" d="M2199.86,1373.8a.85.85,0,0,1,.22-.65.75.75,0,0,1,.55-.2.76.76,0,0,1,.53.21.8.8,0,0,1,.23.64.84.84,0,0,1-.23.66.8.8,0,0,1-1.08,0A.88.88,0,0,1,2199.86,1373.8Zm1.41,10.89H2200v-8.56h1.3Z"/><path class="cls-4" d="M2166.29,1567.29a3.76,3.76,0,0,0-3,1.25,5.05,5.05,0,0,0-1.09,3.44,5.15,5.15,0,0,0,1.05,3.46,3.72,3.72,0,0,0,3,1.22,10.08,10.08,0,0,0,2.72-.43v1.17a8.3,8.3,0,0,1-2.93.44,5,5,0,0,1-3.89-1.53,6.32,6.32,0,0,1-1.37-4.35,6.83,6.83,0,0,1,.66-3.09,4.68,4.68,0,0,1,1.91-2,5.73,5.73,0,0,1,2.93-.72,7,7,0,0,1,3.14.66l-.56,1.14A6,6,0,0,0,2166.29,1567.29Z"/><path class="cls-4" d="M2176.57,1577.69l-.26-1.22h-.06a3.74,3.74,0,0,1-1.28,1.09,3.9,3.9,0,0,1-1.59.28,2.85,2.85,0,0,1-2-.65,2.4,2.4,0,0,1-.72-1.87q0-2.6,4.15-2.72l1.45,0V1572a2.15,2.15,0,0,0-.43-1.48,1.75,1.75,0,0,0-1.39-.49,5.63,5.63,0,0,0-2.42.66l-.4-1a6.09,6.09,0,0,1,1.39-.54,6,6,0,0,1,1.51-.2,3.28,3.28,0,0,1,2.27.68,2.86,2.86,0,0,1,.74,2.18v5.85Zm-2.93-.92a2.65,2.65,0,0,0,1.9-.66,2.45,2.45,0,0,0,.69-1.86v-.77l-1.3,0a4.83,4.83,0,0,0-2.23.48,1.47,1.47,0,0,0-.68,1.33,1.34,1.34,0,0,0,.43,1.07A1.78,1.78,0,0,0,2173.64,1576.77Z"/><path class="cls-4" d="M2185.72,1575.35a2.15,2.15,0,0,1-.89,1.85,4.18,4.18,0,0,1-2.5.64,5.4,5.4,0,0,1-2.65-.54v-1.2a6.3,6.3,0,0,0,1.32.49,5.53,5.53,0,0,0,1.36.18,3.09,3.09,0,0,0,1.57-.32,1.08,1.08,0,0,0,.54-1,1.05,1.05,0,0,0-.43-.85,6.59,6.59,0,0,0-1.69-.84,9.16,9.16,0,0,1-1.7-.78,2.17,2.17,0,0,1-.75-.76,1.88,1.88,0,0,1-.25-1,2,2,0,0,1,.85-1.66,4,4,0,0,1,2.34-.6,6.91,6.91,0,0,1,2.7.56l-.46,1.06a6.13,6.13,0,0,0-2.33-.54,2.69,2.69,0,0,0-1.39.29.89.89,0,0,0-.47.8,1,1,0,0,0,.17.59,1.87,1.87,0,0,0,.57.46,14.73,14.73,0,0,0,1.5.63,5.53,5.53,0,0,1,2.06,1.12A2,2,0,0,1,2185.72,1575.35Z"/><path class="cls-4" d="M2187.72,1566.8a.89.89,0,0,1,.22-.65.83.83,0,0,1,1.09,0,.83.83,0,0,1,.22.64.88.88,0,0,1-.22.66.81.81,0,0,1-1.09,0A.92.92,0,0,1,2187.72,1566.8Zm1.41,10.89h-1.3v-8.56h1.3Z"/><path class="cls-4" d="M2199.27,1573.4a4.76,4.76,0,0,1-1.05,3.27,3.75,3.75,0,0,1-2.92,1.17,3.89,3.89,0,0,1-2-.54,3.49,3.49,0,0,1-1.37-1.54,5.29,5.29,0,0,1-.49-2.36,4.7,4.7,0,0,1,1-3.26,3.71,3.71,0,0,1,2.91-1.17,3.63,3.63,0,0,1,2.85,1.19A4.7,4.7,0,0,1,2199.27,1573.4Zm-6.52,0a4.12,4.12,0,0,0,.65,2.5,2.61,2.61,0,0,0,3.87,0,4,4,0,0,0,.66-2.5,4,4,0,0,0-.66-2.48,2.31,2.31,0,0,0-1.95-.85,2.27,2.27,0,0,0-1.92.84A3.94,3.94,0,0,0,2192.75,1573.4Z"/><path class="cls-4" d="M2137.77,1748.29a3.76,3.76,0,0,0-3,1.25,5.05,5.05,0,0,0-1.09,3.44,5.15,5.15,0,0,0,1.05,3.46,3.72,3.72,0,0,0,3,1.22,10,10,0,0,0,2.72-.43v1.17a8.27,8.27,0,0,1-2.92.44,5,5,0,0,1-3.9-1.53,6.32,6.32,0,0,1-1.37-4.35,6.83,6.83,0,0,1,.66-3.09,4.68,4.68,0,0,1,1.91-2,5.73,5.73,0,0,1,2.93-.72,7,7,0,0,1,3.14.66l-.56,1.14A6,6,0,0,0,2137.77,1748.29Z"/><path class="cls-4" d="M2150.17,1754.4a4.76,4.76,0,0,1-1.05,3.27,3.75,3.75,0,0,1-2.92,1.17,3.89,3.89,0,0,1-2-.54,3.49,3.49,0,0,1-1.37-1.54,5.43,5.43,0,0,1-.48-2.36,4.69,4.69,0,0,1,1-3.26,3.71,3.71,0,0,1,2.91-1.17,3.62,3.62,0,0,1,2.85,1.19A4.7,4.7,0,0,1,2150.17,1754.4Zm-6.52,0a4,4,0,0,0,.66,2.5,2.27,2.27,0,0,0,1.92.86,2.31,2.31,0,0,0,1.94-.86,4,4,0,0,0,.66-2.5,4,4,0,0,0-.66-2.48,2.31,2.31,0,0,0-2-.85,2.27,2.27,0,0,0-1.92.84A3.94,3.94,0,0,0,2143.65,1754.4Z"/><path class="cls-4" d="M2156.31,1751.13h-2.18v7.56h-1.3v-7.56h-1.53v-.58l1.53-.47v-.48q0-3.15,2.76-3.15a5.74,5.74,0,0,1,1.59.27l-.34,1a4.29,4.29,0,0,0-1.28-.24,1.24,1.24,0,0,0-1.08.48,2.7,2.7,0,0,0-.35,1.57v.56h2.18Z"/><path class="cls-4" d="M2161.73,1751.13h-2.18v7.56h-1.3v-7.56h-1.53v-.58l1.53-.47v-.48q0-3.15,2.76-3.15a5.74,5.74,0,0,1,1.59.27l-.33,1a4.34,4.34,0,0,0-1.29-.24,1.25,1.25,0,0,0-1.08.48,2.7,2.7,0,0,0-.35,1.57v.56h2.18Z"/><path class="cls-4" d="M2166.91,1758.84a3.93,3.93,0,0,1-3-1.15,4.48,4.48,0,0,1-1.1-3.21,5,5,0,0,1,1-3.29,3.41,3.41,0,0,1,2.74-1.22,3.23,3.23,0,0,1,2.55,1.06,4.06,4.06,0,0,1,.94,2.79v.82h-5.9a3.36,3.36,0,0,0,.76,2.29,2.63,2.63,0,0,0,2,.78,6.81,6.81,0,0,0,2.74-.58v1.16a6.3,6.3,0,0,1-1.3.42A7.08,7.08,0,0,1,2166.91,1758.84Zm-.35-7.79a2.13,2.13,0,0,0-1.65.68,3,3,0,0,0-.72,1.86h4.47a2.87,2.87,0,0,0-.54-1.88A1.93,1.93,0,0,0,2166.56,1751.05Z"/><path class="cls-4" d="M2175.88,1758.84a3.93,3.93,0,0,1-3-1.15,4.48,4.48,0,0,1-1.1-3.21,5,5,0,0,1,1-3.29,3.39,3.39,0,0,1,2.74-1.22,3.2,3.2,0,0,1,2.54,1.06,4,4,0,0,1,.94,2.79v.82h-5.9a3.37,3.37,0,0,0,.77,2.29,2.63,2.63,0,0,0,2,.78,6.8,6.8,0,0,0,2.73-.58v1.16a6.11,6.11,0,0,1-1.3.42A7,7,0,0,1,2175.88,1758.84Zm-.35-7.79a2.1,2.1,0,0,0-1.64.68,3.1,3.1,0,0,0-.73,1.86h4.48a2.81,2.81,0,0,0-.55-1.88A1.9,1.9,0,0,0,2175.53,1751.05Z"/><path class="cls-4" d="M2185.59,1758.69v-11.42h1.33v11.42Z"/><path class="cls-4" d="M2195.38,1756.35a2.15,2.15,0,0,1-.89,1.85,4.18,4.18,0,0,1-2.5.64,5.4,5.4,0,0,1-2.65-.54v-1.2a6.3,6.3,0,0,0,1.32.49,5.53,5.53,0,0,0,1.36.18,3.09,3.09,0,0,0,1.57-.32,1.08,1.08,0,0,0,.54-1,1.05,1.05,0,0,0-.43-.85,6.59,6.59,0,0,0-1.69-.84,9.49,9.49,0,0,1-1.7-.78,2.17,2.17,0,0,1-.75-.76,2,2,0,0,1-.25-1,2,2,0,0,1,.85-1.66,4,4,0,0,1,2.34-.6,6.91,6.91,0,0,1,2.7.56l-.46,1.06a6.13,6.13,0,0,0-2.33-.54,2.69,2.69,0,0,0-1.39.29.89.89,0,0,0-.47.8,1,1,0,0,0,.17.59,1.87,1.87,0,0,0,.57.46,14.73,14.73,0,0,0,1.5.63,5.53,5.53,0,0,1,2.06,1.12A2,2,0,0,1,2195.38,1756.35Z"/><path class="cls-4" d="M2198.79,1758.69h-1.3v-12.16h1.3Z"/><path class="cls-4" d="M2206.81,1758.69l-.26-1.22h-.07a3.63,3.63,0,0,1-1.27,1.09,3.94,3.94,0,0,1-1.59.28,2.85,2.85,0,0,1-2-.65,2.4,2.4,0,0,1-.72-1.87q0-2.6,4.15-2.72l1.45,0V1753a2.15,2.15,0,0,0-.43-1.48,1.75,1.75,0,0,0-1.39-.49,5.63,5.63,0,0,0-2.42.66l-.4-1a6.32,6.32,0,0,1,2.9-.74,3.28,3.28,0,0,1,2.27.68,2.86,2.86,0,0,1,.74,2.18v5.85Zm-2.93-.92a2.65,2.65,0,0,0,1.9-.66,2.45,2.45,0,0,0,.69-1.86v-.77l-1.3,0a4.83,4.83,0,0,0-2.23.48,1.47,1.47,0,0,0-.68,1.33,1.36,1.36,0,0,0,.42,1.07A1.81,1.81,0,0,0,2203.88,1757.77Z"/><path class="cls-4" d="M2216.3,1758.69v-5.54a2.21,2.21,0,0,0-.48-1.56,1.91,1.91,0,0,0-1.49-.52,2.45,2.45,0,0,0-2,.73,3.63,3.63,0,0,0-.63,2.4v4.49h-1.29v-8.56h1l.21,1.17h.07a2.59,2.59,0,0,1,1.11-1,3.54,3.54,0,0,1,1.6-.35,3.27,3.27,0,0,1,2.33.74,3.2,3.2,0,0,1,.78,2.39v5.59Z"/><path class="cls-4" d="M2226.09,1757.54H2226a3.05,3.05,0,0,1-2.69,1.3,3.18,3.18,0,0,1-2.61-1.14,5,5,0,0,1-.94-3.27,5.11,5.11,0,0,1,.94-3.29,3.48,3.48,0,0,1,5.28.09h.1l0-.61,0-.6v-3.49h1.29v12.16h-1Zm-2.6.22a2.37,2.37,0,0,0,1.93-.72,3.67,3.67,0,0,0,.6-2.34v-.27a4.34,4.34,0,0,0-.61-2.6,2.29,2.29,0,0,0-1.93-.78,2,2,0,0,0-1.75.89,4.46,4.46,0,0,0-.6,2.51,4.23,4.23,0,0,0,.6,2.47A2,2,0,0,0,2223.49,1757.76Z"/><circle class="cls-2" cx="1679.5" cy="2145.5" r="34"/><path class="cls-4" d="M1653.9,2149.59h-1.1v-10h5.28v1h-4.18v3.64h3.92v1h-3.92Z"/><path class="cls-4" d="M1660.56,2149.59h-1.08V2139h1.08Z"/><path class="cls-4" d="M1669,2145.85a4.23,4.23,0,0,1-.88,2.85,3.32,3.32,0,0,1-4.1.55,3.07,3.07,0,0,1-1.14-1.34,4.92,4.92,0,0,1-.4-2.06,4.26,4.26,0,0,1,.87-2.85,3,3,0,0,1,2.4-1,2.91,2.91,0,0,1,2.37,1.05A4.25,4.25,0,0,1,1669,2145.85Zm-5.41,0a3.64,3.64,0,0,0,.55,2.18,1.83,1.83,0,0,0,1.59.75,1.87,1.87,0,0,0,1.61-.75,4.65,4.65,0,0,0,0-4.35,1.9,1.9,0,0,0-1.62-.73,1.86,1.86,0,0,0-1.59.72A3.65,3.65,0,0,0,1663.55,2145.85Z"/><path class="cls-4" d="M1674.08,2142a3.61,3.61,0,0,1,.84.09l-.14,1a3.54,3.54,0,0,0-.78-.11,1.84,1.84,0,0,0-1.47.74,2.75,2.75,0,0,0-.61,1.83v4h-1.08v-7.47h.89l.12,1.38h.05a3.32,3.32,0,0,1,.95-1.12A2.1,2.1,0,0,1,1674.08,2142Z"/><path class="cls-4" d="M1682.37,2145.85a4.28,4.28,0,0,1-.87,2.85,3.32,3.32,0,0,1-4.1.55,3.07,3.07,0,0,1-1.14-1.34,4.92,4.92,0,0,1-.4-2.06,4.31,4.31,0,0,1,.86-2.85,3,3,0,0,1,2.41-1,2.94,2.94,0,0,1,2.37,1.05A4.25,4.25,0,0,1,1682.37,2145.85Zm-5.4,0a3.71,3.71,0,0,0,.54,2.18,1.86,1.86,0,0,0,1.6.75,1.84,1.84,0,0,0,1.6-.75,4.58,4.58,0,0,0,0-4.35,2.13,2.13,0,0,0-3.2,0A3.65,3.65,0,0,0,1677,2145.85Z"/><path class="cls-4" d="M1693.3,2149.59v-4.86a2.1,2.1,0,0,0-.36-1.34,1.36,1.36,0,0,0-1.13-.44,1.78,1.78,0,0,0-1.48.6,3,3,0,0,0-.48,1.87v4.17h-1.07v-4.86a2,2,0,0,0-.37-1.34,1.36,1.36,0,0,0-1.13-.44,1.74,1.74,0,0,0-1.48.63,3.62,3.62,0,0,0-.47,2.09v3.92h-1.07v-7.47h.87l.18,1h0a2.2,2.2,0,0,1,.86-.85,2.53,2.53,0,0,1,1.24-.31,2.1,2.1,0,0,1,2.17,1.27h0a2.26,2.26,0,0,1,.92-.92,2.71,2.71,0,0,1,1.37-.35,2.35,2.35,0,0,1,1.81.65,3.09,3.09,0,0,1,.6,2.09v4.87Z"/><path class="cls-4" d="M1701,2149.59l-.21-1.06h0a3.23,3.23,0,0,1-1.06.95,3.18,3.18,0,0,1-1.32.24,2.3,2.3,0,0,1-1.65-.57,2.14,2.14,0,0,1-.6-1.63c0-1.5,1.14-2.29,3.43-2.37l1.21,0v-.46a2,2,0,0,0-.36-1.3,1.43,1.43,0,0,0-1.15-.42,4.54,4.54,0,0,0-2,.57l-.33-.86a4.87,4.87,0,0,1,1.15-.47,4.53,4.53,0,0,1,1.25-.17,2.66,2.66,0,0,1,1.89.59,2.59,2.59,0,0,1,.61,1.9v5.1Zm-2.43-.8a2.11,2.11,0,0,0,1.58-.58,2.19,2.19,0,0,0,.57-1.62v-.67l-1.07,0a3.81,3.81,0,0,0-1.85.42,1.28,1.28,0,0,0-.57,1.16,1.17,1.17,0,0,0,.36.93A1.41,1.41,0,0,0,1698.52,2148.79Z"/><path class="cls-4" d="M1706.25,2148.79a3.24,3.24,0,0,0,.55,0,2.17,2.17,0,0,0,.42-.1v.87a1.85,1.85,0,0,1-.51.15,3.48,3.48,0,0,1-.61,0c-1.38,0-2.06-.76-2.06-2.28V2143h-1v-.55l1-.47.45-1.59h.62v1.73h2.06v.88h-2.06v4.39a1.54,1.54,0,0,0,.31,1A1,1,0,0,0,1706.25,2148.79Z"/><path class="cls-4" d="M1788.75,1977h-.68v-2.9H1785v2.9h-.68v-6.16h.68v2.62h3.09v-2.62h.68Z"/><path class="cls-4" d="M1792.11,1977.11a2,2,0,0,1-1.54-.62,2.52,2.52,0,0,1-.56-1.73,2.77,2.77,0,0,1,.52-1.78,1.7,1.7,0,0,1,1.41-.65,1.61,1.61,0,0,1,1.3.57,2.25,2.25,0,0,1,.48,1.5v.45h-3a1.85,1.85,0,0,0,.39,1.23,1.31,1.31,0,0,0,1,.42,3.31,3.31,0,0,0,1.4-.31v.62a2.74,2.74,0,0,1-.66.23A3.33,3.33,0,0,1,1792.11,1977.11Zm-.18-4.2a1,1,0,0,0-.84.36,1.78,1.78,0,0,0-.38,1h2.3a1.61,1.61,0,0,0-.28-1A1,1,0,0,0,1791.93,1972.91Z"/><path class="cls-4" d="M1797.55,1977l-.13-.66h0a1.92,1.92,0,0,1-.65.59,2,2,0,0,1-.82.15,1.41,1.41,0,0,1-1-.35,1.32,1.32,0,0,1-.37-1c0-.93.71-1.42,2.12-1.46l.75,0V1974a1.19,1.19,0,0,0-.22-.8.91.91,0,0,0-.71-.26,2.9,2.9,0,0,0-1.25.35l-.2-.53a3.2,3.2,0,0,1,.71-.29,3,3,0,0,1,.78-.11,1.63,1.63,0,0,1,1.16.37,1.59,1.59,0,0,1,.38,1.18V1977Zm-1.5-.49a1.31,1.31,0,0,0,1-.36,1.41,1.41,0,0,0,.35-1v-.41l-.66,0a2.22,2.22,0,0,0-1.14.26.78.78,0,0,0-.36.71.77.77,0,0,0,.22.58A.9.9,0,0,0,1796.05,1976.54Z"/><path class="cls-4" d="M1800.08,1977h-.66v-6.56h.66Z"/><path class="cls-4" d="M1802.91,1976.54a1.87,1.87,0,0,0,.34,0l.26-.06v.54a1.9,1.9,0,0,1-.32.09l-.38,0c-.85,0-1.27-.47-1.27-1.41V1973h-.63v-.33l.63-.29.28-1h.39v1.07h1.27v.54h-1.27v2.72a1,1,0,0,0,.18.64A.65.65,0,0,0,1802.91,1976.54Z"/><path class="cls-4" d="M1807.39,1977v-3a1.24,1.24,0,0,0-.24-.84,1,1,0,0,0-.77-.28,1.2,1.2,0,0,0-1,.4,2.07,2.07,0,0,0-.32,1.29V1977h-.66v-6.56h.66v2a4.91,4.91,0,0,1,0,.59h0a1.34,1.34,0,0,1,.56-.52,1.73,1.73,0,0,1,.83-.2,1.63,1.63,0,0,1,1.2.41,1.72,1.72,0,0,1,.41,1.28v3Z"/><path class="cls-4" d="M1811.3,1975.43a1.7,1.7,0,0,1,.28-1,3,3,0,0,1,1-.85,4.84,4.84,0,0,1-.47-.61,2.08,2.08,0,0,1-.19-.43,1.43,1.43,0,0,1-.07-.46,1.28,1.28,0,0,1,.39-1,1.6,1.6,0,0,1,1.09-.35,1.43,1.43,0,0,1,1,.35,1.29,1.29,0,0,1,.38,1,1.41,1.41,0,0,1-.28.83,3,3,0,0,1-.9.78l1.63,1.65a2.1,2.1,0,0,0,.36-.62,5,5,0,0,0,.23-.77h.67a4.1,4.1,0,0,1-.82,1.83l1.2,1.23h-.92l-.74-.75a3.15,3.15,0,0,1-1,.64,2.94,2.94,0,0,1-1.09.19,1.91,1.91,0,0,1-1.34-.44A1.64,1.64,0,0,1,1811.3,1975.43Zm1.82,1.06a2.18,2.18,0,0,0,1.61-.65l-1.75-1.79a3.88,3.88,0,0,0-.63.47,1,1,0,0,0-.27.41,1.22,1.22,0,0,0-.09.49,1,1,0,0,0,.31.78A1.16,1.16,0,0,0,1813.12,1976.49Zm-.62-4.4a1.12,1.12,0,0,0,.15.56,3.4,3.4,0,0,0,.49.63,2.75,2.75,0,0,0,.72-.58,1,1,0,0,0,.2-.62.74.74,0,0,0-.2-.53.8.8,0,0,0-.56-.2.78.78,0,0,0-.57.2A.69.69,0,0,0,1812.5,1972.09Z"/><path class="cls-4" d="M1819.77,1970.87h1.65a3.05,3.05,0,0,1,1.69.36,1.34,1.34,0,0,1,.52,1.16,1.42,1.42,0,0,1-.29.91,1.44,1.44,0,0,1-.85.46v0a1.4,1.4,0,0,1,1.33,1.48,1.61,1.61,0,0,1-.53,1.29,2.17,2.17,0,0,1-1.48.46h-2Zm.68,2.63h1.12a1.76,1.76,0,0,0,1-.23,1,1,0,0,0,.31-.81.82.82,0,0,0-.35-.74,2.06,2.06,0,0,0-1.12-.23h-1Zm0,.61v2.31h1.22a1.71,1.71,0,0,0,1.07-.29,1.1,1.1,0,0,0,.35-.9,1,1,0,0,0-.36-.85,1.91,1.91,0,0,0-1.12-.27Z"/><path class="cls-4" d="M1826.83,1977.11a1.94,1.94,0,0,1-1.53-.62,2.47,2.47,0,0,1-.56-1.73,2.77,2.77,0,0,1,.52-1.78,1.68,1.68,0,0,1,1.4-.65,1.63,1.63,0,0,1,1.31.57,2.25,2.25,0,0,1,.48,1.5v.45h-3a1.9,1.9,0,0,0,.4,1.23,1.3,1.3,0,0,0,1,.42,3.35,3.35,0,0,0,1.4-.31v.62a3,3,0,0,1-.67.23A3.33,3.33,0,0,1,1826.83,1977.11Zm-.18-4.2a1.06,1.06,0,0,0-.84.36,1.77,1.77,0,0,0-.37,1h2.3a1.67,1.67,0,0,0-.28-1A1,1,0,0,0,1826.65,1972.91Z"/><path class="cls-4" d="M1832.28,1977l-.13-.66h0a1.85,1.85,0,0,1-.66.59,2,2,0,0,1-.81.15,1.42,1.42,0,0,1-1-.35,1.36,1.36,0,0,1-.37-1c0-.93.71-1.42,2.13-1.46l.75,0V1974a1.19,1.19,0,0,0-.23-.8.89.89,0,0,0-.71-.26,2.86,2.86,0,0,0-1.24.35l-.2-.53a3,3,0,0,1,.71-.29,2.87,2.87,0,0,1,.77-.11,1.63,1.63,0,0,1,1.16.37,1.55,1.55,0,0,1,.38,1.18V1977Zm-1.5-.49a1.29,1.29,0,0,0,1-.36,1.37,1.37,0,0,0,.36-1v-.41l-.67,0a2.25,2.25,0,0,0-1.14.26.79.79,0,0,0-.35.71.73.73,0,0,0,.22.58A.88.88,0,0,0,1830.78,1976.54Z"/><path class="cls-4" d="M1834.77,1972.41v3a1.28,1.28,0,0,0,.24.84,1,1,0,0,0,.77.28,1.18,1.18,0,0,0,1-.4,2,2,0,0,0,.32-1.29v-2.43h.67V1977h-.55l-.1-.62h0a1.36,1.36,0,0,1-.57.52,1.84,1.84,0,0,1-.83.18,1.63,1.63,0,0,1-1.2-.4,1.77,1.77,0,0,1-.4-1.28v-3Z"/><path class="cls-4" d="M1840.59,1976.54a1.79,1.79,0,0,0,.34,0l.26-.06v.54a1.74,1.74,0,0,1-.31.09l-.38,0c-.85,0-1.28-.47-1.28-1.41V1973h-.62v-.33l.62-.29.28-1h.39v1.07h1.27v.54h-1.27v2.72a.94.94,0,0,0,.19.64A.63.63,0,0,0,1840.59,1976.54Z"/><path class="cls-4" d="M1841.38,1972.41h.71l1,2.63a10.61,10.61,0,0,1,.39,1.31h0c0-.15.11-.39.22-.74s.48-1.41,1.09-3.2h.71l-1.88,5.26a2.71,2.71,0,0,1-.66,1.11,1.39,1.39,0,0,1-.92.32,2.46,2.46,0,0,1-.6-.07v-.56a2.46,2.46,0,0,0,.49,0,1,1,0,0,0,1-.81l.25-.66Z"/><rect class="cls-3" x="2091.5" y="909.5" width="162" height="353"/><rect class="cls-3" x="1525.5" y="1780.5" width="228" height="149"/><path class="cls-4" d="M2212.84,964.77h-19.15a14,14,0,0,0-9.9,4.14l-39.18,39.76H2132a11.71,11.71,0,0,0-11.7,11.9,11.83,11.83,0,0,0,11.84,11.5h17.47a14,14,0,0,0,9.9-4.14l39.18-39.76H2213a11.71,11.71,0,0,0,11.7-11.9A11.83,11.83,0,0,0,2212.84,964.77Z"/><path class="cls-4" d="M2165.22,941.81a9,9,0,1,0,9,9A9,9,0,0,0,2165.22,941.81Z"/><path class="cls-4" d="M2165.42,962.14a9.17,9.17,0,0,0-9.2,9.19v18l18.07-18.19A9,9,0,0,0,2165.42,962.14Z"/><rect class="cls-4" x="1784.23" y="649.8" width="27.45" height="73.19"/><rect class="cls-4" x="1752.21" y="649.8" width="27.45" height="73.19"/><path class="cls-4" d="M1832.26,622.36H1731.62a2.28,2.28,0,0,0-2.28,2.28V725.28a2.28,2.28,0,0,0,2.28,2.28h16v-80a2.29,2.29,0,0,1,2.29-2.28h64a2.29,2.29,0,0,1,2.29,2.28v80h16a2.29,2.29,0,0,0,2.29-2.28V624.64A2.29,2.29,0,0,0,1832.26,622.36ZM1774.41,640a2.32,2.32,0,0,1-3.24,0l-3-3-3,3a2.29,2.29,0,0,1-3.23-3.24l4.57-4.57a2.3,2.3,0,0,1,3.24,0l4.57,4.57A2.3,2.3,0,0,1,1774.41,640Zm27.45-4.58-4.58,4.58a2.28,2.28,0,0,1-1.62.66A2.32,2.32,0,0,1,1794,640l-4.57-4.58a2.28,2.28,0,0,1,3.23-3.23l3,3,3-3a2.29,2.29,0,0,1,3.24,3.23Zm21.25,46.41a2.29,2.29,0,1,1,2.29-2.29A2.29,2.29,0,0,1,1823.11,681.82Zm0-9.15a2.29,2.29,0,1,1,2.29-2.28A2.29,2.29,0,0,1,1823.11,672.67Z"/><path class="cls-4" d="M1807.49,570.29c0-11.91-9.4-21.56-21-21.56a20,20,0,0,0-3.73.35,20.93,20.93,0,0,0-2.11.51l5.84,20.7Z"/><path class="cls-4" d="M1761,573.26a11.84,11.84,0,0,0-2.56-6.74c-2.08-2.61-5.26-4.34-9.43-5.18a2.54,2.54,0,0,0-2-.91h-2.73a2.6,2.6,0,1,0,0,5.2H1747a2.55,2.55,0,0,0,1.66-.61,11.71,11.71,0,0,1,6.82,3.74,8.32,8.32,0,0,1,1.81,4.51h-.11c0,11.39,11.29,20.64,25.23,20.64s25.22-9.24,25.22-20.64Z"/><path class="cls-4" d="M1772.49,594.82a7.19,7.19,0,1,0,7.18,7.18A7.19,7.19,0,0,0,1772.49,594.82Zm0,10.7A3.52,3.52,0,1,1,1776,602,3.52,3.52,0,0,1,1772.49,605.52Z"/><path class="cls-4" d="M1791.86,594.82a7.19,7.19,0,1,0,7.19,7.18A7.2,7.2,0,0,0,1791.86,594.82Zm0,10.7a3.52,3.52,0,1,1,3.51-3.51A3.51,3.51,0,0,1,1791.86,605.52Z"/><path class="cls-4" d="M1679.89,1821.28H1659.7a3.43,3.43,0,0,0-3.43,3.42v16.78H1639.5a3.42,3.42,0,0,0-3.42,3.42v16.78H1619.3a3.42,3.42,0,0,0-3.42,3.42v16.77h-16.77a3.43,3.43,0,1,0,0,6.85h20.19a3.43,3.43,0,0,0,3.43-3.42v-16.78h16.77a3.41,3.41,0,0,0,3.42-3.42v-16.78h16.78a3.41,3.41,0,0,0,3.42-3.42v-16.77h16.77a3.43,3.43,0,1,0,0-6.85Z"/><path class="cls-5" d="M2521.87,2291H665V1178H4V4H1717V320H2718V2110.83ZM686,2270H2513.69L2697,2101.61V341H1696V25H25V1157H686Z"/></svg>