<svg id="level-3" xmlns="http://www.w3.org/2000/svg" xmlns:xlink="http://www.w3.org/1999/xlink" viewBox="0 0 2389 2314.5" style="enable-background:new 0 0 2389 2314.5"><style>.st0{fill:#dbdbe0}.st1{fill:#cbcbcd}.st2{enable-background:new}.st3{fill:#aaaba7}.st4{fill:#ebebeb}.st5{fill:#bebebe}</style><title>Карта</title><g><path class="st0" d="M2344 2095.1V14.5H1156v1011H52v1062.1c-41.6 30.1-50.9 88.2-20.8 129.9s88.2 50.9 129.9 20.8c5.8-4.2 11-9 15.7-14.3 56.5 11.3 287.6 48.9 830.3 39.5V2221c83.4 95.8 228.7 105.9 324.5 22.5 11.6-10.1 22.2-21.3 31.5-33.5v53.5c637 11 844.7-42.6 844.7-42.6v0c32 40.2 90.5 46.9 130.7 14.9 40.2-32 46.9-90.5 14.9-130.7C2350.4 2101.5 2347.3 2098.2 2344 2095.1z"/></g><g><path class="st1" d="M1870 1917.5h-274v-80h-369v-396h-218V1025H291v1215.1c124 14 348.9 29.3 717.5 22.9v-42.5c83.4 95.8 228.7 105.9 324.5 22.5 11.6-10.1 22.2-21.3 31.5-33.5v53.5c214.3 3.7 380 .1 505.5-6.3V1917.5z"/></g><g><path class="st1" d="M2345.5 2094.6v0l-250.5-.1v-259h-202v419.9c230.4-12.9 316.2-35.1 316.2-35.1v0c31.9 40.2 90.4 46.9 130.7 15 40.2-31.9 46.9-90.4 15-130.7C2352 2101.1 2348.9 2097.7 2345.5 2094.6v0z"/></g><g><path class="st1" d="M2116.5 1835h225v241h-225z"/></g><g><path class="st1" d="M1892.5 1457h449v354h-449z"/></g><g><path class="st1" d="M1892.5 1068h449v365h-449z"/></g><g><path class="st1" d="M1998.5 14h-106-261-82H1167.8L1160.2 139 1151.6 298 1167.8 423H1233.5V298h316V481h343v563h449V14z"/></g><g><path class="st1" d="M1167.5 544h430v454h-430z"/></g><g><path class="st1" d="M1250.5 1649h347v163h-347z"/></g><g><path class="st1" d="M1030.5 1025v400.5H1253V1624h344.5V1025z"/></g><g class="st2"><path class="st3" d="M688.7 1692.3l-22.8-59.5h-.4c.4 4.7.6 10.3.6 16.8v42.7H659v-67.1h11.8l21.3 55.4h.4l21.4-55.4h11.7v67.1h-7.8v-43.2c0-5 .2-10.3.6-16.2h-.4l-22.9 59.4H688.7z"/><path class="st3" d="M786.1 1667.1c0 8.2-2.1 14.6-6.2 19.2s-9.8 6.9-17.1 6.9c-4.5.0-8.5-1.1-12-3.2s-6.2-5.1-8.1-9.1-2.8-8.6-2.8-13.9c0-8.2 2-14.6 6.2-19.2s9.8-6.9 17.1-6.9c7 0 12.6 2.3 16.8 7C784.1 1652.8 786.1 1659.1 786.1 1667.1zM747.8 1667.1c0 6.4 1.3 11.3 3.9 14.7 2.6 3.4 6.3 5 11.3 5s8.8-1.7 11.4-5c2.6-3.3 3.9-8.3 3.9-14.7.0-6.4-1.3-11.3-3.9-14.6-2.6-3.3-6.4-5-11.5-5-5 0-8.8 1.6-11.3 4.9S747.8 1660.6 747.8 1667.1z"/><path class="st3" d="M833.7 1685.6h-.4c-3.5 5.1-8.8 7.7-15.8 7.7-6.6.0-11.7-2.3-15.4-6.7-3.7-4.5-5.5-10.9-5.5-19.2.0-8.3 1.8-14.7 5.5-19.3s8.8-6.9 15.3-6.9c6.8.0 12.1 2.5 15.7 7.4h.6l-.3-3.6-.2-3.5V1621h7.6v71.4h-6.2L833.7 1685.6zM818.5 1686.8c5.2.0 9-1.4 11.3-4.2s3.5-7.4 3.5-13.7v-1.6c0-7.1-1.2-12.2-3.6-15.3-2.4-3-6.2-4.6-11.4-4.6-4.5.0-7.9 1.7-10.3 5.2-2.4 3.5-3.6 8.4-3.6 14.7.0 6.4 1.2 11.3 3.5 14.6S813.9 1686.8 818.5 1686.8z"/><path class="st3" d="M856.4 1628.4c0-1.7.4-3 1.3-3.8s1.9-1.2 3.2-1.2c1.2.0 2.3.4 3.2 1.2s1.3 2.1 1.3 3.8c0 1.7-.4 3-1.3 3.8s-1.9 1.3-3.2 1.3c-1.3.0-2.4-.4-3.2-1.3S856.4 1630.1 856.4 1628.4zM864.7 1692.3h-7.6V1642h7.6V1692.3z"/><path class="st3" d="M913.3 1678.6c0 4.7-1.7 8.3-5.2 10.8-3.5 2.5-8.4 3.8-14.7 3.8-6.7.0-11.9-1.1-15.6-3.2v-7.1c2.4 1.2 5 2.2 7.8 2.9 2.8.7 5.4 1.1 8 1.1 4 0 7-.6 9.2-1.9s3.2-3.2 3.2-5.8c0-2-.8-3.6-2.5-5s-5-3-9.9-4.9c-4.7-1.7-8-3.3-10-4.6s-3.4-2.8-4.4-4.4-1.4-3.6-1.4-5.9c0-4.1 1.7-7.3 5-9.7s7.9-3.6 13.7-3.6c5.4.0 10.7 1.1 15.9 3.3l-2.7 6.2c-5-2.1-9.6-3.1-13.7-3.1-3.6.0-6.3.6-8.2 1.7s-2.8 2.7-2.8 4.7c0 1.3.3 2.5 1 3.4.7.9 1.8 1.9 3.3 2.7s4.5 2.1 8.8 3.7c6 2.2 10 4.4 12.1 6.6C912.3 1672.5 913.3 1675.3 913.3 1678.6z"/></g><g class="st2"><path class="st3" d="M1791.7 287.3h-7.8v-60.2h-21.8l-1.4 11c-1.9 14.7-3.5 25.4-4.9 32.2-1.4 6.8-3.3 11.5-5.6 14.2s-5.4 4-9.3 3.9c-2.3.0-4.3-.4-6.1-1.1v-6.6c1.7.8 3.4 1.2 5.2 1.2 1.6.0 3-.7 4.2-2 1.2-1.3 2.3-3.6 3.2-6.9.9-3.3 2.1-9.5 3.5-18.7s3-20.5 4.7-34h36.1V287.3z"/><path class="st3" d="M1830.3 288.2c-7.4.0-13.3-2.3-17.6-6.8-4.3-4.5-6.4-10.8-6.4-18.9.0-8.1 2-14.5 6-19.3s9.4-7.2 16.1-7.2c6.3.0 11.3 2.1 15 6.2 3.7 4.1 5.5 9.6 5.5 16.4v4.8h-34.7c.2 5.9 1.6 10.4 4.5 13.4 2.8 3.1 6.8 4.6 12 4.6 5.4.0 10.8-1.1 16.1-3.4v6.8c-2.7 1.2-5.2 2-7.6 2.5C1836.6 288 1833.7 288.2 1830.3 288.2zM1828.2 242.5c-4 0-7.3 1.3-9.7 3.9-2.4 2.6-3.8 6.3-4.2 10.9h26.3c0-4.8-1.1-8.5-3.2-11S1832.2 242.5 1828.2 242.5z"/><path class="st3" d="M1905.2 262.1c0 8.2-2.1 14.6-6.2 19.2-4.1 4.6-9.8 6.9-17.1 6.9-4.5.0-8.5-1.1-12-3.2s-6.2-5.1-8.1-9.1-2.8-8.6-2.8-13.9c0-8.2 2-14.6 6.2-19.2 4.1-4.6 9.8-6.9 17.1-6.9 7 0 12.6 2.3 16.8 7C1903.1 247.8 1905.2 254.1 1905.2 262.1zM1866.9 262.1c0 6.4 1.3 11.3 3.9 14.7 2.6 3.4 6.3 5 11.3 5s8.8-1.7 11.4-5c2.6-3.3 3.9-8.3 3.9-14.7.0-6.4-1.3-11.3-3.9-14.6-2.6-3.3-6.4-5-11.5-5-5 0-8.8 1.6-11.3 4.9C1868.1 250.7 1866.9 255.6 1866.9 262.1z"/><path class="st3" d="M1926.2 237v21.1h28.2V237h7.6v50.3h-7.6v-22.7h-28.2v22.7h-7.6V237H1926.2z"/><path class="st3" d="M2009 287.3l-1.5-7.2h-.4c-2.5 3.2-5 5.3-7.5 6.4-2.5 1.1-5.6 1.7-9.3 1.7-5 0-8.9-1.3-11.7-3.9-2.8-2.6-4.2-6.2-4.2-11 0-10.2 8.1-15.5 24.4-16l8.5-.3v-3c0-3.9-.8-6.9-2.5-8.7-1.7-1.9-4.4-2.8-8.1-2.8-4.2.0-8.9 1.3-14.2 3.9l-2.3-5.8c2.5-1.3 5.2-2.4 8.1-3.2 3-.8 5.9-1.1 8.9-1.1 6 0 10.4 1.3 13.3 4s4.3 6.9 4.3 12.8v34.3H2009zM1991.8 281.9c4.7.0 8.5-1.3 11.2-3.9 2.7-2.6 4.1-6.2 4.1-10.9v-4.5l-7.6.3c-6.1.2-10.4 1.2-13.1 2.8-2.7 1.7-4 4.3-4 7.8.0 2.8.8 4.9 2.5 6.3C1986.5 281.2 1988.8 281.9 1991.8 281.9z"/><path class="st3" d="M2053.8 288.2c-3.3.0-6.3-.6-9-1.8-2.7-1.2-5-3.1-6.8-5.6h-.6c.4 2.9.6 5.7.6 8.4v20.7h-7.6V237h6.2l1.1 6.9h.4c2-2.8 4.2-4.7 6.8-6 2.6-1.2 5.6-1.8 9-1.8 6.7.0 11.8 2.3 15.4 6.8 3.6 4.6 5.4 11 5.4 19.2.0 8.3-1.8 14.7-5.5 19.3C2065.5 285.9 2060.3 288.2 2053.8 288.2zM2052.7 242.6c-5.1.0-8.9 1.4-11.2 4.3s-3.5 7.4-3.5 13.6v1.7c0 7.1 1.2 12.1 3.5 15.2 2.4 3 6.1 4.6 11.3 4.6 4.3.0 7.7-1.8 10.2-5.3 2.5-3.5 3.7-8.4 3.7-14.5.0-6.3-1.2-11.1-3.7-14.4C2060.6 244.2 2057.2 242.6 2052.7 242.6z"/><path class="st3" d="M2131.7 304.7h-7.4v-17.4h-35.2v17.4h-7.3v-24h3.9c4.1-5.6 7.3-12.1 9.6-19.6 2.3-7.5 3.5-15.5 3.6-24.1h25.5v43.7h7.2v24zM2117.1 280.7V243h-11.3c-.4 6.8-1.7 13.7-3.9 20.6-2.2 7-5 12.7-8.3 17.1H2117.1z"/><path class="st3" d="M2185.2 262.1c0 8.2-2.1 14.6-6.2 19.2-4.1 4.6-9.8 6.9-17.1 6.9-4.5.0-8.5-1.1-12-3.2s-6.2-5.1-8.1-9.1-2.8-8.6-2.8-13.9c0-8.2 2-14.6 6.2-19.2 4.1-4.6 9.8-6.9 17.1-6.9 7 0 12.6 2.3 16.8 7C2183.1 247.8 2185.2 254.1 2185.2 262.1zM2146.8 262.1c0 6.4 1.3 11.3 3.9 14.7 2.6 3.4 6.3 5 11.3 5s8.8-1.7 11.4-5c2.6-3.3 3.9-8.3 3.9-14.7.0-6.4-1.3-11.3-3.9-14.6-2.6-3.3-6.4-5-11.5-5-5 0-8.8 1.6-11.3 4.9C2148.1 250.7 2146.8 255.6 2146.8 262.1z"/></g><g class="st2"><path class="st3" d="M1127.6 1270.9h-6.1v-21.7c-3.6 1.3-6.5 2.1-8.9 2.6s-4.8.7-7.4.7c-4.9.0-8.8-1.1-11.4-3.4-2.7-2.3-4-5.5-4-9.8v-20.8h6.1v20.1c0 2.9.8 5 2.3 6.4 1.5 1.4 4 2.1 7.4 2.1 2.3.0 4.5-.2 6.7-.5s5.2-1.2 9.2-2.5v-25.6h6.1V1270.9z"/><path class="st3" d="M1146.7 1231.6v24.9l-.3 6.5-.1 2 21.3-33.5h7.4v39.3h-5.6v-24l.1-4.7.2-4.7-21.2 33.4h-7.4v-39.3H1146.7z"/><path class="st3" d="M1214.1 1236.7h-12.8v34.2h-6v-34.2h-12.6v-5.1h31.3V1236.7z"/><path class="st3" d="M1246.1 1270.9l-1.2-5.6h-.3c-2 2.5-3.9 4.1-5.9 5-1.9.9-4.4 1.3-7.3 1.3-3.9.0-7-1-9.2-3-2.2-2-3.3-4.9-3.3-8.6.0-7.9 6.3-12.1 19-12.5l6.7-.2v-2.4c0-3.1-.7-5.4-2-6.8-1.3-1.5-3.4-2.2-6.4-2.2-3.3.0-7 1-11.1 3l-1.8-4.6c1.9-1.1 4.1-1.9 6.4-2.5 2.3-.6 4.6-.9 6.9-.9 4.7.0 8.2 1 10.4 3.1 2.3 2.1 3.4 5.4 3.4 10v26.8H1246.1zM1232.6 1266.7c3.7.0 6.6-1 8.7-3 2.1-2 3.2-4.9 3.2-8.5v-3.5l-6 .3c-4.7.2-8.1.9-10.2 2.2s-3.1 3.3-3.1 6.1c0 2.2.7 3.8 2 4.9C1228.5 1266.1 1230.3 1266.7 1232.6 1266.7z"/><path class="st3" d="M1268.3 1231.6v24.9l-.3 6.5-.1 2 21.3-33.5h7.4v39.3h-5.6v-24l.1-4.7.2-4.7-21.2 33.4h-7.4v-39.3H1268.3zM1279.6 1226.4c-4.4.0-7.6-.9-9.7-2.6-2-1.7-3.2-4.5-3.4-8.4h5.6c.2 2.5.9 4.2 2 5.2 1.1 1 3 1.5 5.7 1.5 2.5.0 4.3-.5 5.5-1.6 1.2-1.1 1.9-2.7 2.2-5.1h5.6c-.3 3.8-1.5 6.6-3.6 8.3C1287.2 1225.5 1284 1226.4 1279.6 1226.4z"/><path class="st3" d="M1306 1253.9v-5.5h17.6v5.5H1306z"/><path class="st3" d="M1363 1218.5v5.5h-23.1v46.9h-6.1v-52.4H1363z"/><path class="st3" d="M1405 1251.2c0 6.4-1.6 11.4-4.8 15s-7.7 5.4-13.4 5.4c-3.5.0-6.6-.8-9.4-2.5-2.7-1.6-4.8-4-6.3-7.1-1.5-3.1-2.2-6.7-2.2-10.8.0-6.4 1.6-11.4 4.8-15s7.6-5.4 13.3-5.4c5.5.0 9.9 1.8 13.1 5.5C1403.4 1240 1405 1245 1405 1251.2zM1375.1 1251.2c0 5 1 8.8 3 11.5 2 2.6 5 3.9 8.9 3.9 3.9.0 6.9-1.3 8.9-3.9 2-2.6 3-6.4 3-11.5.0-5-1-8.8-3-11.4-2-2.6-5-3.9-8.9-3.9-3.9.0-6.8 1.3-8.8 3.8C1376.1 1242.3 1375.1 1246.1 1375.1 1251.2z"/><path class="st3" d="M1433.7 1271.6c-2.6.0-4.9-.5-7-1.4-2.1-.9-3.9-2.4-5.3-4.4h-.4c.3 2.3.4 4.5.4 6.5v16.2h-6v-56.9h4.8l.8 5.4h.3c1.5-2.2 3.3-3.7 5.3-4.7 2-1 4.4-1.4 7-1.4 5.2.0 9.2 1.8 12.1 5.3 2.8 3.6 4.2 8.6 4.2 15 0 6.5-1.4 11.5-4.3 15C1442.8 1269.8 1438.9 1271.6 1433.7 1271.6zM1432.9 1235.9c-4 0-6.9 1.1-8.7 3.3-1.8 2.2-2.7 5.8-2.8 10.6v1.3c0 5.5.9 9.5 2.8 11.9 1.8 2.4 4.8 3.6 8.9 3.6 3.4.0 6.1-1.4 8-4.1 1.9-2.7 2.9-6.5 2.9-11.4.0-4.9-1-8.7-2.9-11.3C1439.1 1237.2 1436.4 1235.9 1432.9 1235.9z"/><path class="st3" d="M1494.4 1251.2c0 6.4-1.6 11.4-4.8 15s-7.7 5.4-13.4 5.4c-3.5.0-6.6-.8-9.4-2.5-2.7-1.6-4.8-4-6.3-7.1-1.5-3.1-2.2-6.7-2.2-10.8.0-6.4 1.6-11.4 4.8-15s7.6-5.4 13.3-5.4c5.5.0 9.9 1.8 13.1 5.5C1492.7 1240 1494.4 1245 1494.4 1251.2zm-30 0c0 5 1 8.8 3 11.5 2 2.6 5 3.9 8.9 3.9 3.9.0 6.9-1.3 8.9-3.9 2-2.6 3-6.4 3-11.5.0-5-1-8.8-3-11.4-2-2.6-5-3.9-8.9-3.9-3.9.0-6.8 1.3-8.8 3.8C1465.4 1242.3 1464.4 1246.1 1464.4 1251.2z"/><path class="st3" d="M1538.9 1284.5h-5.8v-13.6h-27.5v13.6h-5.7v-18.7h3.1c3.2-4.4 5.7-9.5 7.5-15.3 1.8-5.9 2.8-12.1 2.8-18.9h19.9v34.2h5.6V1284.5zM1527.6 1265.8v-29.5h-8.8c-.3 5.3-1.3 10.7-3.1 16.1-1.7 5.4-3.9 9.9-6.5 13.4H1527.6z"/></g><g class="st2"><path class="st3" d="M2029.1 1234.9c0 5.3-1.8 9.4-5.4 12.2-3.6 2.9-8.8 4.3-15.5 4.3h-6.2v20.6h-6.1v-52.4h13.6C2022.5 1219.6 2029.1 1224.7 2029.1 1234.9zM2001.9 1246.2h5.5c5.4.0 9.3-.9 11.7-2.6 2.4-1.7 3.6-4.5 3.6-8.4.0-3.5-1.1-6-3.4-7.7-2.3-1.7-5.8-2.5-10.6-2.5h-6.8V1246.2z"/><path class="st3" d="M2063.3 1272l-1.2-5.6h-.3c-2 2.5-3.9 4.1-5.9 5-1.9.9-4.4 1.3-7.3 1.3-3.9.0-7-1-9.2-3-2.2-2-3.3-4.9-3.3-8.6.0-7.9 6.3-12.1 19-12.5l6.7-.2v-2.4c0-3.1-.7-5.4-2-6.8-1.3-1.5-3.4-2.2-6.4-2.2-3.3.0-7 1-11.1 3l-1.8-4.6c1.9-1.1 4.1-1.9 6.4-2.5 2.3-.6 4.6-.9 6.9-.9 4.7.0 8.2 1 10.4 3.1 2.3 2.1 3.4 5.4 3.4 10v26.8H2063.3zM2049.9 1267.8c3.7.0 6.6-1 8.7-3 2.1-2 3.2-4.9 3.2-8.5v-3.5l-6 .3c-4.7.2-8.1.9-10.2 2.2s-3.1 3.3-3.1 6.1c0 2.2.7 3.8 2 4.9C2045.7 1267.3 2047.5 1267.8 2049.9 1267.8z"/><path class="st3" d="M2085.6 1232.7v24.9l-.3 6.5-.1 2 21.3-33.5h7.4v39.3h-5.6v-24l.1-4.7.2-4.7-21.2 33.4h-7.4v-39.3H2085.6zM2096.8 1227.5c-4.4.0-7.6-.9-9.7-2.6-2-1.7-3.2-4.5-3.4-8.4h5.6c.2 2.5.9 4.2 2 5.2 1.1 1 3 1.5 5.7 1.5 2.5.0 4.3-.5 5.5-1.6 1.2-1.1 1.9-2.7 2.2-5.1h5.6c-.3 3.8-1.5 6.6-3.6 8.3C2104.5 1226.6 2101.2 1227.5 2096.8 1227.5z"/><path class="st3" d="M2153 1237.8h-12.8v34.2h-6v-34.2h-12.6v-5.1h31.3V1237.8z"/><path class="st3" d="M2194.7 1252.3c0 6.4-1.6 11.4-4.8 15s-7.7 5.4-13.4 5.4c-3.5.0-6.6-.8-9.4-2.5-2.7-1.6-4.8-4-6.3-7.1-1.5-3.1-2.2-6.7-2.2-10.8.0-6.4 1.6-11.4 4.8-15s7.6-5.4 13.3-5.4c5.5.0 9.9 1.8 13.1 5.5C2193.1 1241.1 2194.7 1246.1 2194.7 1252.3zM2164.8 1252.3c0 5 1 8.8 3 11.5 2 2.6 5 3.9 8.9 3.9 3.9.0 6.9-1.3 8.9-3.9 2-2.6 3-6.4 3-11.5.0-5-1-8.8-3-11.4-2-2.6-5-3.9-8.9-3.9-3.9.0-6.8 1.3-8.8 3.8C2165.8 1243.4 2164.8 1247.3 2164.8 1252.3z"/><path class="st3" d="M2211.1 1232.7v16.5h22v-16.5h6v39.3h-6v-17.7h-22v17.7h-6v-39.3h6z"/></g><g class="st2"><path class="st3" d="M2041 1628.8c0 8.7-2.3 15.3-7 19.8-4.7 4.6-11.5 6.9-20.3 6.9h-14.5v-52.4h16.1c8.2.0 14.5 2.3 19 6.8S2041 1620.7 2041 1628.8zM2034.5 1629c0-6.8-1.7-12-5.1-15.5-3.4-3.5-8.5-5.2-15.3-5.2h-8.9v41.9h7.4c7.3.0 12.7-1.8 16.4-5.4S2034.5 1636 2034.5 1629z"/><path class="st3" d="M2069.7 1615.5c1.7.0 3.3.1 4.7.4l-.8 5.5c-1.6-.4-3.1-.5-4.3-.5-3.2.0-5.9 1.3-8.2 3.9-2.3 2.6-3.4 5.8-3.4 9.6v21.1h-6v-39.3h4.9l.7 7.3h.3c1.5-2.6 3.2-4.5 5.3-5.9C2065 1616.2 2067.2 1615.5 2069.7 1615.5z"/><path class="st3" d="M2087.3 1616.2v25.5c0 3.2.7 5.6 2.2 7.2 1.5 1.6 3.7 2.4 6.8 2.4 4.1.0 7.1-1.1 9-3.4s2.8-5.9 2.8-11v-20.7h6v39.3h-4.9l-.9-5.3h-.3c-1.2 1.9-2.9 3.4-5.1 4.4-2.2 1-4.6 1.5-7.4 1.5-4.8.0-8.4-1.1-10.7-3.4-2.4-2.3-3.6-5.9-3.6-10.9v-25.7H2087.3z"/><path class="st3" d="M2159 1616.2v3.8l-7.3.9c.7.8 1.3 1.9 1.8 3.3.5 1.4.8 2.9.8 4.6.0 3.8-1.3 6.9-3.9 9.2-2.6 2.3-6.2 3.4-10.8 3.4-1.2.0-2.3-.1-3.3-.3-2.5 1.3-3.8 3-3.8 5.1.0 1.1.4 1.9 1.3 2.4.9.5 2.4.8 4.6.8h7c4.3.0 7.5.9 9.8 2.7 2.3 1.8 3.4 4.4 3.4 7.8.0 4.4-1.7 7.7-5.2 9.9-3.5 2.3-8.6 3.4-15.3 3.4-5.1.0-9.1-1-11.9-2.9-2.8-1.9-4.2-4.6-4.2-8.1.0-2.4.8-4.5 2.3-6.2 1.5-1.7 3.7-2.9 6.5-3.5-1-.5-1.8-1.2-2.5-2.1-.7-1-1-2.1-1-3.3.0-1.4.4-2.7 1.1-3.8.8-1.1 2-2.1 3.6-3.1-2-.8-3.7-2.3-5-4.3-1.3-2-1.9-4.3-1.9-6.9.0-4.3 1.3-7.6 3.9-9.9 2.6-2.3 6.2-3.5 11-3.5 2.1.0 3.9.2 5.6.7H2159zM2127.6 1662.1c0 2.1.9 3.7 2.7 4.8s4.4 1.6 7.7 1.6c5 0 8.7-.7 11.1-2.2s3.6-3.5 3.6-6.1c0-2.1-.7-3.6-2-4.4-1.3-.8-3.8-1.2-7.4-1.2h-7.1c-2.7.0-4.8.6-6.3 1.9C2128.4 1657.8 2127.6 1659.7 2127.6 1662.1zM2130.9 1628.8c0 2.7.8 4.8 2.3 6.2s3.7 2.1 6.5 2.1c5.8.0 8.7-2.8 8.7-8.5.0-5.9-2.9-8.9-8.8-8.9-2.8.0-4.9.8-6.5 2.3S2130.9 1625.8 2130.9 1628.8z"/><path class="st3" d="M2201 1635.8c0 6.4-1.6 11.4-4.8 15s-7.7 5.4-13.4 5.4c-3.5.0-6.6-.8-9.4-2.5-2.7-1.6-4.8-4-6.3-7.1-1.5-3.1-2.2-6.7-2.2-10.8.0-6.4 1.6-11.4 4.8-15s7.6-5.4 13.3-5.4c5.5.0 9.9 1.8 13.1 5.5C2199.3 1624.6 2201 1629.6 2201 1635.8zm-30 0c0 5 1 8.8 3 11.5 2 2.6 5 3.9 8.9 3.9 3.9.0 6.9-1.3 8.9-3.9 2-2.6 3-6.4 3-11.5.0-5-1-8.8-3-11.4-2-2.6-5-3.9-8.9-3.9-3.9.0-6.8 1.3-8.8 3.8C2172 1626.9 2171 1630.8 2171 1635.8z"/><path class="st3" d="M2205.1 1616.2h6.4l8.6 22.4c1.9 5.1 3.1 8.8 3.5 11.1h.3c.3-1.2 1-3.3 2-6.3 1-3 4.2-12 9.7-27.2h6.4l-16.9 44.7c-1.7 4.4-3.6 7.6-5.9 9.4-2.2 1.9-5 2.8-8.2 2.8-1.8.0-3.6-.2-5.4-.6v-4.8c1.3.3 2.8.4 4.4.4 4.1.0 7-2.3 8.7-6.9l2.2-5.6L2205.1 1616.2z"/></g><g class="st2"><path class="st3" d="M1369.9 1714.4h3.1v3.3h1.3c2.1.0 3.9.4 5.4 1.2 1.5.8 2.7 2 3.5 3.5.8 1.5 1.2 3.2 1.2 5.2.0 2-.5 3.8-1.4 5.4-.9 1.6-2.1 2.8-3.7 3.6-1.6.8-3.4 1.2-5.6 1.2h-.7v4.1h-3.1v-4.1h-.8c-2.1.0-4-.4-5.6-1.2-1.6-.8-2.8-2-3.7-3.6-.9-1.6-1.3-3.4-1.3-5.3.0-1.9.4-3.6 1.2-5.1.8-1.5 2-2.7 3.5-3.5 1.5-.8 3.3-1.3 5.4-1.3h1.2V1714.4zM1369.9 1720.3h-1c-2.2.0-4 .6-5.2 1.9-1.3 1.3-1.9 3-1.9 5.3.0 2.4.7 4.3 2 5.6 1.4 1.3 3.3 2 5.7 2h.4V1720.3zM1373 1735.1h.5c2.4.0 4.3-.7 5.7-2 1.4-1.3 2-3.2 2-5.6.0-2.3-.6-4-1.9-5.3s-3-1.9-5.3-1.9h-1.1V1735.1z"/><path class="st3" d="M1401.9 1741.5l-.6-2.8h-.1c-1 1.3-2 2.1-3 2.5-1 .4-2.2.7-3.7.7-2 0-3.5-.5-4.7-1.5-1.1-1-1.7-2.5-1.7-4.4.0-4 3.2-6.2 9.7-6.4l3.4-.1v-1.2c0-1.6-.3-2.7-1-3.5-.7-.7-1.8-1.1-3.2-1.1-1.7.0-3.6.5-5.7 1.5l-.9-2.3c1-.5 2.1-1 3.2-1.3 1.2-.3 2.4-.5 3.5-.5 2.4.0 4.2.5 5.3 1.6 1.2 1.1 1.7 2.8 1.7 5.1v13.7H1401.9zM1395.1 1739.3c1.9.0 3.4-.5 4.4-1.6 1.1-1 1.6-2.5 1.6-4.3v-1.8l-3 .1c-2.4.1-4.1.5-5.2 1.1-1.1.7-1.6 1.7-1.6 3.1.0 1.1.3 1.9 1 2.5C1392.9 1739 1393.9 1739.3 1395.1 1739.3z"/><path class="st3" d="M1413.4 1721.5v8.4h11.2v-8.4h3v20h-3v-9h-11.2v9h-3v-20h3z"/><path class="st3" d="M1447.6 1724h-6.5v17.4h-3V1724h-6.4v-2.6h16V1724z"/><path class="st3" d="M1454.4 1721.5v12.7l-.1 3.3-.1 1 10.8-17.1h3.8v20h-2.8v-12.2l.1-2.4.1-2.4-10.8 17h-3.8v-20H1454.4z"
		/><path class="st3" d="M1486.9 1721.5h3.3l-8.6 9.7 9.3 10.4h-3.5l-9.1-10.1v10.1h-3v-20h3v9.7L1486.9 1721.5z"/></g><g class="st2"><path class="st3" d="M2002.4 2171.5h-3.8l-12.3-13.5v13.5h-3.1v-26.7h3.1v12.9l12-12.9h3.6l-11.8 13L2002.4 2171.5z"/><path class="st3" d="M2017.9 2171.5l-.6-2.8h-.1c-1 1.3-2 2.1-3 2.5-1 .4-2.2.7-3.7.7-2 0-3.5-.5-4.7-1.5-1.1-1-1.7-2.5-1.7-4.4.0-4 3.2-6.2 9.7-6.4l3.4-.1v-1.2c0-1.6-.3-2.7-1-3.5-.7-.7-1.8-1.1-3.2-1.1-1.7.0-3.6.5-5.7 1.5l-.9-2.3c1-.5 2.1-1 3.2-1.3 1.2-.3 2.4-.5 3.5-.5 2.4.0 4.2.5 5.3 1.6 1.2 1.1 1.7 2.8 1.7 5.1v13.7H2017.9zM2011.1 2169.3c1.9.0 3.4-.5 4.4-1.6 1.1-1 1.6-2.5 1.6-4.3v-1.8l-3 .1c-2.4.1-4.1.5-5.2 1.1-1.1.7-1.6 1.7-1.6 3.1.0 1.1.3 1.9 1 2.5C2009 2169 2009.9 2169.3 2011.1 2169.3z"/><path class="st3" d="M2047.9 2161.4c0 3-.9 5.4-2.6 7.2-1.7 1.8-4.1 2.8-7.2 3.1v8.7h-3v-8.7c-3-.2-5.4-1.3-7.2-3.1-1.8-1.8-2.6-4.2-2.6-7.2.0-3 .9-5.4 2.6-7.2 1.7-1.8 4.2-2.8 7.3-3v-8.1h2.9v8.1c3.1.3 5.5 1.3 7.2 3.2C2047 2156.1 2047.9 2158.5 2047.9 2161.4zM2028.5 2161.4c0 2.3.5 4.2 1.6 5.5 1.1 1.3 2.8 2.1 5.1 2.3v-15.6c-2.3.2-3.9.9-5 2.2C2029 2157.2 2028.5 2159 2028.5 2161.4zM2044.7 2161.4c0-4.7-2.2-7.2-6.7-7.7v15.5c2.3-.2 4-1 5.1-2.3C2044.2 2165.6 2044.7 2163.8 2044.7 2161.4z"/><path class="st3" d="M2061.6 2171.8c-3 0-5.3-.9-7-2.7-1.7-1.8-2.6-4.3-2.6-7.5.0-3.2.8-5.8 2.4-7.7 1.6-1.9 3.7-2.8 6.4-2.8 2.5.0 4.5.8 6 2.5s2.2 3.8 2.2 6.5v1.9h-13.8c.1 2.3.7 4.1 1.8 5.3 1.1 1.2 2.7 1.8 4.8 1.8 2.2.0 4.3-.5 6.4-1.4v2.7c-1.1.5-2.1.8-3 1C2064.1 2171.7 2063 2171.8 2061.6 2171.8zM2060.8 2153.6c-1.6.0-2.9.5-3.8 1.6-1 1-1.5 2.5-1.7 4.3h10.5c0-1.9-.4-3.4-1.3-4.4C2063.6 2154.1 2062.4 2153.6 2060.8 2153.6z"/><path class="st3" d="M2096 2157.5h9.1v13c-1.4.5-2.8.8-4.3 1-1.5.2-3.2.3-5.1.3-4 0-7.2-1.2-9.4-3.6-2.3-2.4-3.4-5.8-3.4-10.1.0-2.8.6-5.2 1.7-7.3 1.1-2.1 2.7-3.7 4.8-4.8 2.1-1.1 4.5-1.7 7.4-1.7 2.8.0 5.5.5 8 1.6l-1.2 2.7c-2.4-1-4.7-1.5-7-1.5-3.2.0-5.8 1-7.6 2.9-1.8 1.9-2.7 4.6-2.7 8.1.0 3.6.9 6.3 2.6 8.2s4.3 2.8 7.8 2.8c1.8.0 3.7-.2 5.4-.6v-8.2h-6V2157.5z"/><path class="st3" d="M2113.9 2151.5v13c0 1.6.4 2.8 1.1 3.7.7.8 1.9 1.2 3.5 1.2 2.1.0 3.6-.6 4.6-1.7 1-1.1 1.5-3 1.5-5.6v-10.5h3v20h-2.5l-.4-2.7h-.2c-.6 1-1.5 1.7-2.6 2.3-1.1.5-2.4.8-3.8.8-2.4.0-4.3-.6-5.5-1.7s-1.8-3-1.8-5.5v-13.1H2113.9z"/><path class="st3" d="M2146.9 2166c0 1.9-.7 3.3-2.1 4.3-1.4 1-3.3 1.5-5.8 1.5-2.7.0-4.7-.4-6.2-1.3v-2.8c1 .5 2 .9 3.1 1.2s2.2.4 3.2.4c1.6.0 2.8-.3 3.7-.8s1.3-1.3 1.3-2.3c0-.8-.3-1.4-1-2s-2-1.2-4-2c-1.9-.7-3.2-1.3-4-1.8-.8-.5-1.4-1.1-1.8-1.8-.4-.7-.6-1.4-.6-2.4.0-1.6.7-2.9 2-3.9 1.3-.9 3.1-1.4 5.5-1.4 2.2.0 4.3.4 6.3 1.3l-1.1 2.5c-2-.8-3.8-1.2-5.5-1.2-1.4.0-2.5.2-3.3.7-.7.5-1.1 1.1-1.1 1.9.0.5.1 1 .4 1.4.3.4.7.7 1.3 1.1.6.3 1.8.8 3.5 1.5 2.4.9 4 1.7 4.8 2.6C2146.5 2163.6 2146.9 2164.7 2146.9 2166z"/><path class="st3" d="M2158.3 2169.3c.5.0 1.1.0 1.6-.1.5-.1.9-.2 1.2-.2v2.3c-.3.2-.8.3-1.5.4-.6.1-1.2.2-1.7.2-3.9.0-5.8-2-5.8-6.1v-11.9h-2.9v-1.5l2.9-1.3 1.3-4.3h1.8v4.6h5.8v2.4h-5.8v11.8c0 1.2.3 2.1.9 2.8S2157.3 2169.3 2158.3 2169.3z"/><path class="st3" d="M2182.3 2161.4c0 3.3-.8 5.8-2.5 7.6-1.6 1.8-3.9 2.7-6.8 2.7-1.8.0-3.4-.4-4.8-1.3s-2.5-2-3.2-3.6c-.8-1.6-1.1-3.4-1.1-5.5.0-3.3.8-5.8 2.4-7.6 1.6-1.8 3.9-2.7 6.8-2.7 2.8.0 5 .9 6.7 2.8S2182.3 2158.3 2182.3 2161.4zM2167.1 2161.4c0 2.6.5 4.5 1.5 5.8s2.5 2 4.5 2c2 0 3.5-.7 4.5-2s1.5-3.3 1.5-5.9c0-2.5-.5-4.5-1.5-5.8s-2.5-2-4.6-2c-2 0-3.5.7-4.5 2C2167.6 2156.9 2167.1 2158.9 2167.1 2161.4z"/><path class="st3" d="M2214.7 2152.5c0 2.7-.9 4.8-2.8 6.2-1.8 1.5-4.5 2.2-7.9 2.2h-3.1v10.5h-3.1v-26.7h6.9C2211.4 2144.8 2214.7 2147.4 2214.7 2152.5zM2200.9 2158.3h2.8c2.8.0 4.7-.4 6-1.3 1.2-.9 1.8-2.3 1.8-4.3.0-1.8-.6-3.1-1.7-3.9-1.2-.9-3-1.3-5.4-1.3h-3.5V2158.3z"/><path class="st3" d="M2219.6 2146c0-.7.2-1.2.5-1.5s.8-.5 1.3-.5c.5.0.9.2 1.3.5.4.3.5.8.5 1.5s-.2 1.2-.5 1.5c-.4.3-.8.5-1.3.5-.5.0-.9-.2-1.3-.5S2219.6 2146.7 2219.6 2146zM2222.9 2171.5h-3v-20h3v20z"
		/><path class="st3" d="M2242.1 2171.5h-14.5v-2.1l10.9-15.6h-10.2v-2.4h13.6v2.4l-10.8 15.3h11V2171.5z"/><path class="st3" d="M2259.6 2171.5h-14.5v-2.1l10.9-15.6h-10.2v-2.4h13.6v2.4l-10.8 15.3h11V2171.5z"/><path class="st3" d="M2276.6 2171.5l-.6-2.8h-.1c-1 1.3-2 2.1-3 2.5-1 .4-2.2.7-3.7.7-2 0-3.5-.5-4.7-1.5-1.1-1-1.7-2.5-1.7-4.4.0-4 3.2-6.2 9.7-6.4l3.4-.1v-1.2c0-1.6-.3-2.7-1-3.5-.7-.7-1.8-1.1-3.2-1.1-1.7.0-3.6.5-5.7 1.5l-.9-2.3c1-.5 2.1-1 3.2-1.3 1.2-.3 2.4-.5 3.5-.5 2.4.0 4.2.5 5.3 1.6 1.2 1.1 1.7 2.8 1.7 5.1v13.7H2276.6zM2269.8 2169.3c1.9.0 3.4-.5 4.4-1.6 1.1-1 1.6-2.5 1.6-4.3v-1.8l-3 .1c-2.4.1-4.1.5-5.2 1.1-1.1.7-1.6 1.7-1.6 3.1.0 1.1.3 1.9 1 2.5C2267.6 2169 2268.6 2169.3 2269.8 2169.3z"/></g><g class="st2"><path class="st3" d="M2168.6 1966.5h-3.1v-23.9h-13.7v23.9h-3.1v-26.7h19.9V1966.5z"/><path class="st3" d="M2192.8 1956.4c0 3.3-.8 5.8-2.5 7.6-1.6 1.8-3.9 2.7-6.8 2.7-1.8.0-3.4-.4-4.8-1.3s-2.5-2-3.2-3.6c-.8-1.6-1.1-3.4-1.1-5.5.0-3.3.8-5.8 2.4-7.6 1.6-1.8 3.9-2.7 6.8-2.7 2.8.0 5 .9 6.7 2.8S2192.8 1953.3 2192.8 1956.4zM2177.5 1956.4c0 2.6.5 4.5 1.5 5.8s2.5 2 4.5 2c2 0 3.5-.7 4.5-2s1.5-3.3 1.5-5.9c0-2.5-.5-4.5-1.5-5.8s-2.5-2-4.6-2c-2 0-3.5.7-4.5 2C2178.1 1951.9 2177.5 1953.9 2177.5 1956.4z"/><path class="st3" d="M2208.5 1963.5l.6-1.7.8-2.2 5.4-13.2h3.9v20h-2.7v-16.5l-.4 1.1-1.1 2.8-5.2 12.7h-2.5l-5.2-12.7c-.6-1.6-1.1-2.9-1.3-3.8v16.5h-2.7v-20h3.7l5.2 12.7C2207.6 1960.5 2208.1 1962 2208.5 1963.5z"/><path class="st3" d="M2228.4 1946.5v12.7l-.1 3.3-.1 1 10.8-17.1h3.8v20h-2.8v-12.2l.1-2.4.1-2.4-10.8 17h-3.8v-20H2228.4z"
		/><path class="st3" d="M2266.7 1973.4h-2.9v-6.9h-14v6.9h-2.9v-9.5h1.6c1.6-2.2 2.9-4.8 3.8-7.8s1.4-6.2 1.4-9.6h10.1v17.4h2.9V1973.4zM2260.9 1963.8v-15h-4.5c-.2 2.7-.7 5.4-1.6 8.2-.9 2.8-2 5-3.3 6.8H2260.9z"/><path class="st3" d="M2287.9 1956.4c0 3.3-.8 5.8-2.5 7.6-1.6 1.8-3.9 2.7-6.8 2.7-1.8.0-3.4-.4-4.8-1.3-1.4-.8-2.5-2-3.2-3.6-.8-1.6-1.1-3.4-1.1-5.5.0-3.3.8-5.8 2.4-7.6 1.6-1.8 3.9-2.7 6.8-2.7 2.8.0 5 .9 6.7 2.8S2287.9 1953.3 2287.9 1956.4zM2272.7 1956.4c0 2.6.5 4.5 1.5 5.8s2.5 2 4.5 2c2 0 3.5-.7 4.5-2 1-1.3 1.5-3.3 1.5-5.9.0-2.5-.5-4.5-1.5-5.8-1-1.3-2.5-2-4.6-2-2 0-3.5.7-4.5 2C2273.2 1951.9 2272.7 1953.9 2272.7 1956.4z"/><path class="st3" d="M2302.6 1966.8c-1.3.0-2.5-.2-3.6-.7-1.1-.5-2-1.2-2.7-2.2h-.2c.1 1.2.2 2.3.2 3.3v8.2h-3v-29h2.5l.4 2.7h.1c.8-1.1 1.7-1.9 2.7-2.4 1-.5 2.2-.7 3.6-.7 2.7.0 4.7.9 6.1 2.7s2.2 4.4 2.2 7.6c0 3.3-.7 5.8-2.2 7.7S2305.2 1966.8 2302.6 1966.8zM2302.1 1948.7c-2 0-3.5.6-4.4 1.7-.9 1.1-1.4 2.9-1.4 5.4v.7c0 2.8.5 4.8 1.4 6 .9 1.2 2.4 1.8 4.5 1.8 1.7.0 3.1-.7 4.1-2.1 1-1.4 1.5-3.3 1.5-5.8.0-2.5-.5-4.4-1.5-5.7C2305.3 1949.3 2303.9 1948.7 2302.1 1948.7z"/></g><g class="st2"><path class="st3" d="M1311 787.2h-4.6v-35.3h-12.8l-.8 6.5c-1.1 8.6-2.1 14.9-2.9 18.9-.8 4-1.9 6.8-3.3 8.3-1.4 1.6-3.2 2.3-5.4 2.3-1.3.0-2.5-.2-3.6-.7v-3.9c1 .5 2 .7 3 .7 1 0 1.8-.4 2.5-1.2.7-.8 1.3-2.1 1.9-4.1s1.2-5.6 2.1-11c.8-5.4 1.8-12.1 2.8-20h21.2V787.2z"/><path class="st3" d="M1339.3 787.2l-.9-4.2h-.2c-1.5 1.9-2.9 3.1-4.4 3.8-1.5.7-3.3 1-5.5 1-2.9.0-5.2-.8-6.9-2.3-1.7-1.5-2.5-3.7-2.5-6.4.0-6 4.8-9.1 14.3-9.4l5-.2v-1.8c0-2.3-.5-4-1.5-5.1-1-1.1-2.6-1.7-4.8-1.7-2.5.0-5.2.8-8.4 2.3l-1.4-3.4c1.5-.8 3-1.4 4.8-1.9s3.5-.7 5.2-.7c3.5.0 6.1.8 7.8 2.3 1.7 1.6 2.5 4.1 2.5 7.5v20.2H1339.3zM1329.2 784c2.8.0 5-.8 6.6-2.3 1.6-1.5 2.4-3.7 2.4-6.4v-2.7l-4.5.2c-3.6.1-6.1.7-7.7 1.7s-2.4 2.5-2.4 4.6c0 1.6.5 2.8 1.5 3.7S1327.4 784 1329.2 784z"/><path class="st3" d="M1356.3 787.2h-4.5v-29.5h24.8v29.5h-4.5v-25.7h-15.8V787.2z"/><path class="st3" d="M1411.6 772.4c0 4.8-1.2 8.6-3.6 11.3s-5.8 4.1-10.1 4.1c-2.6.0-5-.6-7-1.9-2-1.2-3.6-3-4.7-5.3s-1.7-5-1.7-8.1c0-4.8 1.2-8.6 3.6-11.3s5.8-4 10-4c4.1.0 7.4 1.4 9.9 4.1C1410.4 764 1411.6 767.7 1411.6 772.4zm-22.5.0c0 3.8.8 6.6 2.3 8.6 1.5 2 3.7 3 6.7 3s5.2-1 6.7-3 2.3-4.8 2.3-8.6c0-3.8-.8-6.6-2.3-8.6-1.5-1.9-3.8-2.9-6.7-2.9-2.9.0-5.1 1-6.6 2.9C1389.9 765.7 1389.1 768.6 1389.1 772.4z"/><path class="st3" d="M1439.4 761.5h-9.6v25.7h-4.5v-25.7h-9.5v-3.8h23.6V761.5z"/><path class="st3" d="M1470.7 772.4c0 4.8-1.2 8.6-3.6 11.3s-5.8 4.1-10.1 4.1c-2.6.0-5-.6-7-1.9-2-1.2-3.6-3-4.7-5.3s-1.7-5-1.7-8.1c0-4.8 1.2-8.6 3.6-11.3s5.8-4 10-4c4.1.0 7.4 1.4 9.9 4.1C1469.5 764 1470.7 767.7 1470.7 772.4zm-22.5.0c0 3.8.8 6.6 2.3 8.6 1.5 2 3.7 3 6.7 3s5.2-1 6.7-3 2.3-4.8 2.3-8.6c0-3.8-.8-6.6-2.3-8.6-1.5-1.9-3.8-2.9-6.7-2.9-2.9.0-5.1 1-6.6 2.9C1449 765.7 1448.2 768.6 1448.2 772.4z"/><path class="st3" d="M1495.8 757.6h4.9l-12.8 14.3 13.8 15.3h-5.2l-13.5-15v15h-4.5v-29.5h4.5V772L1495.8 757.6z"/></g><g><path class="st4" d="M1658.5 689h162v353h-162z"/></g><g><path class="st3" d="M1779.8 758.1h-19.2c-3.7.0-7.3 1.5-9.9 4.1l-39.2 39.8H1699c-6.5.0-11.7 5.3-11.7 11.7.0.1.0.1.0.2.2 6.4 5.4 11.5 11.8 11.5h17.5c3.7.0 7.3-1.5 9.9-4.1l39.2-39.8h14.3c6.5.0 11.7-5.3 11.7-11.7.0-.1.0-.1.0-.2C1791.5 763.2 1786.3 758.1 1779.8 758.1z"/></g><g><path class="st3" d="M1732.2 735.1c-5 0-9 4-9 9s4 9 9 9 9-4 9-9-4-9-9-9v0z"/></g><g><path class="st3" d="M1732.4 755.5c-5.1.0-9.2 4.1-9.2 9.1.0.0.0.0.0.1v18l18.1-18.2c0-5-4-9-8.899999999999864-9z"/></g><g><path class="st4" d="M1249.5 318h280v154h-280z"/></g><g><path class="st3" d="M1349.5 369.5h27.4v73.2H1349.5z"/></g><g><path class="st3" d="M1317.5 369.5h27.4v73.2H1317.5z"/></g><g><path class="st3" d="M1397.5 342h-100.6c-1.3.0-2.3 1-2.3 2.3.0.0.0.0.0.0v100.6c0 1.3 1 2.3 2.3 2.3h16v-80c0-1.3 1-2.3 2.3-2.3h64c1.3.0 2.3 1 2.3 2.3v80h16c1.3.0 2.3-1 2.3-2.3V344.3C1399.7 343 1398.7 342 1397.5 342zM1339.7 359.6c-.9.9-2.3.9-3.2.0.0.0.0.0.0.0l-3-3-3 3c-.9.9-2.3.9-3.2.0-.9-.9-.9-2.3.0-3.2l4.6-4.6c.9-.9 2.3-.9 3.2.0l4.6 4.6C1340.5 357.3 1340.5 358.7 1339.7 359.6zM1367.1 355.1l-4.6 4.6c-.9.9-2.3.9-3.2.0.0.0.0.0.0.0l-4.6-4.6c-.9-.9-.9-2.3.0-3.2.9-.9 2.3-.9 3.2.0l3 3 3-3c.9-.9 2.4-.8 3.2.1C1368 352.8 1368 354.2 1367.1 355.1v0zM1388.4 401.5c-1.3.0-2.3-1-2.3-2.3s1-2.3 2.3-2.3 2.3 1 2.3 2.3c0 0 0 0 0 0C1390.6 400.4 1389.6 401.5 1388.4 401.5v0zM1388.4 392.3c-1.3.0-2.3-1-2.3-2.3.0-1.3 1-2.3 2.3-2.3 1.3.0 2.3 1 2.3 2.3.0.0.0.0.0.0C1390.6 391.3 1389.6 392.3 1388.4 392.3z"/></g><g><path class="st3" d="M1484.3 408.4c0-11.9-9.4-21.5-21-21.5-1.3.0-2.5.1-3.7.3-.7.1-1.4.3-2.1.5l5.8 20.7h21z"/></g><g><path class="st3" d="M1437.7 411.4c-.1-2.5-1-4.8-2.6-6.8-2.1-2.6-5.3-4.3-9.4-5.2-.5-.6-1.2-.9-2-.9h-2.7c-1.4-.1-2.7 1-2.8 2.4-.1 1.4 1 2.7 2.4 2.8.1.0.2.0.3.0h2.7c.6.0 1.2-.2 1.7-.6 2.6.4 5 1.8 6.8 3.7 1 1.3 1.7 2.9 1.8 4.5h-.1c0 11.4 11.3 20.6 25.2 20.6s25.2-9.2 25.2-20.6H1437.7z"/></g><g><path class="st3" d="M1449.3 432.9c-4 0-7.2 3.2-7.2 7.2s3.2 7.2 7.2 7.2 7.2-3.2 7.2-7.2c0 0 0 0 0 0C1456.4 436.1 1453.2 432.9 1449.3 432.9zM1449.3 443.6c-1.9.0-3.5-1.6-3.5-3.5.0-1.9 1.6-3.5 3.5-3.5 1.9.0 3.5 1.6 3.5 3.5.0.0.0.0.0.0C1452.8 442 1451.2 443.6 1449.3 443.6c0 0 0 0 0 0v0z"/></g><g><path class="st3" d="M1468.6 432.9c-4 0-7.2 3.2-7.2 7.2s3.2 7.2 7.2 7.2 7.2-3.2 7.2-7.2c0 0 0 0 0 0C1475.8 436.1 1472.6 432.9 1468.6 432.9zM1468.6 443.6c-1.9.0-3.5-1.6-3.5-3.5.0-1.9 1.6-3.5 3.5-3.5 1.9.0 3.5 1.6 3.5 3.5.0.0.0.0.0.0C1472.1 442 1470.6 443.6 1468.6 443.6v0z"/></g><g><path class="st5" d="M1181.9 2310.5c-5.6.0-11.3-.2-17-.6-55.2-3.8-106.3-26-146.4-63v26.9l-10.3.2c-59.2 1-114.8 1.5-166.8 1.5-409.3.0-600.6-28.7-659.9-40.1-4.1 4.2-8.5 8-13.3 11.4-22.4 16.2-49.8 22.7-77.1 18.3-27.3-4.4-51.3-19.1-67.5-41.5-32.4-44.8-23.7-106.9 18.9-141.2V1015h1104V4h1209v2086.6c2.5 2.5 4.8 5.2 7 7.9 17.2 21.6 25 48.7 21.8 76.2-3.1 27.5-16.8 52.1-38.4 69.3-42.9 34.1-104.8 28.6-141.1-11.5-17.6 3.9-71.9 14.5-178.7 24.2-120.3 11-332.8 22.9-662.4 17.2l-10.3-.2V2238c-4.5 4.6-9.2 9.1-14.1 13.3C1295.2 2289.9 1239.8 2310.5 1181.9 2310.5zM997.5 2192.9l18.4 21.2c79.5 91.3 218.4 100.9 309.7 21.5 11-9.6 21.2-20.4 30.1-32l18.8-24.6v74.1c54.7.9 106.2 1.3 154.5 1.3 235.6.0 395.7-9.6 494-18.5 129.7-11.8 182.6-25.1 183.1-25.3l6.6-1.7 4.2 5.3c16.3 20.5 40.4 31.1 64.7 31.1 18 0 36.1-5.8 51.3-17.9 17.3-13.7 28.1-33.3 30.6-55.2 2.5-21.9-3.7-43.5-17.4-60.7-2.5-3.2-5.3-6.2-8.2-8.9l-3.3-3.1V25h-1167v1011H63.5v1057l-4.3 3.1c-36.9 26.7-45.2 78.3-18.5 115.2 12.9 17.9 32 29.6 53.8 33.1 21.8 3.5 43.6-1.7 61.4-14.6 5.1-3.7 9.8-8 13.9-12.7l4-4.6 6 1.2c57.4 11.5 285.4 48.1 817.7 39.5V2192.9z"/></g><g><path class="st3" d="M142.9 1472c0 5.8 4.7 10.5 10.5 10.5s10.5-4.7 10.5-10.5c0-5.8-4.7-10.5-10.5-10.5.0.0.0.0.0.0C147.6 1461.5 142.9 1466.2 142.9 1472z"/></g><g><path class="st3" d="M169.7 1456.8c-.6.4-.9 1-.9 1.7v27c0 1.1.9 2 2 2 .3.0.6.0.8-.2l33.6-13.5c.8-.3 1.3-1 1.3-1.9.0-.8-.5-1.6-1.3-1.9l-33.6-13.5C171 1456.3 170.3 1456.4 169.7 1456.8z"/></g><g><path class="st3" d="M142.9 1435.5c0 5.8 4.7 10.5 10.5 10.5 5.8.0 10.5-4.7 10.5-10.5.0-5.8-4.7-10.5-10.5-10.5C147.6 1425 142.9 1429.7 142.9 1435.5v0z"/></g><g><path class="st3" d="M203.7 1420.1l-33.6 13.5c-1 .4-1.6 1.5-1.2 2.6.2.5.6 1 1.2 1.2l33.6 13.5c1 .4 2.2-.1 2.6-1.1.1-.3.2-.5.2-.8v-27c0-1.1-.9-2-2-2C204.2 1420 203.9 1420 203.7 1420.1v0z"/></g></svg>