<svg id="level-1" data-name="Слой 1" xmlns="http://www.w3.org/2000/svg" viewBox="0 0 2830.76 2295.5"><defs><style>.cls-1{fill:#dbdbe0;}.cls-2{fill:#cbcbcd;}.cls-3{fill:#aaaba7;}.cls-4{fill:#ebebeb;}.cls-5{fill:#bebebe;}</style></defs><title>Карта</title><polygon class="cls-1" points="1963 602.5 1998 1040.5 1534 1040.5 1534 1851.92 2814.47 1851.92 2814.47 1260.8 2814.47 1045.84 2814.47 602.5 1963 602.5"/><polygon class="cls-2" points="1568.32 14.5 1568.32 1441.87 2022.73 1441.87 2022.73 602.73 2279.21 602.73 2279.21 1255.08 2817.26 1255.08 2817.26 14.5 1568.32 14.5"/><polygon class="cls-2" points="2279.21 1277.38 2279.21 1461.38 1565.53 1461.38 1565.53 1795.92 2814.47 1795.92 2814.47 1550.59 2814.47 1461.38 2814.47 1277.38 2279.21 1277.38"/><polygon class="cls-2" points="1548.8 1812.65 1548.8 1040.42 15.5 1040.42 15.5 1768.04 244.1 1768.04 244.1 2281 2814.47 2281 2814.47 1812.65 1548.8 1812.65"/><path class="cls-3" d="M2051.21,376.14h-7.8V309h37.41V316h-29.61v24.56H2079v6.93h-27.82Z"/><path class="cls-3" d="M2121.71,376.14,2120.2,369h-.37a21.17,21.17,0,0,1-7.5,6.41,23,23,0,0,1-9.34,1.67q-7.48,0-11.73-3.85t-4.25-11q0-15.24,24.37-16l8.54-.27v-3.12c0-3.95-.85-6.86-2.55-8.75s-4.41-2.82-8.14-2.82q-6.29,0-14.23,3.86l-2.34-5.83a36.63,36.63,0,0,1,17-4.32q9,0,13.33,4t4.34,12.8v34.33Zm-17.21-5.37q7.11,0,11.18-3.9t4.06-10.92v-4.54l-7.62.32q-9.09.31-13.11,2.82t-4,7.78a7.85,7.85,0,0,0,2.5,6.29C2099.17,370.06,2101.5,370.77,2104.5,370.77Z"/><path class="cls-3" d="M2207.17,376.14V343.42c0-4-.85-7-2.57-9s-4.37-3-8-3q-7.11,0-10.51,4.09t-3.4,12.57v28.09h-7.62V343.42q0-6-2.57-9c-1.71-2-4.39-3-8-3q-7.15,0-10.49,4.3t-3.33,14.06v26.39h-7.62v-50.3h6.2l1.24,6.88h.37a14.89,14.89,0,0,1,6.08-5.73,18.51,18.51,0,0,1,8.79-2.07q11.79,0,15.42,8.54h.37a16,16,0,0,1,6.52-6.24,20.18,20.18,0,0,1,9.73-2.3q8.54,0,12.78,4.39t4.24,14v32.81Z"/><path class="cls-3" d="M2229.85,312.21a5.07,5.07,0,0,1,1.28-3.83,4.75,4.75,0,0,1,6.38,0,4.94,4.94,0,0,1,1.33,3.81,5,5,0,0,1-1.33,3.83,4.67,4.67,0,0,1-6.38,0A5.18,5.18,0,0,1,2229.85,312.21Zm8.26,63.93h-7.62v-50.3h7.62Z"/><path class="cls-3" d="M2261.89,376.14h-7.62V304.73h7.62Z"/><path class="cls-3" d="M2277.4,312.21a5.07,5.07,0,0,1,1.28-3.83,4.75,4.75,0,0,1,6.38,0,4.94,4.94,0,0,1,1.34,3.81,5,5,0,0,1-1.34,3.83,4.67,4.67,0,0,1-6.38,0A5.18,5.18,0,0,1,2277.4,312.21Zm8.26,63.93H2278v-50.3h7.62Z"/><path class="cls-3" d="M2332.75,376.14l-1.51-7.16h-.37a21.17,21.17,0,0,1-7.5,6.41,23,23,0,0,1-9.34,1.67q-7.49,0-11.73-3.85t-4.25-11q0-15.24,24.38-16L2331,346v-3.12c0-3.95-.85-6.86-2.54-8.75s-4.42-2.82-8.15-2.82q-6.29,0-14.23,3.86l-2.34-5.83a36.63,36.63,0,0,1,17-4.32q9,0,13.33,4t4.34,12.8v34.33Zm-17.21-5.37q7.11,0,11.18-3.9t4.06-10.92v-4.54l-7.62.32q-9.09.31-13.1,2.82t-4,7.78a7.85,7.85,0,0,0,2.5,6.29C2310.21,370.06,2312.54,370.77,2315.54,370.77Z"/><path class="cls-3" d="M602.08,1610.72a35.67,35.67,0,0,0-15.33,3.49l-3.3-6.61a42.25,42.25,0,0,1,18.73-3.86,34.46,34.46,0,0,1,17.14,4,26.45,26.45,0,0,1,10.9,11.52,39.19,39.19,0,0,1,3.72,17.63q0,17.25-8.36,26.53t-24.05,9.27a51.45,51.45,0,0,1-17.58-2.62v-6.84q3.81,1,7.76,1.75a43.77,43.77,0,0,0,8.49.78q12.43,0,18.77-6.63t6.71-19.12h-33v-7h32.91q-1-10.5-7.23-16.43T602.08,1610.72Z"/><path class="cls-3" d="M685.44,1671.81h-7.72V1628h-15.1a182,182,0,0,1-3.44,25.94q-2.2,9.58-5.71,14a10.89,10.89,0,0,1-8.93,4.45,11.49,11.49,0,0,1-3.95-.55v-5.64a9,9,0,0,0,2.3.27q5.28,0,8.4-11.15t4.72-33.87h29.43Z"/><path class="cls-3" d="M709.21,1642.3h15.51q19.29,0,19.28,14.18,0,7.44-5,11.38t-14.71,4H701.59v-50.3h7.62Zm0,6.56v16.57H723.9q6.06,0,9.27-2.11a7.12,7.12,0,0,0,3.21-6.38,6.81,6.81,0,0,0-3-6.13q-3-1.95-9.75-2Z"/><path class="cls-3" d="M800.92,1689.21h-7.39v-17.4H758.37v17.4H751v-24h4a65.56,65.56,0,0,0,9.64-19.6,84.26,84.26,0,0,0,3.63-24.14h25.47v43.74h7.21Zm-14.55-24v-37.73H775.08a84,84,0,0,1-3.93,20.63,58.22,58.22,0,0,1-8.28,17.1Z"/><path class="cls-3" d="M854.39,1646.61q0,12.3-6.2,19.21t-17.12,6.91a22.69,22.69,0,0,1-12-3.17,20.9,20.9,0,0,1-8.08-9.09,31.73,31.73,0,0,1-2.84-13.86q0-12.3,6.15-19.16t17.07-6.86q10.56,0,16.78,7T854.39,1646.61Zm-38.33,0q0,9.65,3.86,14.69t11.33,5q7.49,0,11.36-5t3.88-14.71q0-9.58-3.88-14.57t-11.45-5q-7.49,0-11.29,4.91T816.06,1646.61Z"/><path class="cls-3" d="M891.15,1672.73a21.75,21.75,0,0,1-9-1.81,16.91,16.91,0,0,1-6.82-5.58h-.55a66.92,66.92,0,0,1,.55,8.35v20.7h-7.62v-72.88h6.2l1.06,6.88h.36a17.81,17.81,0,0,1,6.84-6,20.86,20.86,0,0,1,8.95-1.83q10,0,15.45,6.84t5.44,19.18q0,12.41-5.53,19.26T891.15,1672.73Zm-1.1-45.67q-7.71,0-11.15,4.27t-3.54,13.59v1.69q0,10.61,3.54,15.17t11.33,4.57a11.8,11.8,0,0,0,10.22-5.28q3.69-5.28,3.69-14.55t-3.69-14.43A12.17,12.17,0,0,0,890.05,1627.06Z"/><path class="cls-3" d="M956.28,1671.81l-1.51-7.16h-.37a21.13,21.13,0,0,1-7.5,6.4,22.85,22.85,0,0,1-9.34,1.68q-7.48,0-11.73-3.86t-4.25-11q0-15.23,24.38-16l8.53-.27v-3.12q0-5.93-2.55-8.75c-1.69-1.88-4.41-2.82-8.14-2.82q-6.28,0-14.23,3.85l-2.34-5.82a36.63,36.63,0,0,1,17-4.32q9,0,13.33,4c2.89,2.67,4.34,6.93,4.34,12.81v34.33Zm-17.21-5.37q7.11,0,11.18-3.9t4.06-10.92v-4.55l-7.62.32q-9.09.33-13.11,2.83c-2.67,1.66-4,4.26-4,7.78a7.82,7.82,0,0,0,2.5,6.28A10.38,10.38,0,0,0,939.07,1666.44Z"/><path class="cls-3" d="M1021.32,1689.21h-7.39v-17.4H978.77v17.4h-7.34v-24h4a65.31,65.31,0,0,0,9.63-19.6,83.91,83.91,0,0,0,3.63-24.14h25.47v43.74h7.21Zm-14.55-24v-37.73H995.48a84,84,0,0,1-3.93,20.63,57.73,57.73,0,0,1-8.28,17.1Z"/><path class="cls-3" d="M1074.79,1646.61q0,12.3-6.19,19.21t-17.12,6.91a22.67,22.67,0,0,1-12-3.17,20.83,20.83,0,0,1-8.08-9.09,31.58,31.58,0,0,1-2.85-13.86q0-12.3,6.15-19.16t17.08-6.86q10.54,0,16.77,7T1074.79,1646.61Zm-38.32,0q0,9.65,3.85,14.69t11.34,5q7.48,0,11.36-5t3.88-14.71q0-9.58-3.88-14.57t-11.45-5q-7.48,0-11.29,4.91T1036.47,1646.61Z"/><path class="cls-3" d="M2016.63,1664.74h7.89v24.56h-7.39v-17.49h-50.58v-67.1h7.8v60h34.47v-60h7.81Z"/><path class="cls-3" d="M2055.92,1672.73q-11.16,0-17.61-6.79t-6.44-18.87q0-12.16,6-19.32t16.09-7.16q9.46,0,15,6.22t5.5,16.41V1648h-34.65q.23,8.85,4.48,13.44t12,4.59a40.62,40.62,0,0,0,16.07-3.39v6.79a40.21,40.21,0,0,1-7.65,2.5A42.51,42.51,0,0,1,2055.92,1672.73Zm-2.07-45.76a12.44,12.44,0,0,0-9.66,4q-3.6,3.94-4.25,10.92h26.3q0-7.2-3.21-11T2053.85,1627Z"/><path class="cls-3" d="M2095,1621.51v21.06h28.18v-21.06h7.62v50.3h-7.62v-22.67H2095v22.67h-7.62v-50.3Z"/><path class="cls-3" d="M2177.91,1671.81l-1.51-7.16H2176a21.13,21.13,0,0,1-7.5,6.4,22.85,22.85,0,0,1-9.34,1.68q-7.49,0-11.73-3.86t-4.25-11q0-15.23,24.38-16l8.53-.27v-3.12c0-4-.84-6.87-2.54-8.75s-4.42-2.82-8.15-2.82q-6.29,0-14.23,3.85l-2.34-5.82a36.63,36.63,0,0,1,17-4.32q9,0,13.33,4c2.89,2.67,4.34,6.93,4.34,12.81v34.33Zm-17.21-5.37q7.11,0,11.18-3.9t4.06-10.92v-4.55l-7.62.32q-9.09.33-13.1,2.83c-2.68,1.66-4,4.26-4,7.78a7.82,7.82,0,0,0,2.5,6.28A10.38,10.38,0,0,0,2160.7,1666.44Z"/><path class="cls-3" d="M2225.37,1664.47l1.43-4.27,2-5.42,13.63-33.18h9.69v50.21h-6.75v-41.54l-.92,2.67-2.66,7-13,31.85h-6.38l-13-31.94a93.5,93.5,0,0,1-3.35-9.6v41.54h-6.79V1621.6h9.31l13.18,31.9Q2223.72,1658.54,2225.37,1664.47Z"/><path class="cls-3" d="M2312,1624.26q0,10.18-7,15.67t-19.9,5.49h-7.9v26.39h-7.8v-67.1h17.4Q2312,1604.71,2312,1624.26Zm-34.75,14.46h7q10.36,0,15-3.35t4.63-10.74q0-6.66-4.36-9.92c-2.91-2.17-7.43-3.25-13.59-3.25h-8.72Z"/><path class="cls-3" d="M2355.86,1671.81l-1.51-7.16H2354a21.13,21.13,0,0,1-7.5,6.4,22.85,22.85,0,0,1-9.34,1.68q-7.48,0-11.73-3.86t-4.25-11q0-15.23,24.38-16l8.53-.27v-3.12q0-5.93-2.55-8.75c-1.69-1.88-4.41-2.82-8.14-2.82q-6.28,0-14.23,3.85l-2.34-5.82a36.63,36.63,0,0,1,17-4.32q9,0,13.33,4c2.89,2.67,4.34,6.93,4.34,12.81v34.33Zm-17.21-5.37q7.11,0,11.18-3.9t4.06-10.92v-4.55l-7.62.32q-9.09.33-13.1,2.83c-2.68,1.66-4,4.26-4,7.78a7.82,7.82,0,0,0,2.5,6.28A10.38,10.38,0,0,0,2338.65,1666.44Z"/><path class="cls-3" d="M2420.9,1689.21h-7.39v-17.4h-35.16v17.4H2371v-24H2375a65.31,65.31,0,0,0,9.63-19.6,83.91,83.91,0,0,0,3.63-24.14h25.47v43.74h7.21Zm-14.55-24v-37.73h-11.29a84,84,0,0,1-3.93,20.63,57.73,57.73,0,0,1-8.28,17.1Z"/><rect class="cls-4" x="2070" y="663.5" width="162" height="348"/><path class="cls-3" d="M2186.28,705.76h-19.16a14,14,0,0,0-9.89,4.14l-39.18,39.76h-12.59a11.7,11.7,0,0,0-11.7,11.9,11.82,11.82,0,0,0,11.84,11.5h17.47a14,14,0,0,0,9.89-4.14l39.18-39.76h14.28a11.7,11.7,0,0,0,11.69-11.9A11.81,11.81,0,0,0,2186.28,705.76Z"/><path class="cls-3" d="M2138.66,682.8a9,9,0,1,0,9,9A9,9,0,0,0,2138.66,682.8Z"/><path class="cls-3" d="M2138.85,703.13a9.16,9.16,0,0,0-9.19,9.19v18l18.07-18.19A9,9,0,0,0,2138.85,703.13Z"/><path class="cls-5" d="M2824,2291.5H232.6v-513H4V1029.92H1556.82V4H2826.76V1265.58H2824Zm-2570.37-21H2803V1244.58h2.79V25H1577.82V1051H1537.3v-.08H25v706.62H253.6Z"/></svg>