<svg id="Capa_1" enable-background="new 0 0 512 512" height="512" viewBox="0 0 512 512" width="512" xmlns="http://www.w3.org/2000/svg"><g><g><path d="m124.848 203.473c-4.105.549-6.99 4.321-6.442 8.427 4.41 33.046 20.676 63.451 45.801 85.612 25.353 22.363 57.952 34.68 91.794 34.68 76.546 0 138.821-62.275 138.821-138.821s-62.276-138.822-138.822-138.822c-33.842 0-66.441 12.316-91.794 34.68-25.125 22.161-41.391 52.566-45.801 85.612-.548 4.105 2.337 7.878 6.442 8.427 4.104.548 7.877-2.337 8.427-6.442 8.162-61.158 60.922-107.277 122.726-107.277 68.275 0 123.821 55.546 123.821 123.821s-55.546 123.821-123.821 123.821c-61.804 0-114.564-46.119-122.726-107.276-.549-4.107-4.325-6.994-8.426-6.442z"/><path d="m368.153 35.828c-3.373-2.405-8.055-1.62-10.461 1.752-2.405 3.372-1.621 8.056 1.752 10.461 46.916 33.457 74.926 87.786 74.926 145.329 0 78.629-49.551 157.261-91.118 209.379-36.915 46.283-74.265 80.435-87.253 91.848-12.959-11.383-50.175-45.402-87.072-91.625-41.65-52.175-91.297-130.891-91.297-209.602 0-98.353 80.016-178.37 178.37-178.37 25.903 0 50.879 5.427 74.232 16.131 3.769 1.727 8.219.071 9.943-3.693 1.726-3.766.072-8.217-3.693-9.943-25.329-11.609-52.407-17.495-80.482-17.495-106.625 0-193.37 86.745-193.37 193.37 0 36.841 10.018 76.508 29.773 117.899 15.663 32.815 37.465 66.816 64.8 101.061 46.408 58.136 93.531 97.546 94.002 97.937 1.39 1.155 3.092 1.733 4.795 1.733s3.405-.578 4.795-1.733c.471-.391 47.594-39.801 94.002-97.937 27.335-34.244 49.137-68.245 64.8-101.061 19.756-41.392 29.773-81.059 29.773-117.899 0-62.382-30.361-121.275-81.217-157.542z"/><path d="m256 286.733c51.481 0 93.364-41.883 93.364-93.363 0-51.481-41.883-93.364-93.364-93.364s-93.364 41.883-93.364 93.364 41.883 93.363 93.364 93.363zm0-171.727c43.21 0 78.364 35.154 78.364 78.364s-35.154 78.363-78.364 78.363-78.364-35.153-78.364-78.363 35.154-78.364 78.364-78.364z"/><ellipse cx="246.912" cy="142.485" rx="10.408" ry="10.408" transform="matrix(.851 -.526 .526 .851 -38.033 151.089)"/><circle cx="212.601" cy="165.566" r="10.408"/><circle cx="247.535" cy="181.786" r="10.408"/></g></g></svg>